$MeshFormat
2.2 0 8
$EndMeshFormat
$PhysicalNames
1
2 1 "Domain"
$EndPhysicalNames
$Nodes
568
1 0 -1 0
2 1.5 -1 0
3 1.5 1 0
4 0 1 0
5 0.95 -0.05 0
6 1.05 -0.05 0
7 1.05 0.05 0
8 0.95 0.05 0
9 0.1874999999992419 -1 0
10 0.3749999999984601 -1 0
11 0.5624999999977921 -1 0
12 0.7499999999971457 -1 0
13 0.9374999999978434 -1 0
14 1.124999999998562 -1 0
15 1.312499999999281 -1 0
16 1.5 -0.8000000000005548 0
17 1.5 -0.6000000000011096 0
18 1.5 -0.4000000000016644 0
19 1.5 -0.2000000000022192 0
20 1.5 -2.752242878045763e-12 0
21 1.5 0.1999999999977808 0
22 1.5 0.3999999999983355 0
23 1.5 0.5999999999988903 0
24 1.5 0.7999999999994454 0
25 1.312500000000905 1 0
26 1.125000000001289 1 0
27 0.9375000000012396 1 0
28 0.7500000000020797 1 0
29 0.5625000000015757 1 0
30 0.3750000000010505 1 0
31 0.1875000000005254 1 0
32 0 0.8000000000005548 0
33 0 0.6000000000011096 0
34 0 0.4000000000016644 0
35 0 0.2000000000022192 0
36 0 2.752242878045763e-12 0
37 0 -0.1999999999977808 0
38 0 -0.3999999999983355 0
39 0 -0.5999999999988903 0
40 0 -0.7999999999994454 0
41 0.9599999999999826 -0.05 0
42 0.9700000000000304 -0.05 0
43 0.9799999999999697 -0.05 0
44 0.9899999999999913 -0.05 0
45 0.9999999999999349 -0.05 0
46 1.009999999999835 -0.05 0
47 1.020000000000043 -0.05 0
48 1.03000000000013 -0.05 0
49 1.040000000000078 -0.05 0
50 1.05 -0.04000000000002196 0
51 1.05 -0.03000000000004607 0
52 1.05 -0.02000000000007454 0
53 1.05 -0.0100000000001057 0
54 1.05 -1.327965515329765e-13 0
55 1.05 0.009999999999893226 0
56 1.05 0.01999999999991896 0
57 1.05 0.02999999999994685 0
58 1.05 0.03999999999997261 0
59 1.040000000000091 0.05 0
60 1.030000000000156 0.05 0
61 1.020000000000082 0.05 0
62 1.010000000000061 0.05 0
63 1.000000000000173 0.05 0
64 0.9900000000001821 0.05 0
65 0.9800000000001128 0.05 0
66 0.9699999999999956 0.05 0
67 0.9599999999999262 0.05 0
68 0.95 0.04000000000002196 0
69 0.95 0.03000000000004607 0
70 0.95 0.02000000000007454 0
71 0.95 0.0100000000001057 0
72 0.95 1.327965515329765e-13 0
73 0.95 -0.009999999999893226 0
74 0.95 -0.01999999999991896 0
75 0.95 -0.02999999999994685 0
76 0.95 -0.03999999999997261 0
77 0.7694661968967875 0.490849615171193 0
78 0.8626224569258303 0.7252239039661428 0
79 1.109806297248551 -0.1236958985741551 0
80 1.029088431272846 -0.521737629125424 0
81 0.9593150370616195 0.3526252868740199 0
82 1.048235357174363 0.1840729724908778 0
83 0.7009269458924184 0.05624024773578142 0
84 0.897873333867208 0.1020182613602239 0
85 0.4661953577285955 -0.06113011551429433 0
86 0.9661008179049515 -0.09890446922786351 0
87 0.9458610150151805 -0.2987819397598062 0
88 1.044826169525159 -0.1878854579892105 0
89 0.7544273186229438 -0.1648018811940602 0
90 1.014539054207309 -0.1161567994570049 0
91 0.9427884782427483 0.3005293612125549 0
92 1.170009025544234 -0.02255399902268929 0
93 0.9680971459368564 0.1016564495567666 0
94 0.4892296908892833 0.2351546381578825 0
95 1.219135050759237 -0.1283461190621897 0
96 0.9508961888600348 0.1532420873747401 0
97 0.9259537071864935 0.04883895102286497 0
98 1.032861190970272 0.5280331764682946 0
99 0.8313199908940447 -0.005755388153623921 0
100 1.12450855444161 0.04606588415045489 0
101 0.776922967716594 0.2309756725003802 0
102 0.9577411691835915 -0.1501772278391018 0
103 0.9045930168162143 0.02500000000006031 0
104 0.8150969865413502 -0.04378782720210175 0
105 0.5129662737566734 0.5061456650925751 0
106 0.8535142776731603 0.04413568506653571 0
107 0.6887221615442433 -0.5010627806949861 0
108 0.8008013134561272 -0.3664348541352649 0
109 1.00906189516353 0.1164221742695004 0
110 0.880130407895328 -0.01300954800507407 0
111 1.249727849527587 0.2055908401529575 0
112 0.8781080282049013 -0.1011704417091167 0
113 1.278386978723109 0.05159011486131865 0
114 1.101382777925209 0.1226964202410276 0
115 1.211171514161916 -0.3921417973116866 0
116 1.160770154708507 0.3700551244095921 0
117 0.5141721242853325 -0.3004860115508171 0
118 0.9097804772163456 -0.04499999999998632 0
119 0.9960170956654345 -0.08368231349541927 0
120 0.9960170956655752 0.08368231349548105 0
121 0.3005946497420126 -0.6600167057387576 0
122 1.044286851250336 -0.09148474031895001 0
123 1.045231784155728 0.0873310823140116 0
124 0.9178683731853723 -0.004089920278571314 0
125 0.9250336441019165 -0.0828118047866811 0
126 1.120207788209254 -0.04353616159640269 0
127 0.8632324280331902 -0.2093550060126765 0
128 1.095099875290264 -0.005496325338310242 0
129 0.862878827824046 -0.7312183494562977 0
130 0.8705268009018747 0.1939827660238505 0
131 0.8156401608674109 0.1163151669370356 0
132 0.2762459720712589 0.09981073333693433 0
133 0.9851161913111711 0.06073230304198362 0
134 0.7031060145273218 -0.117996445374331 0
135 1.013052402456582 -0.09436166575027999 0
136 0.9391879970669108 0.004930648821124707 0
137 0.9391817692338776 -0.01488731169133664 0
138 0.7738959665683059 0.6148617043425753 0
139 0.2665144781108018 -0.2267597944950526 0
140 0.9538321660836989 -0.07578394076456994 0
141 0.6345843059983231 -0.0935267329762435 0
142 0.9514479416762509 0.07422331696323392 0
143 1.084920338260134 0.02231182521681218 0
144 1.081972875229747 -0.03500000000003402 0
145 1.082454904208463 -0.06647324440748073 0
146 0.585804087407831 -0.7286556197177497 0
147 0.3029784190303259 0.3605157558579399 0
148 1.204702664812347 0.7301423102043521 0
149 1.202463219570728 -0.7316355983085995 0
150 1.014041090704418 -0.07244093057300956 0
151 0.9280326838625241 0.01500000000009012 0
152 0.9280326838624781 -0.0249999999999329 0
153 1.014041090704574 0.07244093057300514 0
154 0.6482782116051047 0.3475624695183139 0
155 0.2867347760715032 0.7139347948661563 0
156 0.9750000000000568 0.07011750434794829 0
157 0.9750000000000009 -0.07011750434790325 0
158 0.9283444141689956 -0.04594964827497803 0
159 1.154691502203766 -0.2225394728775824 0
160 1.035391439348261 -0.07166408669987101 0
161 0.6453984752890565 0.1773924522310968 0
162 0.5867484403913706 0.730754760924489 0
163 1.03552642976337 0.07107070698485157 0
164 0.9340639643766263 0.06749966550289314 0
165 0.9301671655917136 0.1004340216421339 0
166 0.8866311141947175 0.05871587204357351 0
167 0.8291956509237922 0.3488905357433294 0
168 0.9289880738954869 -0.4300253675208129 0
169 1.215265574557322 0.5798682882849311 0
170 1.060784602147753 -0.3182471311067072 0
171 1.094062159265852 0.07485824865901629 0
172 0.5773577999083759 0.04919118005237884 0
173 0.1659755062340073 0.8322885879057641 0
174 0.944343433380225 0.4132773159734637 0
175 0.7775567897696503 0.02472750585970918 0
176 0.7116028551420608 -0.05059666215008826 0
177 0.6770511116472462 -0.2975853772518029 0
178 0.8592256574288096 -0.06342771998689858 0
179 0.9757725312690717 -0.2262259824657808 0
180 1.344241567142139 -0.2649917436350563 0
181 0.9759343972568628 0.2198866444500542 0
182 1.047195574027213 0.2818516016015031 0
183 1.071657648475377 -0.01341605422312229 0
184 1.071132575672371 0.006199920807854229 0
185 0.5138119156399018 -0.4985982867977421 0
186 1.221873483898934 -0.5547563318029016 0
187 1.034182866901818 -0.7340110319686409 0
188 1.07420037302924 0.04561754877805137 0
189 0.8526282953077202 -0.58968055422935 0
190 0.8620415585308994 0.09431992633669357 0
191 1.037903453629185 0.7320529275366583 0
192 1.214498510101555 0.1130432335222082 0
193 1.150833270061224 0.2272557883413995 0
194 0.4247561189125469 0.1272548906531629 0
195 0.8757061421993777 0.560490310982834 0
196 0.9968832443075551 -0.06827070441069734 0
197 1.342241335524726 -0.8399918770546482 0
198 0.9968832443077283 0.06827070441074781 0
199 0.3077993107241704 -0.3833765890368205 0
200 0.9342154527977675 -0.1221298453302209 0
201 0.8986742274195157 -0.1651148007528411 0
202 0.8181512837362611 -0.1563941753441961 0
203 0.9330605551746751 -0.004848320046337783 0
204 0.2733270313852822 -0.0614707013755756 0
205 1.06592587181975 -0.1427013097054337 0
206 1.057400923027579 -0.07302467266208842 0
207 0.8005781579742656 -0.275077649900468 0
208 1.059720487111434 0.06770551566827349 0
209 0.5024118314203185 -0.1774900191728791 0
210 1.289666121285026 0.3835618642938607 0
211 0.9989023143593281 -0.1660357711770822 0
212 0.793239108170531 0.07089124859401653 0
213 1.063673690748892 0.1400410123421529 0
214 0.7114880616655113 0.1308797367198556 0
215 1.05964038837282 0.0141020327354111 0
216 1.060024530164462 0.03577387381760488 0
217 1.035154150645981 -0.05892979018729042 0
218 0.4549423867101073 -0.3919363611228371 0
219 1.034969483577751 0.05858956185620834 0
220 1.119345556777542 -0.08430439207618953 0
221 0.9740401463081031 0.6245076613047472 0
222 0.9339404936765492 0.03658475385017845 0
223 0.9078729415178108 0.1598386973341387 0
224 0.8702481519239719 0.01398417937262189 0
225 0.6471072188689145 0.5839272213043742 0
226 0.999396346374001 0.1720578525131163 0
227 0.8271318946937021 -0.1004986130273251 0
228 1.052757230851263 -0.4204273709048139 0
229 0.9887091652437096 -0.1330190903758091 0
230 0.8693256470062631 -0.3033430662944908 0
231 0.2186452177395624 -0.7829107333693258 0
232 0.984073819352784 0.1304314013018041 0
233 1.011377656657855 0.3805382539687603 0
234 0.9357316501640283 -0.06799425757730136 0
235 0.6644582626501159 -0.1911666036278667 0
236 0.8730577241751393 0.2776257397225931 0
237 0.1779568728774641 0.5272232436898391 0
238 1.389910849852029 -0.07316977428512902 0
239 0.9336852610530499 0.1938594718732695 0
240 1.067159306796339 -0.04500000000001099 0
241 0.4083107769065841 -0.7969696082055159 0
242 0.9086455584946239 -0.02144388204322668 0
243 0.7350623937346361 -0.6395265776752261 0
244 0.9650000000000044 -0.06192280048488362 0
245 0.9645395157492112 0.06324060346527119 0
246 0.5141299001466706 0.3678808545214042 0
247 0.652875965840863 0.005117284646273294 0
248 0.3811857598534252 -0.1344109272464751 0
249 0.1834960118030404 -0.511330841460052 0
250 0.7647515845108779 -0.08769052864757859 0
251 0.8541715869558211 -0.4878755415946862 0
252 0.5978495631602333 -0.3962676374191373 0
253 0.4527597629377978 0.65554699355419 0
254 0.937581043369046 -0.1932037463124597 0
255 0.361511217985816 0.2326472458419959 0
256 1.348160434314011 -0.4820405651765717 0
257 0.8682910284537968 0.135337785444287 0
258 0.9378213566730874 -0.03510760087209144 0
259 0.4518868975478705 0.8355855834123084 0
260 0.8989281927495973 -0.07074125496535116 0
261 0.9102591823361468 0.0639818603105315 0
262 0.7438286675790823 0.3096746789371601 0
263 1.065595481221095 0.0249999999999329 0
264 1.046119236981573 -0.06068135113656872 0
265 1.025000000000091 -0.06170090669241252 0
266 0.1605439082068918 0.2631668560563026 0
267 1.025000000000124 0.06170090669237808 0
268 1.044320988125014 0.06017619560381203 0
269 0.9851161913110168 -0.06073230304193153 0
270 1.005056142797037 -0.06013651448132239 0
271 0.6941478049823838 -0.830909193714612 0
272 0.89651175139363 0.004552395861495702 0
273 1.005056142797258 0.06013651448134852 0
274 0.9183545329385505 -0.2461819481690428 0
275 1.102994438085313 -0.1771512010372272 0
276 1.256043087007421 -0.04384179478414199 0
277 0.1439221599039197 -0.11504353397436 0
278 0.4036972305991453 -0.2680792787959939 0
279 1.0135485801143 0.09483476090576004 0
280 1.082096293420696 0.4351421964670374 0
281 0.9499266938515041 0.1184167607564282 0
282 0.3541936704044498 0.5338549563930406 0
283 0.1815900314239993 -0.351128417996287 0
284 0.9875654808101777 -0.1058153463039093 0
285 1.349821323363439 0.6768628470079886 0
286 0.951004654191908 0.06157900920262943 0
287 1.062641577359737 -0.0250000000000603 0
288 1.352456412218066 -0.6680707287240641 0
289 0.9513320289082555 -0.0629292261646047 0
290 1.098107040211379 0.1754701801956524 0
291 0.6016318899954154 -0.5864833676466963 0
292 0.723317882514352 0.8320834128710757 0
293 1.361427746133316 0.1485508132911765 0
294 0.9400616276066813 0.04500000000001099 0
295 0.93955681006114 0.02521083373295483 0
296 1.096634517297028 0.6204046263328383 0
297 0.9914345460838438 0.1024241733403809 0
298 0.658482508581493 0.4657982999536813 0
299 0.7064175268137455 -0.3947626438866082 0
300 0.9443826530950975 -0.0940889242555428 0
301 0.9553937791079097 -0.8335993792283795 0
302 1.161384541586667 -0.08875568180899907 0
303 0.6460669439382332 0.09781446304394259 0
304 1.097264938059201 -0.857012183963064 0
305 1.112931522427855 0.8454022050582887 0
306 0.9682704846364805 0.8551798336358304 0
307 0.8998696320157937 0.3539843117740777 0
308 1.099496415769339 -0.6126557243453969 0
309 0.9210439489631204 0.02946493873693038 0
310 1.031862199323583 -0.2496777507267406 0
311 1.061266190618243 -0.004879222781208768 0
312 0.9048433601196664 0.04379380551946317 0
313 0.9778087402698814 -0.08751794051287626 0
314 0.9199270265353663 -0.3595333202015397 0
315 0.8849682220475721 -0.04032751593381786 0
316 1.122569556705014 -0.4787289655931414 0
317 0.6998305342190069 0.2312087741622029 0
318 0.5953916623644928 0.25498919656873 0
319 0.5577865860009052 -0.05630243892545517 0
320 0.9750000000000008 -0.0588217500737114 0
321 0.9297622463046544 0.2476028324809565 0
322 0.9806384087272715 0.08554091419073591 0
323 0.975000000000057 0.05882175007377637 0
324 0.9412139653129993 -0.0249999999999329 0
325 0.9412575601441253 0.01500000000009012 0
326 0.7497274407561773 0.07006673977110536 0
327 0.9409492188966412 -0.04499999999998632 0
328 1.014999999999942 -0.05882175007371592 0
329 0.9906686631049347 -0.3611254175233004 0
330 1.015000000000066 0.0588217500736552 0
331 0.9175045586903445 0.1282146023186586 0
332 1.342241335525379 0.8399918770547975 0
333 0.8191041634335402 0.0304927455000833 0
334 1.186753936569757 0.04461120066424831 0
335 0.551503155102021 0.1435253970959357 0
336 1.084177675200943 0.2342776601499462 0
337 0.8545595510948854 -0.02845629750584151 0
338 1.074393711133325 -0.09974231444891757 0
339 0.7658639089746013 -0.02573678793938243 0
340 0.9691871730454997 -0.6179603060699947 0
341 0.9150630683858816 0.01184176662781435 0
342 0.9610970658268969 -0.1202714114691258 0
343 1.360348057933221 0.2715076906734403 0
344 0.9661265526614775 0.1842663241065793 0
345 0.9222485929748171 -0.06059917025027864 0
346 1.157405087633657 0.1551805831977205 0
347 1.089555371201961 -0.2426033293940422 0
348 1.062354751877165 -0.03500000000003467 0
349 0.8219498974204882 0.1782425817290451 0
350 0.8581000958415068 0.4364447130329034 0
351 0.4192499784915221 0.4170869563462298 0
352 0.1261334310365949 0.6946893252926849 0
353 1.059082003866326 -0.01482604867398002 0
354 0.9177840634218415 0.08283927410717939 0
355 1.065975220875977 0.09973116576596476 0
356 1.058776789430478 0.004999999999880215 0
357 0.1646033460187049 0.01178034564522359 0
358 1.159903054652694 -0.156438368648706 0
359 0.8850644688491143 0.03355882968381949 0
360 0.9017606361921213 -0.1301987990020244 0
361 0.8065254103771747 0.2836279452843422 0
362 1.027567043146327 -0.08621092666738808 0
363 1.058776789430479 0.04499999999998631 0
364 0.94023280632614 0.05576892508664624 0
365 1.027682489121838 0.08560928744720403 0
366 0.4670795825906009 -0.6292556585404955 0
367 1.117891243958428 -0.3819328455086269 0
368 0.7512252219046278 0.3998700520594302 0
369 0.9377738167042389 -0.5186140075966214 0
370 1.221428321220919 0.2928336795620552 0
371 0.9730109195127608 -0.1839303235505569 0
372 0.7160940625217329 0.7078235673704747 0
373 0.5298920173335806 -0.8662344163428595 0
374 0.7352649651163149 -0.2424097446047478 0
375 0.7654217106748429 0.1668314333310532 0
376 0.8297965601182542 0.2328909410520422 0
377 1.146435170989606 0.09274259507244595 0
378 1.11983717541149 0.2950902699017147 0
379 1.338490473862913 0.5160317307985288 0
380 0.9258962448960686 -0.1481043116703015 0
381 1.200220448556567 0.4687470997419996 0
382 0.794330830696595 -0.2096076914112297 0
383 1.024706981438297 0.230925092138007 0
384 0.3836277557717472 0.001994997631157786 0
385 1.133753745457116 0.005108282770258984 0
386 0.937177417575353 0.08314852678637885 0
387 0.4849693780945802 0.0390636566738237 0
388 1.02866098275437 -0.1469216490877276 0
389 0.1663829369189697 0.3929219028769603 0
390 0.1271155584360797 0.1302289174428224 0
391 0.2963131810533177 0.8759557783906058 0
392 1.022703589143719 0.141463354714793 0
393 1.060907546793167 -0.05871049001076108 0
394 0.9381009841854563 -0.05541205037785818 0
395 0.9952936540593512 -0.05772311850100298 0
396 0.9952936540595532 0.05772311850103126 0
397 0.5945810288982347 -0.2550752652819953 0
398 0.4231693366119547 0.3171178636359538 0
399 0.1251911518822325 -0.6846046442814151 0
400 0.7911155203909462 -0.12734629955329 0
401 1.125415604960377 0.5264390774590203 0
402 0.8645097497132819 -0.14378863930803 0
403 0.8647917336549658 -0.4043908099092881 0
404 1.282195543135291 0.1318065214043915 0
405 0.9422860642950927 -0.00496099658326203 0
406 0.7433155069254682 -0.3258098693003915 0
407 0.7335620072193619 0.01012197491434684 0
408 0.8591874203303881 -0.004146452425536799 0
409 0.6055978027434723 0.8768620780496119 0
410 1.043144983856188 -0.1163516705021439 0
411 1.003991187465273 -0.2943072631955407 0
412 0.8433490912733297 0.892113343382186 0
413 0.7993621229574515 -0.007531100023735091 0
414 0.5498954239886891 0.619093660218907 0
415 0.9273345402812014 0.00450855695878064 0
416 1.388558335588821 0.03852329819522904 0
417 0.9506427916388664 0.09303471867678695 0
418 0.8399840823818657 -0.8791453844798579 0
419 0.9128299482115149 -0.1043590568568879 0
420 1.097631282509978 0.04271773851025061 0
421 0.9670403852015038 -0.08032923635565883 0
422 0.9656265152633529 0.08102424695888277 0
423 0.2946647172485393 -0.8863994844200312 0
424 1.007058537350279 -0.202581792612141 0
425 0.9862412794756504 -0.07503580804794156 0
426 1.033103534492246 0.1070640567998907 0
427 1.142796074055957 -0.3023329077331971 0
428 1.231145322968296 -0.2891292883188489 0
429 0.1217614050063248 -0.8737803988017332 0
430 0.5907644029935795 -0.1547122119968879 0
431 0.7729044005355886 -0.5498430090335268 0
432 0.9863687546232622 0.0746799510742249 0
433 0.9873196919948122 0.2662854925980775 0
434 0.9491064836296381 0.5059268228662406 0
435 1.003957011611737 0.4525835531487594 0
436 0.3712873095349721 -0.5124190737827841 0
437 0.9253577879902054 -0.01405388681188106 0
438 1.028518066983348 -0.1009131605391534 0
439 1.107762424272062 0.02111931233316613 0
440 0.8896144807465505 0.07820375773034538 0
441 1.326943767717272 -0.3656606788887656 0
442 0.9210032247951578 -0.03552789160966188 0
443 0.9913496186468767 -0.4607554673993976 0
444 1.222357869374088 0.888452734892019 0
445 1.070801221487476 0.3465991450089994 0
446 1.219947620701962 -0.8903520940823572 0
447 0.6005038825849485 -0.4956030181396404 0
448 1.217043918506609 -0.1945985308240459 0
449 1.309124502557357 -0.1550552594612554 0
450 0.7777492719173734 -0.4461930413151227 0
451 0.9407388646572609 -0.07969647786570921 0
452 0.9430669072285043 0.03518322322279342 0
453 0.8636198356421643 0.06772393029729995 0
454 0.8337172145877827 0.06859483157663873 0
455 0.7666986421600464 0.1133666679377998 0
456 0.8465070327788256 0.01870526500073807 0
457 1.002967273505897 0.3211831231378535 0
458 0.1184053338877442 -0.2585863492923632 0
459 0.5894550703805824 0.4121974317946453 0
460 1.014071011263946 -0.03488660690843281 0
461 0.9579971405722214 -0.03201017201098745 0
462 1.042002859427767 0.03201017201098221 0
463 1.03238071187091 -0.04218403490944041 0
464 1.032380711870911 0.04218403490942988 0
465 0.9579971405722577 0.03201017201097327 0
466 1.042002859427737 -0.03201017201096493 0
467 0.9679898279890181 -0.04200285942775998 0
468 0.9859289887360568 0.03488660690843795 0
469 1.014071011263937 0.03488660690840144 0
470 1.006939784631345 0.04167300488297421 0
471 0.9784885729431996 0.001054213377827475 0
472 0.9981930853890545 0.01925549705740029 0
473 1.032949735449731 -0.0329497354497225 0
474 0.9859843205574911 -0.001909988024674443 0
475 1.034096466710438 -0.003092904496819756 0
476 0.9597856108865903 0.02388370860749804 0
477 0.9859289887360603 -0.03488660690840745 0
478 1.014446493342781 -0.04279448976136116 0
479 0.9714582718581162 -0.0005669851348190305 0
480 1.019411597434598 -0.007910846799356145 0
481 1.000000000000002 0.0280313588850179 0
482 0.975970140301827 0.04006094296446965 0
483 0.999858587794759 0.009819541590272136 0
484 1.023907360314423 0.04023348642130135 0
485 0.9962374914416338 0.0390029139347959 0
486 0.9656802487543715 0.004653870896861621 0
487 1.009963185582485 -0.02308694700215204 0
488 1.000229215617965 -0.02808638089599969 0
489 0.9670502645502583 -0.03294973544973546 0
490 1.032949735449745 0.03294973544971784 0
491 0.9929188195233387 -0.005356182449141513 0
492 0.9701158042957163 -0.02343410806244804 0
493 1.005755559635121 0.0337291971215712 0
494 0.9946127994778076 -0.03354319288707796 0
495 0.983306599807207 0.02813488467921202 0
496 0.9933013937282241 0.01401567944250945 0
497 1.014861135921913 0.01543168337204911 0
498 0.9762976354796871 0.02996165664370729 0
499 0.9898107518106931 0.02406229333165301 0
500 1.023773587181481 0.01001896151514686 0
501 1.040311093920106 -0.04031109392010514 0
502 0.9599878106505423 0.04001218934945638 0
503 1.03963249429892 0.003975279225986332 0
504 0.9936072487312044 -0.01410840402512418 0
505 1.028134884679213 0.01669340019279189 0
506 1.021863943947975 0.02019695009968608 0
507 1.029961656643695 0.02370236452031634 0
508 0.985032754977307 -0.04335360102728104 0
509 0.9653005467089713 0.01383922453619387 0
510 1.027578227704067 -0.0001863424325534016 0
511 1.011529510838686 0.02505210099666654 0
512 1.009813760717007 -0.002521603082798932 0
513 0.9931421464649075 -0.0416479118066834 0
514 1.040060942964459 0.02402985969816223 0
515 0.9651133930915724 -0.01407101126394157 0
516 1.004254095135682 -0.03885235547705193 0
517 1.029961656643662 -0.02370236452034469 0
518 1.01401567944251 0.006698606271774506 0
519 1.04337139348752 -0.01492599961513015 0
520 1.007909315121713 -0.0307065905133668 0
521 1.034886606908424 0.01407101126393681 0
522 0.9610216309585193 -0.004001457678784064 0
523 0.9670502645502675 0.03294973544973642 0
524 1.001300588371767 -0.01880116579558995 0
525 1.028607161093477 -0.008535815280735744 0
526 0.9724391520277051 0.00750650498303911 0
527 1.008190940913073 -0.01252334480121365 0
528 1.042916008834361 0.01441523003757951 0
529 1.020354659225096 -0.02217088082682977 0
530 0.9599390570355366 -0.02402985969817344 0
531 0.9914755999870164 0.005676424287671305 0
532 1.000293055500294 -0.008748656247807522 0
533 1.016221550999952 -0.01588424598766108 0
534 0.974914321149438 0.01514332447303956 0
535 1.015636353267159 -0.02790700799170306 0
536 1.041949048847822 -0.006540218950096052 0
537 0.972733413846481 -0.01556273125155026 0
538 0.9698679523469041 -0.008066058663780559 0
539 1.024769227582614 -0.01525068178738543 0
540 0.9772206175661868 -0.03012652966219002 0
541 0.977714675474028 -0.008844766902950617 0
542 1.040058250621825 -0.0240291061766735 0
543 0.9599878106505405 -0.04001218934945618 0
544 0.9698734703378195 0.02277938243383709 0
545 1.04031109392011 0.04031109392010759 0
546 0.9581816422185461 0.006492067778678217 0
547 0.9856273240959624 0.04279009276154069 0
548 1.00605673740524 0.01632671304071289 0
549 0.9679898279890052 0.04200285942776682 0
550 0.9760926396856069 -0.04023348642131434 0
551 0.9572148162171257 -0.01442046572814225 0
552 0.9857342920609996 -0.01333779540063255 0
553 1.0239073603144 -0.04023348642132111 0
554 1.022815134869262 -0.03021015973519545 0
555 0.9852442126610338 0.01516941661531265 0
556 0.9566535599628214 0.01484300018451007 0
557 1.034849667967951 -0.01406067294870097 0
558 0.9926492416021855 0.03166581634306442 0
559 1.03196220035039 0.006790343405181307 0
560 0.9810058867619176 0.007733622567908029 0
561 1.000418400303028 0.0002913247157182974 0
562 0.9794486174838354 0.02175974508133587 0
563 1.01498363124197 0.0433586196425354 0
564 0.9792857142857117 -0.02071428571428404 0
565 1.006032633132509 0.006122916507135779 0
566 1.022779382433822 0.03012652966217884 0
567 1.019222481669408 0.0004099127484807772 0
568 0.9895095514344234 -0.02424270934724735 0
$EndNodes
$Elements
1098
1 2 2 1 1 247 83 303
2 2 2 1 1 186 115 316
3 2 2 1 1 90 229 388
4 2 2 1 1 94 194 335
5 2 2 1 1 142 164 286
6 2 2 1 1 196 150 270
7 2 2 1 1 210 116 370
8 2 2 1 1 78 195 221
9 2 2 1 1 130 239 321
10 2 2 1 1 50 6 240
11 2 2 1 1 119 150 196
12 2 2 1 1 153 198 273
13 2 2 1 1 7 208 268
14 2 2 1 1 231 121 399
15 2 2 1 1 102 211 229
16 2 2 1 1 195 78 138
17 2 2 1 1 317 214 375
18 2 2 1 1 116 210 381
19 2 2 1 1 243 146 271
20 2 2 1 1 232 109 392
21 2 2 1 1 121 249 399
22 2 2 1 1 181 226 383
23 2 2 1 1 153 120 198
24 2 2 1 1 236 130 321
25 2 2 1 1 127 207 230
26 2 2 1 1 188 208 363
27 2 2 1 1 129 243 271
28 2 2 1 1 129 187 340
29 2 2 1 1 85 209 319
30 2 2 1 1 8 67 286
31 2 2 1 1 226 96 232
32 2 2 1 1 41 5 289
33 2 2 1 1 117 209 278
34 2 2 1 1 93 232 281
35 2 2 1 1 172 247 303
36 2 2 1 1 223 96 239
37 2 2 1 1 96 223 331
38 2 2 1 1 250 89 400
39 2 2 1 1 115 186 256
40 2 2 1 1 301 13 304
41 2 2 1 1 319 209 430
42 2 2 1 1 179 87 411
43 2 2 1 1 18 19 180
44 2 2 1 1 201 127 254
45 2 2 1 1 194 94 255
46 2 2 1 1 132 255 266
47 2 2 1 1 141 319 430
48 2 2 1 1 121 231 241
49 2 2 1 1 226 82 383
50 2 2 1 1 295 222 309
51 2 2 1 1 189 129 340
52 2 2 1 1 169 148 296
53 2 2 1 1 127 201 402
54 2 2 1 1 97 294 364
55 2 2 1 1 92 276 334
56 2 2 1 1 242 124 272
57 2 2 1 1 151 295 309
58 2 2 1 1 252 177 397
59 2 2 1 1 140 300 421
60 2 2 1 1 77 225 298
61 2 2 1 1 207 127 382
62 2 2 1 1 209 248 278
63 2 2 1 1 57 56 263
64 2 2 1 1 226 181 344
65 2 2 1 1 242 152 437
66 2 2 1 1 310 179 411
67 2 2 1 1 255 147 266
68 2 2 1 1 225 105 298
69 2 2 1 1 164 97 364
70 2 2 1 1 111 343 370
71 2 2 1 1 281 96 331
72 2 2 1 1 187 149 308
73 2 2 1 1 101 317 375
74 2 2 1 1 178 104 227
75 2 2 1 1 191 78 221
76 2 2 1 1 166 106 359
77 2 2 1 1 104 178 337
78 2 2 1 1 232 93 297
79 2 2 1 1 225 77 138
80 2 2 1 1 87 179 274
81 2 2 1 1 112 178 227
82 2 2 1 1 247 176 407
83 2 2 1 1 199 249 436
84 2 2 1 1 335 194 387
85 2 2 1 1 272 103 359
86 2 2 1 1 135 119 284
87 2 2 1 1 139 199 278
88 2 2 1 1 141 176 247
89 2 2 1 1 67 245 286
90 2 2 1 1 305 26 306
91 2 2 1 1 190 131 454
92 2 2 1 1 214 83 326
93 2 2 1 1 192 111 346
94 2 2 1 1 13 14 304
95 2 2 1 1 244 41 289
96 2 2 1 1 92 126 302
97 2 2 1 1 260 118 315
98 2 2 1 1 276 92 302
99 2 2 1 1 148 169 285
100 2 2 1 1 209 85 248
101 2 2 1 1 249 121 436
102 2 2 1 1 145 240 393
103 2 2 1 1 149 186 308
104 2 2 1 1 237 147 282
105 2 2 1 1 257 130 349
106 2 2 1 1 228 170 329
107 2 2 1 1 194 132 384
108 2 2 1 1 150 119 135
109 2 2 1 1 124 242 437
110 2 2 1 1 284 86 342
111 2 2 1 1 33 34 237
112 2 2 1 1 120 279 297
113 2 2 1 1 176 141 134
114 2 2 1 1 83 247 407
115 2 2 1 1 148 191 296
116 2 2 1 1 257 84 331
117 2 2 1 1 113 276 416
118 2 2 1 1 126 128 144
119 2 2 1 1 16 288 197
120 2 2 1 1 187 129 301
121 2 2 1 1 237 34 389
122 2 2 1 1 128 126 385
123 2 2 1 1 132 204 384
124 2 2 1 1 129 189 243
125 2 2 1 1 126 144 145
126 2 2 1 1 120 153 279
127 2 2 1 1 38 249 283
128 2 2 1 1 254 127 274
129 2 2 1 1 131 257 349
130 2 2 1 1 89 250 134
131 2 2 1 1 123 355 426
132 2 2 1 1 285 24 332
133 2 2 1 1 31 4 173
134 2 2 1 1 329 170 411
135 2 2 1 1 97 164 261
136 2 2 1 1 199 139 283
137 2 2 1 1 161 214 317
138 2 2 1 1 223 130 257
139 2 2 1 1 93 281 417
140 2 2 1 1 235 89 134
141 2 2 1 1 67 66 245
142 2 2 1 1 42 41 244
143 2 2 1 1 130 223 239
144 2 2 1 1 207 108 230
145 2 2 1 1 149 187 304
146 2 2 1 1 186 149 288
147 2 2 1 1 180 19 449
148 2 2 1 1 298 105 459
149 2 2 1 1 26 27 306
150 2 2 1 1 230 87 274
151 2 2 1 1 146 243 291
152 2 2 1 1 202 127 402
153 2 2 1 1 195 77 350
154 2 2 1 1 84 190 440
155 2 2 1 1 117 252 397
156 2 2 1 1 38 39 249
157 2 2 1 1 155 237 282
158 2 2 1 1 4 32 173
159 2 2 1 1 127 230 274
160 2 2 1 1 155 253 259
161 2 2 1 1 229 211 388
162 2 2 1 1 172 335 387
163 2 2 1 1 288 149 197
164 2 2 1 1 132 194 255
165 2 2 1 1 179 254 274
166 2 2 1 1 224 110 272
167 2 2 1 1 252 117 218
168 2 2 1 1 131 190 257
169 2 2 1 1 86 300 342
170 2 2 1 1 241 10 373
171 2 2 1 1 191 148 305
172 2 2 1 1 11 12 271
173 2 2 1 1 148 285 332
174 2 2 1 1 78 191 306
175 2 2 1 1 246 94 318
176 2 2 1 1 91 236 321
177 2 2 1 1 118 260 345
178 2 2 1 1 249 199 283
179 2 2 1 1 243 107 291
180 2 2 1 1 154 246 318
181 2 2 1 1 3 25 332
182 2 2 1 1 15 2 197
183 2 2 1 1 130 236 376
184 2 2 1 1 11 271 373
185 2 2 1 1 248 85 384
186 2 2 1 1 226 232 392
187 2 2 1 1 300 86 421
188 2 2 1 1 260 125 345
189 2 2 1 1 19 238 449
190 2 2 1 1 150 160 265
191 2 2 1 1 83 214 303
192 2 2 1 1 139 204 277
193 2 2 1 1 38 283 458
194 2 2 1 1 343 210 370
195 2 2 1 1 76 75 258
196 2 2 1 1 206 122 338
197 2 2 1 1 160 206 264
198 2 2 1 1 24 3 332
199 2 2 1 1 2 16 197
200 2 2 1 1 16 17 288
201 2 2 1 1 314 230 403
202 2 2 1 1 204 139 248
203 2 2 1 1 227 104 250
204 2 2 1 1 172 303 335
205 2 2 1 1 163 153 267
206 2 2 1 1 379 169 381
207 2 2 1 1 131 212 454
208 2 2 1 1 210 379 381
209 2 2 1 1 254 102 380
210 2 2 1 1 253 162 259
211 2 2 1 1 23 24 285
212 2 2 1 1 316 115 367
213 2 2 1 1 77 195 138
214 2 2 1 1 178 112 260
215 2 2 1 1 87 230 314
216 2 2 1 1 229 90 284
217 2 2 1 1 105 225 414
218 2 2 1 1 190 84 257
219 2 2 1 1 188 171 208
220 2 2 1 1 48 47 265
221 2 2 1 1 195 350 434
222 2 2 1 1 161 318 335
223 2 2 1 1 247 172 319
224 2 2 1 1 147 237 389
225 2 2 1 1 50 240 348
226 2 2 1 1 208 163 268
227 2 2 1 1 105 253 282
228 2 2 1 1 61 60 267
229 2 2 1 1 90 135 284
230 2 2 1 1 80 228 443
231 2 2 1 1 230 108 403
232 2 2 1 1 256 186 288
233 2 2 1 1 253 155 282
234 2 2 1 1 232 96 281
235 2 2 1 1 223 257 331
236 2 2 1 1 350 174 434
237 2 2 1 1 282 147 351
238 2 2 1 1 29 30 259
239 2 2 1 1 110 242 272
240 2 2 1 1 286 164 364
241 2 2 1 1 22 23 379
242 2 2 1 1 109 232 297
243 2 2 1 1 141 235 134
244 2 2 1 1 142 245 422
245 2 2 1 1 106 224 359
246 2 2 1 1 244 140 421
247 2 2 1 1 164 142 386
248 2 2 1 1 21 293 416
249 2 2 1 1 281 165 417
250 2 2 1 1 177 252 299
251 2 2 1 1 126 92 385
252 2 2 1 1 37 38 458
253 2 2 1 1 185 252 218
254 2 2 1 1 236 91 307
255 2 2 1 1 106 166 453
256 2 2 1 1 224 272 359
257 2 2 1 1 123 208 355
258 2 2 1 1 157 244 421
259 2 2 1 1 211 102 371
260 2 2 1 1 303 161 335
261 2 2 1 1 298 154 368
262 2 2 1 1 52 51 287
263 2 2 1 1 279 109 297
264 2 2 1 1 245 156 422
265 2 2 1 1 128 143 184
266 2 2 1 1 276 113 334
267 2 2 1 1 168 251 369
268 2 2 1 1 309 97 312
269 2 2 1 1 392 109 426
270 2 2 1 1 302 126 220
271 2 2 1 1 89 235 374
272 2 2 1 1 80 308 316
273 2 2 1 1 209 117 397
274 2 2 1 1 125 260 419
275 2 2 1 1 112 227 402
276 2 2 1 1 250 104 339
277 2 2 1 1 170 228 367
278 2 2 1 1 245 142 286
279 2 2 1 1 34 35 266
280 2 2 1 1 366 185 436
281 2 2 1 1 17 256 288
282 2 2 1 1 228 80 316
283 2 2 1 1 96 226 344
284 2 2 1 1 10 11 373
285 2 2 1 1 99 104 337
286 2 2 1 1 17 18 256
287 2 2 1 1 144 128 183
288 2 2 1 1 140 244 289
289 2 2 1 1 241 146 366
290 2 2 1 1 44 43 269
291 2 2 1 1 65 64 133
292 2 2 1 1 440 190 453
293 2 2 1 1 262 154 317
294 2 2 1 1 98 296 221
295 2 2 1 1 6 49 264
296 2 2 1 1 144 287 348
297 2 2 1 1 121 241 366
298 2 2 1 1 184 263 215
299 2 2 1 1 46 45 270
300 2 2 1 1 151 309 341
301 2 2 1 1 111 193 346
302 2 2 1 1 72 71 136
303 2 2 1 1 210 22 379
304 2 2 1 1 63 62 273
305 2 2 1 1 59 7 268
306 2 2 1 1 300 125 419
307 2 2 1 1 229 284 342
308 2 2 1 1 158 345 394
309 2 2 1 1 74 73 137
310 2 2 1 1 162 225 372
311 2 2 1 1 111 192 404
312 2 2 1 1 237 155 352
313 2 2 1 1 178 260 315
314 2 2 1 1 209 397 430
315 2 2 1 1 295 151 325
316 2 2 1 1 187 301 304
317 2 2 1 1 10 241 423
318 2 2 1 1 160 122 206
319 2 2 1 1 140 289 451
320 2 2 1 1 225 162 414
321 2 2 1 1 107 243 431
322 2 2 1 1 250 176 134
323 2 2 1 1 89 374 382
324 2 2 1 1 307 174 350
325 2 2 1 1 155 259 391
326 2 2 1 1 319 172 387
327 2 2 1 1 165 84 354
328 2 2 1 1 34 266 389
329 2 2 1 1 113 293 404
330 2 2 1 1 151 136 325
331 2 2 1 1 204 132 357
332 2 2 1 1 329 168 443
333 2 2 1 1 291 185 366
334 2 2 1 1 308 80 340
335 2 2 1 1 284 119 313
336 2 2 1 1 253 105 414
337 2 2 1 1 317 154 318
338 2 2 1 1 239 96 344
339 2 2 1 1 54 53 311
340 2 2 1 1 70 69 295
341 2 2 1 1 252 107 299
342 2 2 1 1 97 222 294
343 2 2 1 1 101 262 317
344 2 2 1 1 12 13 418
345 2 2 1 1 276 238 416
346 2 2 1 1 138 78 372
347 2 2 1 1 374 207 382
348 2 2 1 1 315 110 337
349 2 2 1 1 29 259 409
350 2 2 1 1 8 286 364
351 2 2 1 1 123 163 208
352 2 2 1 1 292 28 409
353 2 2 1 1 125 234 345
354 2 2 1 1 68 8 294
355 2 2 1 1 318 94 335
356 2 2 1 1 120 297 322
357 2 2 1 1 19 20 238
358 2 2 1 1 22 210 343
359 2 2 1 1 146 241 373
360 2 2 1 1 21 22 343
361 2 2 1 1 28 29 409
362 2 2 1 1 103 309 312
363 2 2 1 1 243 189 431
364 2 2 1 1 145 338 220
365 2 2 1 1 251 168 403
366 2 2 1 1 20 21 416
367 2 2 1 1 271 146 373
368 2 2 1 1 84 165 331
369 2 2 1 1 246 154 459
370 2 2 1 1 154 262 368
371 2 2 1 1 300 200 342
372 2 2 1 1 87 314 329
373 2 2 1 1 115 256 441
374 2 2 1 1 200 300 419
375 2 2 1 1 167 307 350
376 2 2 1 1 36 37 277
377 2 2 1 1 214 161 303
378 2 2 1 1 262 101 361
379 2 2 1 1 289 234 451
380 2 2 1 1 289 5 394
381 2 2 1 1 6 264 393
382 2 2 1 1 42 244 320
383 2 2 1 1 191 305 306
384 2 2 1 1 245 66 323
385 2 2 1 1 228 316 367
386 2 2 1 1 100 334 377
387 2 2 1 1 95 276 302
388 2 2 1 1 334 100 385
389 2 2 1 1 152 242 442
390 2 2 1 1 145 206 338
391 2 2 1 1 200 102 342
392 2 2 1 1 137 152 324
393 2 2 1 1 204 248 384
394 2 2 1 1 248 139 278
395 2 2 1 1 258 152 442
396 2 2 1 1 77 298 368
397 2 2 1 1 272 124 341
398 2 2 1 1 263 56 215
399 2 2 1 1 175 212 326
400 2 2 1 1 160 150 362
401 2 2 1 1 235 141 430
402 2 2 1 1 240 144 348
403 2 2 1 1 165 281 331
404 2 2 1 1 88 205 388
405 2 2 1 1 86 284 313
406 2 2 1 1 33 237 352
407 2 2 1 1 228 329 443
408 2 2 1 1 158 258 442
409 2 2 1 1 355 213 426
410 2 2 1 1 346 114 377
411 2 2 1 1 113 192 334
412 2 2 1 1 110 224 408
413 2 2 1 1 280 233 445
414 2 2 1 1 85 319 387
415 2 2 1 1 141 247 319
416 2 2 1 1 251 189 369
417 2 2 1 1 225 138 372
418 2 2 1 1 162 253 414
419 2 2 1 1 97 261 312
420 2 2 1 1 102 254 371
421 2 2 1 1 314 168 329
422 2 2 1 1 222 97 309
423 2 2 1 1 57 263 216
424 2 2 1 1 183 128 184
425 2 2 1 1 153 163 365
426 2 2 1 1 235 177 374
427 2 2 1 1 201 254 380
428 2 2 1 1 100 171 420
429 2 2 1 1 79 302 220
430 2 2 1 1 270 150 328
431 2 2 1 1 239 181 321
432 2 2 1 1 35 36 390
433 2 2 1 1 36 357 390
434 2 2 1 1 205 88 275
435 2 2 1 1 297 93 322
436 2 2 1 1 36 277 357
437 2 2 1 1 256 18 441
438 2 2 1 1 345 234 394
439 2 2 1 1 308 186 316
440 2 2 1 1 213 392 426
441 2 2 1 1 231 399 429
442 2 2 1 1 102 229 342
443 2 2 1 1 255 94 398
444 2 2 1 1 108 207 406
445 2 2 1 1 278 199 218
446 2 2 1 1 213 82 392
447 2 2 1 1 153 273 330
448 2 2 1 1 43 42 320
449 2 2 1 1 258 75 324
450 2 2 1 1 259 162 409
451 2 2 1 1 121 366 436
452 2 2 1 1 66 65 323
453 2 2 1 1 167 236 307
454 2 2 1 1 292 78 412
455 2 2 1 1 5 76 327
456 2 2 1 1 212 175 333
457 2 2 1 1 263 188 216
458 2 2 1 1 32 33 352
459 2 2 1 1 71 70 325
460 2 2 1 1 98 221 434
461 2 2 1 1 105 282 351
462 2 2 1 1 150 135 362
463 2 2 1 1 175 326 407
464 2 2 1 1 76 258 327
465 2 2 1 1 178 315 337
466 2 2 1 1 293 111 404
467 2 2 1 1 149 304 446
468 2 2 1 1 260 112 419
469 2 2 1 1 166 440 453
470 2 2 1 1 75 74 324
471 2 2 1 1 117 278 218
472 2 2 1 1 151 341 415
473 2 2 1 1 116 280 445
474 2 2 1 1 305 148 444
475 2 2 1 1 212 131 455
476 2 2 1 1 82 213 290
477 2 2 1 1 94 246 398
478 2 2 1 1 167 262 361
479 2 2 1 1 240 6 393
480 2 2 1 1 208 171 355
481 2 2 1 1 227 202 402
482 2 2 1 1 144 183 287
483 2 2 1 1 241 231 423
484 2 2 1 1 104 99 413
485 2 2 1 1 105 246 459
486 2 2 1 1 89 202 400
487 2 2 1 1 184 143 263
488 2 2 1 1 147 255 398
489 2 2 1 1 333 106 454
490 2 2 1 1 161 317 318
491 2 2 1 1 78 292 372
492 2 2 1 1 56 55 215
493 2 2 1 1 192 346 377
494 2 2 1 1 47 46 328
495 2 2 1 1 399 40 429
496 2 2 1 1 340 80 369
497 2 2 1 1 197 149 446
498 2 2 1 1 126 145 220
499 2 2 1 1 148 332 444
500 2 2 1 1 207 374 406
501 2 2 1 1 279 153 365
502 2 2 1 1 176 250 339
503 2 2 1 1 321 181 433
504 2 2 1 1 62 61 330
505 2 2 1 1 276 95 449
506 2 2 1 1 122 160 362
507 2 2 1 1 78 306 412
508 2 2 1 1 341 124 415
509 2 2 1 1 127 202 382
510 2 2 1 1 23 285 379
511 2 2 1 1 30 31 391
512 2 2 1 1 179 310 424
513 2 2 1 1 294 8 364
514 2 2 1 1 167 350 368
515 2 2 1 1 103 272 341
516 2 2 1 1 296 191 221
517 2 2 1 1 118 158 442
518 2 2 1 1 246 105 351
519 2 2 1 1 13 301 418
520 2 2 1 1 265 47 328
521 2 2 1 1 102 200 380
522 2 2 1 1 277 204 357
523 2 2 1 1 136 151 415
524 2 2 1 1 40 1 429
525 2 2 1 1 269 43 320
526 2 2 1 1 309 103 341
527 2 2 1 1 293 113 416
528 2 2 1 1 65 133 323
529 2 2 1 1 211 88 388
530 2 2 1 1 61 267 330
531 2 2 1 1 334 192 377
532 2 2 1 1 58 57 216
533 2 2 1 1 177 235 397
534 2 2 1 1 302 79 358
535 2 2 1 1 49 48 217
536 2 2 1 1 262 167 368
537 2 2 1 1 9 423 429
538 2 2 1 1 136 71 325
539 2 2 1 1 269 157 425
540 2 2 1 1 163 123 365
541 2 2 1 1 152 258 324
542 2 2 1 1 124 203 415
543 2 2 1 1 99 333 413
544 2 2 1 1 107 252 447
545 2 2 1 1 60 59 219
546 2 2 1 1 39 40 399
547 2 2 1 1 44 269 395
548 2 2 1 1 79 205 275
549 2 2 1 1 156 133 432
550 2 2 1 1 291 107 447
551 2 2 1 1 92 334 385
552 2 2 1 1 351 147 398
553 2 2 1 1 133 64 396
554 2 2 1 1 261 164 354
555 2 2 1 1 72 136 405
556 2 2 1 1 236 167 361
557 2 2 1 1 9 10 423
558 2 2 1 1 118 242 315
559 2 2 1 1 234 289 394
560 2 2 1 1 270 45 395
561 2 2 1 1 74 137 324
562 2 2 1 1 310 88 424
563 2 2 1 1 203 124 437
564 2 2 1 1 129 271 418
565 2 2 1 1 285 169 379
566 2 2 1 1 187 308 340
567 2 2 1 1 157 313 425
568 2 2 1 1 157 269 320
569 2 2 1 1 233 174 81
570 2 2 1 1 174 307 81
571 2 2 1 1 173 32 352
572 2 2 1 1 137 73 405
573 2 2 1 1 347 170 427
574 2 2 1 1 82 226 392
575 2 2 1 1 63 273 396
576 2 2 1 1 1 9 429
577 2 2 1 1 111 293 343
578 2 2 1 1 183 184 311
579 2 2 1 1 423 231 429
580 2 2 1 1 133 156 323
581 2 2 1 1 132 266 390
582 2 2 1 1 221 195 434
583 2 2 1 1 48 265 217
584 2 2 1 1 202 89 382
585 2 2 1 1 266 147 389
586 2 2 1 1 46 270 328
587 2 2 1 1 70 295 325
588 2 2 1 1 292 162 372
589 2 2 1 1 322 156 432
590 2 2 1 1 158 118 345
591 2 2 1 1 214 326 455
592 2 2 1 1 242 110 315
593 2 2 1 1 155 173 352
594 2 2 1 1 273 62 330
595 2 2 1 1 27 28 412
596 2 2 1 1 267 60 219
597 2 2 1 1 150 265 328
598 2 2 1 1 173 155 391
599 2 2 1 1 403 108 450
600 2 2 1 1 296 98 401
601 2 2 1 1 14 15 446
602 2 2 1 1 299 108 406
603 2 2 1 1 51 50 348
604 2 2 1 1 25 26 444
605 2 2 1 1 338 122 410
606 2 2 1 1 431 251 450
607 2 2 1 1 213 114 290
608 2 2 1 1 189 340 369
609 2 2 1 1 196 269 425
610 2 2 1 1 106 333 456
611 2 2 1 1 152 137 437
612 2 2 1 1 326 212 455
613 2 2 1 1 224 106 456
614 2 2 1 1 159 275 347
615 2 2 1 1 189 251 431
616 2 2 1 1 267 153 330
617 2 2 1 1 53 52 353
618 2 2 1 1 271 12 418
619 2 2 1 1 133 198 432
620 2 2 1 1 119 196 425
621 2 2 1 1 31 173 391
622 2 2 1 1 327 158 394
623 2 2 1 1 233 280 435
624 2 2 1 1 295 69 452
625 2 2 1 1 227 250 400
626 2 2 1 1 45 44 395
627 2 2 1 1 107 431 450
628 2 2 1 1 171 188 420
629 2 2 1 1 64 63 396
630 2 2 1 1 87 329 411
631 2 2 1 1 159 347 427
632 2 2 1 1 249 39 399
633 2 2 1 1 397 235 430
634 2 2 1 1 259 30 391
635 2 2 1 1 86 313 421
636 2 2 1 1 68 294 452
637 2 2 1 1 198 120 432
638 2 2 1 1 193 111 370
639 2 2 1 1 192 113 404
640 2 2 1 1 374 177 406
641 2 2 1 1 55 54 356
642 2 2 1 1 313 157 421
643 2 2 1 1 264 49 217
644 2 2 1 1 73 72 405
645 2 2 1 1 312 166 359
646 2 2 1 1 79 275 358
647 2 2 1 1 252 185 447
648 2 2 1 1 280 116 381
649 2 2 1 1 82 336 383
650 2 2 1 1 322 93 422
651 2 2 1 1 275 159 358
652 2 2 1 1 242 118 442
653 2 2 1 1 156 322 422
654 2 2 1 1 143 128 439
655 2 2 1 1 181 239 344
656 2 2 1 1 82 290 336
657 2 2 1 1 162 292 409
658 2 2 1 1 59 268 219
659 2 2 1 1 300 140 451
660 2 2 1 1 283 139 458
661 2 2 1 1 280 98 435
662 2 2 1 1 93 417 422
663 2 2 1 1 185 291 447
664 2 2 1 1 174 233 435
665 2 2 1 1 108 299 450
666 2 2 1 1 146 291 366
667 2 2 1 1 177 299 406
668 2 2 1 1 290 114 346
669 2 2 1 1 251 403 450
670 2 2 1 1 52 287 353
671 2 2 1 1 139 277 458
672 2 2 1 1 91 321 433
673 2 2 1 1 244 157 320
674 2 2 1 1 384 85 387
675 2 2 1 1 238 276 449
676 2 2 1 1 156 245 323
677 2 2 1 1 103 312 359
678 2 2 1 1 336 193 378
679 2 2 1 1 287 51 348
680 2 2 1 1 171 114 355
681 2 2 1 1 143 188 263
682 2 2 1 1 246 351 398
683 2 2 1 1 88 310 347
684 2 2 1 1 326 83 407
685 2 2 1 1 5 327 394
686 2 2 1 1 349 130 376
687 2 2 1 1 338 79 220
688 2 2 1 1 350 77 368
689 2 2 1 1 301 129 418
690 2 2 1 1 193 370 378
691 2 2 1 1 7 58 363
692 2 2 1 1 254 179 371
693 2 2 1 1 131 349 375
694 2 2 1 1 69 68 452
695 2 2 1 1 88 211 424
696 2 2 1 1 185 218 436
697 2 2 1 1 218 199 436
698 2 2 1 1 154 298 459
699 2 2 1 1 333 175 413
700 2 2 1 1 90 388 410
701 2 2 1 1 205 79 338
702 2 2 1 1 98 280 401
703 2 2 1 1 417 142 422
704 2 2 1 1 299 107 450
705 2 2 1 1 339 104 413
706 2 2 1 1 313 119 425
707 2 2 1 1 128 385 439
708 2 2 1 1 202 227 400
709 2 2 1 1 333 99 456
710 2 2 1 1 171 100 377
711 2 2 1 1 354 164 386
712 2 2 1 1 211 371 424
713 2 2 1 1 261 166 312
714 2 2 1 1 266 35 390
715 2 2 1 1 337 110 408
716 2 2 1 1 200 360 380
717 2 2 1 1 360 200 419
718 2 2 1 1 120 322 432
719 2 2 1 1 169 296 401
720 2 2 1 1 176 339 407
721 2 2 1 1 182 336 378
722 2 2 1 1 311 53 353
723 2 2 1 1 188 143 420
724 2 2 1 1 175 339 413
725 2 2 1 1 54 311 356
726 2 2 1 1 277 37 458
727 2 2 1 1 201 360 402
728 2 2 1 1 293 21 343
729 2 2 1 1 28 292 412
730 2 2 1 1 114 171 377
731 2 2 1 1 354 84 440
732 2 2 1 1 275 88 347
733 2 2 1 1 371 179 424
734 2 2 1 1 212 333 454
735 2 2 1 1 310 170 347
736 2 2 1 1 236 361 376
737 2 2 1 1 339 175 407
738 2 2 1 1 307 91 81
739 2 2 1 1 304 14 446
740 2 2 1 1 98 434 435
741 2 2 1 1 26 305 444
742 2 2 1 1 206 145 393
743 2 2 1 1 349 101 375
744 2 2 1 1 306 27 412
745 2 2 1 1 238 20 416
746 2 2 1 1 114 213 355
747 2 2 1 1 261 354 440
748 2 2 1 1 194 384 387
749 2 2 1 1 360 112 402
750 2 2 1 1 136 203 405
751 2 2 1 1 269 196 395
752 2 2 1 1 203 137 405
753 2 2 1 1 168 369 443
754 2 2 1 1 357 132 390
755 2 2 1 1 290 193 336
756 2 2 1 1 234 125 451
757 2 2 1 1 198 133 396
758 2 2 1 1 332 25 444
759 2 2 1 1 15 197 446
760 2 2 1 1 196 270 395
761 2 2 1 1 279 365 426
762 2 2 1 1 434 174 435
763 2 2 1 1 258 158 327
764 2 2 1 1 280 381 401
765 2 2 1 1 273 198 396
766 2 2 1 1 112 360 419
767 2 2 1 1 193 290 346
768 2 2 1 1 386 142 417
769 2 2 1 1 365 123 426
770 2 2 1 1 336 182 383
771 2 2 1 1 170 367 427
772 2 2 1 1 428 115 441
773 2 2 1 1 215 55 356
774 2 2 1 1 168 314 403
775 2 2 1 1 361 101 376
776 2 2 1 1 264 206 393
777 2 2 1 1 166 261 440
778 2 2 1 1 222 295 452
779 2 2 1 1 181 383 433
780 2 2 1 1 159 427 428
781 2 2 1 1 408 224 456
782 2 2 1 1 203 136 415
783 2 2 1 1 420 143 439
784 2 2 1 1 294 222 452
785 2 2 1 1 165 386 417
786 2 2 1 1 135 90 438
787 2 2 1 1 369 80 443
788 2 2 1 1 370 116 378
789 2 2 1 1 427 115 428
790 2 2 1 1 383 182 433
791 2 2 1 1 101 349 376
792 2 2 1 1 182 445 457
793 2 2 1 1 137 203 437
794 2 2 1 1 131 375 455
795 2 2 1 1 367 115 427
796 2 2 1 1 381 169 401
797 2 2 1 1 433 182 457
798 2 2 1 1 428 180 448
799 2 2 1 1 448 180 449
800 2 2 1 1 58 216 363
801 2 2 1 1 410 122 438
802 2 2 1 1 182 378 445
803 2 2 1 1 95 302 358
804 2 2 1 1 265 160 217
805 2 2 1 1 165 354 386
806 2 2 1 1 180 428 441
807 2 2 1 1 109 279 426
808 2 2 1 1 106 453 454
809 2 2 1 1 360 201 380
810 2 2 1 1 99 337 408
811 2 2 1 1 163 267 219
812 2 2 1 1 170 310 411
813 2 2 1 1 205 338 410
814 2 2 1 1 159 428 448
815 2 2 1 1 95 448 449
816 2 2 1 1 90 410 438
817 2 2 1 1 125 300 451
818 2 2 1 1 378 116 445
819 2 2 1 1 160 264 217
820 2 2 1 1 388 205 410
821 2 2 1 1 385 100 439
822 2 2 1 1 183 311 353
823 2 2 1 1 91 433 457
824 2 2 1 1 268 163 219
825 2 2 1 1 91 457 81
826 2 2 1 1 445 233 457
827 2 2 1 1 375 214 455
828 2 2 1 1 122 362 438
829 2 2 1 1 216 188 363
830 2 2 1 1 99 408 456
831 2 2 1 1 358 159 448
832 2 2 1 1 287 183 353
833 2 2 1 1 362 135 438
834 2 2 1 1 184 215 356
835 2 2 1 1 453 190 454
836 2 2 1 1 95 358 448
837 2 2 1 1 311 184 356
838 2 2 1 1 100 420 439
839 2 2 1 1 457 233 81
840 2 2 1 1 208 7 363
841 2 2 1 1 18 180 441
842 2 2 1 1 145 144 240
843 2 2 1 2 49 6 501
844 2 2 1 2 7 59 545
845 2 2 1 2 67 8 502
846 2 2 1 2 6 50 501
847 2 2 1 2 8 68 502
848 2 2 1 2 58 7 545
849 2 2 1 2 5 41 543
850 2 2 1 2 76 5 543
851 2 2 1 2 477 568 540
852 2 2 1 2 568 564 540
853 2 2 1 2 481 548 511
854 2 2 1 2 474 552 491
855 2 2 1 2 45 46 516
856 2 2 1 2 63 64 485
857 2 2 1 2 54 55 503
858 2 2 1 2 72 73 522
859 2 2 1 2 516 46 478
860 2 2 1 2 522 73 551
861 2 2 1 2 503 55 528
862 2 2 1 2 485 64 547
863 2 2 1 2 548 481 472
864 2 2 1 2 504 568 524
865 2 2 1 2 568 488 524
866 2 2 1 2 560 474 531
867 2 2 1 2 560 531 555
868 2 2 1 2 518 548 565
869 2 2 1 2 527 480 512
870 2 2 1 2 552 504 491
871 2 2 1 2 548 518 497
872 2 2 1 2 460 516 478
873 2 2 1 2 515 522 551
874 2 2 1 2 468 485 547
875 2 2 1 2 521 503 528
876 2 2 1 2 60 61 484
877 2 2 1 2 51 52 542
878 2 2 1 2 42 43 550
879 2 2 1 2 69 70 476
880 2 2 1 2 47 48 553
881 2 2 1 2 56 57 514
882 2 2 1 2 74 75 530
883 2 2 1 2 65 66 482
884 2 2 1 2 474 541 552
885 2 2 1 2 469 511 566
886 2 2 1 2 474 560 471
887 2 2 1 2 511 506 566
888 2 2 1 2 45 516 513
889 2 2 1 2 63 485 470
890 2 2 1 2 72 522 546
891 2 2 1 2 54 503 536
892 2 2 1 2 531 496 555
893 2 2 1 2 480 527 533
894 2 2 1 2 500 518 567
895 2 2 1 2 548 483 565
896 2 2 1 2 510 500 567
897 2 2 1 2 542 557 517
898 2 2 1 2 515 530 492
899 2 2 1 2 521 514 507
900 2 2 1 2 468 482 498
901 2 2 1 2 516 488 494
902 2 2 1 2 485 481 493
903 2 2 1 2 518 500 497
904 2 2 1 2 539 480 533
905 2 2 1 2 489 550 540
906 2 2 1 2 553 473 554
907 2 2 1 2 490 484 566
908 2 2 1 2 523 476 544
909 2 2 1 2 568 504 552
910 2 2 1 2 560 555 534
911 2 2 1 2 555 562 534
912 2 2 1 2 480 510 567
913 2 2 1 2 500 506 497
914 2 2 1 2 510 480 525
915 2 2 1 2 564 568 552
916 2 2 1 2 529 539 533
917 2 2 1 2 44 45 513
918 2 2 1 2 62 63 470
919 2 2 1 2 53 54 536
920 2 2 1 2 71 72 546
921 2 2 1 2 481 511 493
922 2 2 1 2 60 484 464
923 2 2 1 2 553 48 463
924 2 2 1 2 51 542 466
925 2 2 1 2 69 476 465
926 2 2 1 2 42 550 467
927 2 2 1 2 514 57 462
928 2 2 1 2 530 75 461
929 2 2 1 2 482 66 549
930 2 2 1 2 512 480 567
931 2 2 1 2 550 477 540
932 2 2 1 2 484 469 566
933 2 2 1 2 476 509 544
934 2 2 1 2 460 553 554
935 2 2 1 2 512 561 532
936 2 2 1 2 527 512 532
937 2 2 1 2 530 489 492
938 2 2 1 2 473 542 517
939 2 2 1 2 514 490 507
940 2 2 1 2 482 523 498
941 2 2 1 2 541 474 471
942 2 2 1 2 479 541 471
943 2 2 1 2 479 522 538
944 2 2 1 2 522 515 538
945 2 2 1 2 487 527 524
946 2 2 1 2 488 487 524
947 2 2 1 2 59 60 464
948 2 2 1 2 48 49 463
949 2 2 1 2 41 42 467
950 2 2 1 2 50 51 466
951 2 2 1 2 68 69 465
952 2 2 1 2 66 67 549
953 2 2 1 2 57 58 462
954 2 2 1 2 75 76 461
955 2 2 1 2 470 485 493
956 2 2 1 2 513 516 494
957 2 2 1 2 545 59 464
958 2 2 1 2 49 501 463
959 2 2 1 2 501 50 466
960 2 2 1 2 67 502 549
961 2 2 1 2 502 68 465
962 2 2 1 2 543 41 467
963 2 2 1 2 58 545 462
964 2 2 1 2 76 543 461
965 2 2 1 2 496 499 555
966 2 2 1 2 499 562 555
967 2 2 1 2 492 489 540
968 2 2 1 2 473 517 554
969 2 2 1 2 507 490 566
970 2 2 1 2 498 523 544
971 2 2 1 2 516 460 520
972 2 2 1 2 488 516 520
973 2 2 1 2 499 496 472
974 2 2 1 2 481 485 558
975 2 2 1 2 485 468 558
976 2 2 1 2 503 521 559
977 2 2 1 2 550 43 508
978 2 2 1 2 477 550 508
979 2 2 1 2 553 460 478
980 2 2 1 2 482 468 547
981 2 2 1 2 469 484 563
982 2 2 1 2 530 515 551
983 2 2 1 2 74 530 551
984 2 2 1 2 514 521 528
985 2 2 1 2 56 514 528
986 2 2 1 2 65 482 547
987 2 2 1 2 484 61 563
988 2 2 1 2 542 52 519
989 2 2 1 2 509 476 556
990 2 2 1 2 47 553 478
991 2 2 1 2 476 70 556
992 2 2 1 2 557 542 519
993 2 2 1 2 522 479 486
994 2 2 1 2 481 499 472
995 2 2 1 2 496 483 472
996 2 2 1 2 483 548 472
997 2 2 1 2 527 487 533
998 2 2 1 2 487 529 533
999 2 2 1 2 541 564 552
1000 2 2 1 2 550 489 467
1001 2 2 1 2 542 473 466
1002 2 2 1 2 489 530 461
1003 2 2 1 2 484 490 464
1004 2 2 1 2 490 514 462
1005 2 2 1 2 473 553 463
1006 2 2 1 2 476 523 465
1007 2 2 1 2 523 482 549
1008 2 2 1 2 503 559 475
1009 2 2 1 2 564 541 537
1010 2 2 1 2 541 479 538
1011 2 2 1 2 568 477 494
1012 2 2 1 2 488 568 494
1013 2 2 1 2 511 548 497
1014 2 2 1 2 506 511 497
1015 2 2 1 2 559 510 475
1016 2 2 1 2 564 492 540
1017 2 2 1 2 562 498 544
1018 2 2 1 2 517 529 554
1019 2 2 1 2 506 507 566
1020 2 2 1 2 518 512 567
1021 2 2 1 2 529 487 535
1022 2 2 1 2 487 488 520
1023 2 2 1 2 499 481 558
1024 2 2 1 2 500 510 559
1025 2 2 1 2 562 499 495
1026 2 2 1 2 506 500 505
1027 2 2 1 2 504 524 532
1028 2 2 1 2 524 527 532
1029 2 2 1 2 525 480 539
1030 2 2 1 2 515 492 537
1031 2 2 1 2 521 507 505
1032 2 2 1 2 468 498 495
1033 2 2 1 2 517 557 539
1034 2 2 1 2 531 561 483
1035 2 2 1 2 496 531 483
1036 2 2 1 2 511 469 493
1037 2 2 1 2 509 546 486
1038 2 2 1 2 499 558 495
1039 2 2 1 2 500 559 505
1040 2 2 1 2 557 536 475
1041 2 2 1 2 473 501 466
1042 2 2 1 2 501 473 463
1043 2 2 1 2 489 543 467
1044 2 2 1 2 490 545 464
1045 2 2 1 2 545 490 462
1046 2 2 1 2 543 489 461
1047 2 2 1 2 523 502 465
1048 2 2 1 2 502 523 549
1049 2 2 1 2 558 468 495
1050 2 2 1 2 559 521 505
1051 2 2 1 2 560 526 471
1052 2 2 1 2 526 479 471
1053 2 2 1 2 62 470 563
1054 2 2 1 2 470 469 563
1055 2 2 1 2 513 477 508
1056 2 2 1 2 44 513 508
1057 2 2 1 2 53 536 519
1058 2 2 1 2 546 509 556
1059 2 2 1 2 71 546 556
1060 2 2 1 2 536 557 519
1061 2 2 1 2 46 47 478
1062 2 2 1 2 43 44 508
1063 2 2 1 2 61 62 563
1064 2 2 1 2 52 53 519
1065 2 2 1 2 70 71 556
1066 2 2 1 2 64 65 547
1067 2 2 1 2 55 56 528
1068 2 2 1 2 73 74 551
1069 2 2 1 2 561 531 491
1070 2 2 1 2 531 474 491
1071 2 2 1 2 526 560 534
1072 2 2 1 2 561 512 565
1073 2 2 1 2 536 503 475
1074 2 2 1 2 546 522 486
1075 2 2 1 2 526 509 486
1076 2 2 1 2 544 509 534
1077 2 2 1 2 525 557 475
1078 2 2 1 2 512 518 565
1079 2 2 1 2 492 564 537
1080 2 2 1 2 469 470 493
1081 2 2 1 2 477 513 494
1082 2 2 1 2 504 532 491
1083 2 2 1 2 554 529 535
1084 2 2 1 2 498 562 495
1085 2 2 1 2 507 506 505
1086 2 2 1 2 529 517 539
1087 2 2 1 2 460 554 535
1088 2 2 1 2 562 544 534
1089 2 2 1 2 483 561 565
1090 2 2 1 2 532 561 491
1091 2 2 1 2 509 526 534
1092 2 2 1 2 537 541 538
1093 2 2 1 2 515 537 538
1094 2 2 1 2 520 460 535
1095 2 2 1 2 487 520 535
1096 2 2 1 2 557 525 539
1097 2 2 1 2 510 525 475
1098 2 2 1 2 479 526 486
$EndElements
