$MeshFormat
2.2 0 8
$EndMeshFormat
$PhysicalNames
1
2 1 "Domain"
$EndPhysicalNames
$Nodes
45
1 0 0 0
2 1 0 0
3 1 1 0
4 0 1 0
5 0.1999999999995579 0 0
6 0.3999999999989749 0 0
7 0.5999999999989468 0 0
8 0.7999999999994734 0 0
9 1 0.1999999999995579 0
10 1 0.3999999999989749 0
11 1 0.5999999999989468 0
12 1 0.7999999999994734 0
13 0.7999999999999998 1 0
14 0.6000000000013869 1 0
15 0.4000000000016644 1 0
16 0.2000000000008322 1 0
17 0 0.7999999999999998 0
18 0 0.6000000000013869 0
19 0 0.4000000000016644 0
20 0 0.2000000000008322 0
21 0.5000000000005391 0.4999999999993535 0
22 0.2875000000005389 0.7124999999990972 0
23 0.712499999999991 0.7125000000002213 0
24 0.2875000000004351 0.2874999999998776 0
25 0.7125000000008828 0.2874999999995412 0
26 0.7960644531253199 0.5103260869558732 0
27 0.4896739130443077 0.7960644531246821 0
28 0.5103260869564924 0.203935546874719 0
29 0.2039355468753569 0.4896739130436886 0
30 0.1670833333338283 0.8329166666663088 0
31 0.8329166666668012 0.8329166666667145 0
32 0.1670833333333117 0.1670833333335215 0
33 0.8329166666670216 0.1670833333328192 0
34 0.3683433487455499 0.5696556884915152 0
35 0.5755291683048999 0.6167953758394902 0
36 0.4310340283172319 0.368547692260984 0
37 0.6169529574989716 0.4245763388946617 0
38 0.312062791150015 0.8674995349698983 0
39 0.1325004650298941 0.3120627911496797 0
40 0.8674995349703519 0.6879372088505882 0
41 0.1317037760419448 0.6870181159420963 0
42 0.6879372088509236 0.1325004650294404 0
43 0.6870181159424972 0.8682962239583237 0
44 0.3129818840577545 0.1317037760416236 0
45 0.8682962239586449 0.3129818840573533 0
$EndNodes
$Elements
68
1 2 2 1 1 27 22 34
2 2 2 1 1 27 34 35
3 2 2 1 1 26 23 35
4 2 2 1 1 26 35 37
5 2 2 1 1 34 29 36
6 2 2 1 1 29 24 36
7 2 2 1 1 36 28 37
8 2 2 1 1 28 25 37
9 2 2 1 1 18 19 29
10 2 2 1 1 14 15 27
11 2 2 1 1 6 7 28
12 2 2 1 1 10 11 26
13 2 2 1 1 4 17 30
14 2 2 1 1 3 13 31
15 2 2 1 1 16 4 30
16 2 2 1 1 1 5 32
17 2 2 1 1 20 1 32
18 2 2 1 1 12 3 31
19 2 2 1 1 2 9 33
20 2 2 1 1 8 2 33
21 2 2 1 1 18 29 41
22 2 2 1 1 14 27 43
23 2 2 1 1 6 28 44
24 2 2 1 1 10 26 45
25 2 2 1 1 26 25 45
26 2 2 1 1 27 23 43
27 2 2 1 1 23 26 40
28 2 2 1 1 28 24 44
29 2 2 1 1 29 22 41
30 2 2 1 1 26 11 40
31 2 2 1 1 25 28 42
32 2 2 1 1 28 7 42
33 2 2 1 1 27 15 38
34 2 2 1 1 22 27 38
35 2 2 1 1 29 19 39
36 2 2 1 1 24 29 39
37 2 2 1 1 35 21 37
38 2 2 1 1 21 36 37
39 2 2 1 1 25 26 37
40 2 2 1 1 23 27 35
41 2 2 1 1 24 28 36
42 2 2 1 1 22 29 34
43 2 2 1 1 34 21 35
44 2 2 1 1 21 34 36
45 2 2 1 1 15 16 38
46 2 2 1 1 17 18 41
47 2 2 1 1 19 20 39
48 2 2 1 1 13 14 43
49 2 2 1 1 11 12 40
50 2 2 1 1 5 6 44
51 2 2 1 1 7 8 42
52 2 2 1 1 9 10 45
53 2 2 1 1 30 17 41
54 2 2 1 1 31 13 43
55 2 2 1 1 16 30 38
56 2 2 1 1 32 5 44
57 2 2 1 1 20 32 39
58 2 2 1 1 12 31 40
59 2 2 1 1 33 9 45
60 2 2 1 1 8 33 42
61 2 2 1 1 30 22 38
62 2 2 1 1 31 23 40
63 2 2 1 1 32 24 39
64 2 2 1 1 22 30 41
65 2 2 1 1 23 31 43
66 2 2 1 1 33 25 42
67 2 2 1 1 24 32 44
68 2 2 1 1 25 33 45
$EndElements
