$MeshFormat
2.2 0 8
$EndMeshFormat
$PhysicalNames
4
1 1 "Gamma"
1 2 "axis"
2 1 "vacuum"
2 20 "limiter"
$EndPhysicalNames
$Nodes
354
1 0 -1.5 0
2 1.5 0 0
3 0 1.5 0
4 1.35 0 0
5 0.1176886435917678 -1.495376000599692 0
6 0.234651697560346 -1.481532510892707 0
7 0.3501680457838585 -1.458554880596515 0
8 0.4635254915624221 -1.42658477444273 0
9 0.5740251485476362 -1.38581929876693 0
10 0.6809857496093211 -1.336509786282551 0
11 0.7837478470739248 -1.278960246531137 0
12 0.8816778784387105 -1.213525491562421 0
13 0.9741720724952768 -1.140608948400045 0
14 1.060660171779822 -1.060660171779821 0
15 1.140608948400048 -0.9741720724952742 0
16 1.213525491562422 -0.8816778784387089 0
17 1.278960246531138 -0.783747847073923 0
18 1.336509786282552 -0.6809857496093192 0
19 1.38581929876693 -0.5740251485476343 0
20 1.426584774442731 -0.4635254915624202 0
21 1.458554880596515 -0.3501680457838578 0
22 1.481532510892706 -0.2346516975603467 0
23 1.495376000599692 -0.1176886435917671 0
24 0 -1.38 0
25 0 -1.26 0
26 0 -1.14 0
27 0 -1.02 0
28 0 -0.9 0
29 0 -0.78 0
30 0 -0.66 0
31 0 -0.54 0
32 0 -0.4199999999999999 0
33 0 -0.3 0
34 0 -0.1799999999999999 0
35 0 -0.06000000000000005 0
36 0 0.06000000000000005 0
37 0 0.1799999999999999 0
38 0 0.3 0
39 0 0.4199999999999999 0
40 0 0.54 0
41 0 0.6600000000000001 0
42 0 0.7799999999999998 0
43 0 0.8999999999999999 0
44 0 1.02 0
45 0 1.14 0
46 0 1.26 0
47 0 1.38 0
48 1.495376000599692 0.1176886435917673 0
49 1.481532510892707 0.2346516975603462 0
50 1.458554880596515 0.350168045783858 0
51 1.42658477444273 0.463525491562421 0
52 1.38581929876693 0.5740251485476344 0
53 1.336509786282552 0.6809857496093199 0
54 1.278960246531138 0.7837478470739232 0
55 1.213525491562421 0.8816778784387094 0
56 1.140608948400047 0.9741720724952752 0
57 1.060660171779822 1.060660171779821 0
58 0.9741720724952763 1.140608948400046 0
59 0.8816778784387107 1.21352549156242 0
60 0.7837478470739242 1.278960246531138 0
61 0.6809857496093217 1.336509786282551 0
62 0.5740251485476366 1.385819298766929 0
63 0.4635254915624234 1.42658477444273 0
64 0.3501680457838601 1.458554880596514 0
65 0.2346516975603474 1.481532510892706 0
66 0.1176886435917682 1.495376000599692 0
67 1.331036034595222 0.1136448142216393 0
68 1.276199178288738 0.2149744494413838 0
69 1.191431855342849 0.2930082673918851 0
70 1.08591992049928 0.3392900930787657 0
71 0.9710972290846834 0.3488045725523344 0
72 0.8594066013714603 0.3205206643292699 0
73 0.7629514499309904 0.2575033687355958 0
74 0.6921841870777287 0.1665815875629754 0
75 0.6547735438090472 0.05760810659825645 0
76 0.6547735438090472 -0.05760810659825728 0
77 0.692184187077729 -0.166581587562976 0
78 0.7629514499309907 -0.2575033687355961 0
79 0.8594066013714605 -0.32052066432927 0
80 0.9710972290846832 -0.3488045725523344 0
81 1.085919920499279 -0.3392900930787659 0
82 1.191431855342848 -0.2930082673918857 0
83 1.276199178288737 -0.2149744494413853 0
84 1.331036034595222 -0.1136448142216399 0
85 1.099481529463186 -0.2275023351299186 0
86 0.8657536045131402 0.2054794050591108 0
87 1.215863568185471 0.1168195212064192 0
88 0.8063083907571785 -0.1507562307620707 0
89 1.21586356818547 -0.11681952120642 0
90 0.943374402498558 -0.2242093905781029 0
91 1.020268793864085 0.2446079651196086 0
92 0.7676712473944449 0.07165761629730355 0
93 1.271522384654514 -0.04530907234507633 0
94 1.177029320648699 -0.006099468409419971 0
95 1.105751976462975 -0.1234248796373886 0
96 1.052438925203797 -0.01235843185664488 0
97 0.9894820994494478 -0.109639038751029 0
98 0.9373027643050427 -0.007087252685773922 0
99 0.9981146589883242 0.08213052721278227 0
100 0.8775202461479683 0.1000825508512473 0
101 1.104391245564768 0.08942036558864871 0
102 1.133737838129035 0.2018823825171386 0
103 0.8429719798352984 0.002256737571022808 0
104 0.8826005963071371 -0.10431176968978 0
105 0.7571221137038393 -0.05695592105448389 0
106 1.182004045951397 -0.1987614828735088 0
107 0.9324235403025228 0.2668534045126659 0
108 0.9574134199206685 0.1766892866083269 0
109 1.023111733093013 -0.2721025633245583 0
110 1.269090261616781 0.03581115893471244 0
111 0.7880986503673405 0.1645797327601637 0
112 0.8505024516905644 -0.2168866349850004 0
113 1.05039967570797 0.1609818668945468 0
114 1.026773223263937 -0.1901950913863622 0
115 0.7870388491310009 -1.174107800066205 0
116 0.7800092461067264 1.159022424948609 0
117 0.7397152550023334 -0.3648814789734041 0
118 0.7511600948288466 0.3711268687059421 0
119 0.09772047376887917 0.7029477516157613 0
120 0.1038195889228134 -0.7163988911112158 0
121 1.018257592048067 -0.9522801549828253 0
122 1.025733668984487 0.9481784505829458 0
123 0.4834713825224305 1.310506526546168 0
124 0.4707085251511125 -1.324888209230491 0
125 0.09548418856631172 -0.3580450565738086 0
126 0.11639901628938 0.3793365868920237 0
127 0.5569477338988043 -0.003714141728972485 0
128 0.09596235963772767 0.9645500138252239 0
129 0.1039230484541326 -0.9599999999999999 0
130 0.1018851293035489 0.1209793529079868 0
131 0.1044821631203864 -0.1353264687984723 0
132 1.04138891820312 -0.4392665991423654 0
133 1.015564420276841 0.4465573931322978 0
134 0.1039230484541323 1.2 0
135 0.1039230484541325 -1.2 0
136 1.171637688526997 -0.7646632579623645 0
137 1.16232183995274 0.7739329658424381 0
138 1.277804428850168 -0.5828810044995384 0
139 1.275266830765844 0.5790100520997504 0
140 0.2696753969157628 1.368566829926106 0
141 0.2736442592452297 -1.371653411652609 0
142 0.8856883559730946 0.436625379410325 0
143 0.7785760126895948 0.4964003905829866 0
144 0.6684849376639402 0.4586498147287528 0
145 0.6940186862548486 0.5698195296809987 0
146 0.583488417436801 0.5322448838622074 0
147 0.6066065386110495 0.6461121013745099 0
148 0.5590674458375741 0.4220868995502378 0
149 0.4729701855547167 0.494835593928047 0
150 0.4499951442782644 0.3798997502851192 0
151 0.7993319916696807 0.6083355239658231 0
152 0.3621360897946859 0.4564508695638287 0
153 0.3851676053841191 0.5716131592140661 0
154 0.3397437565255471 0.3406868143096894 0
155 0.427840990099285 0.2637218564474644 0
156 0.2734643243479455 0.5337072954251797 0
157 0.3173259045772161 0.2252310631223449 0
158 0.2977491658014642 0.6493078382473197 0
159 0.408499233381876 0.6874856525480126 0
160 0.3210938496207091 0.765252035130521 0
161 0.4320058490863731 0.8036899595854101 0
162 0.3430583783395464 0.8816028644339047 0
163 0.4550653225517702 0.91969141782742 0
164 0.3659829262285202 0.9977828408806957 0
165 0.4782124459712875 1.035697159676475 0
166 0.5670952776218602 0.9576070206354715 0
167 0.3885230497257753 1.113216759593419 0
168 0.6550284526444599 -0.2882541629133095 0
169 0.6348317972664598 -0.3966784117921635 0
170 0.7111844043256097 -0.4819189188207608 0
171 0.6051521703444108 -0.5098641218818249 0
172 0.6802417605048571 -0.5943253962903927 0
173 0.5670767912573216 -0.6203059051138686 0
174 0.6457110527284905 -0.7063291325797058 0
175 0.5314095412121546 -0.7320445073595563 0
176 0.5505064135974883 -0.3407150008101383 0
177 0.4824800846480889 -0.5296462396828953 0
178 0.756929546857528 -0.6795177808197348 0
179 0.6107342347735704 -0.8185239917002299 0
180 0.4957342670198502 -0.8442006269891361 0
181 0.5754624375705898 -0.9309037370361375 0
182 0.4602694690753574 -0.9567572424477797 0
183 0.6905016640997229 -0.9050592299047759 0
184 0.4211389839285262 -0.7614837431507011 0
185 0.540260544547726 -1.043638846023728 0
186 0.4248487245928474 -1.069543366903903 0
187 0.3446581668265291 -0.9824117191063371 0
188 0.3108480281758147 -1.096094643115014 0
189 0.9276663024397296 -0.4434933329433289 0
190 0.9922299743594034 -0.5441203973332288 0
191 0.4002673622381172 0.143776735368238 0
192 0.5618463336847546 -0.113278746651524 0
193 0.4563225126409886 -0.05887435660117934 0
194 0.2812441342721598 1.075044575437374 0
195 0.291237608126144 0.1069685766627674 0
196 0.5885796723003648 1.071520604533248 0
197 0.676938007266297 0.9930263007752429 0
198 0.6555107293627044 0.8793279158151428 0
199 0.7670571055949247 0.9169255359274908 0
200 0.740702302146508 0.800990492801108 0
201 0.8486876972615494 0.8281918289470137 0
202 0.4539602596633713 -0.1720491135827122 0
203 0.3531659569622556 -0.1154261700086032 0
204 0.3505983784121318 -0.232622557449412 0
205 1.16744461288826 -0.424508871375563 0
206 1.187798514865495 0.4099673859140287 0
207 0.9554734423167406 0.537355638510969 0
208 1.079649602176465 0.5575252874606913 0
209 1.001366322316799 0.6487799137900412 0
210 0.4991106548255877 0.1757549948447135 0
211 0.2998774023664192 1.186692052366698 0
212 1.279943327755464 -0.3526156319102606 0
213 1.278904829263347 0.3418786403930528 0
214 0.2305397892077638 0.8436239641918274 0
215 1.1027485606369 -0.5352703607531546 0
216 1.048727655795915 -0.6399630909623657 0
217 0.9446610406079823 -0.6474314000939805 0
218 0.9984656660732552 -0.7450724586154346 0
219 0.660451399966003 0.2754800992707349 0
220 0.8918020123546831 -0.7545850666513791 0
221 0.3880321120555845 -1.174961495179501 0
222 0.2920455935469002 -1.19495140783143 0
223 0.2320939613051049 -0.1606393284009758 0
224 0.2513156043448643 -0.05624883541423722 0
225 0.2541235965689865 -0.2896503107895246 0
226 0.352117622795646 -0.3512928547989456 0
227 0.2581740941715574 -0.4097403669178675 0
228 0.1309231390750715 -1.36416440619713 0
229 0.1309231390750717 1.364164406197129 0
230 0.8959772276433802 0.9502540047255591 0
231 0.3600269019252471 -0.4702086096007017 0
232 0.2520915193297232 -0.5283493938289154 0
233 0.35388066980515 -0.5872465537823421 0
234 0.251473539391971 -0.6466889071300304 0
235 0.1500368704128014 -0.5890690832434223 0
236 0.222252143719101 -0.7746754653254422 0
237 0.1880730206199469 0.6178423324910945 0
238 0.1630360605859923 0.5020355702124643 0
239 0.2226338214573192 0.2983011668829308 0
240 0.2148807495444789 -1.005369926817862 0
241 0.4562613487311593 -0.4026614826317889 0
242 0.2762187981275198 -0.8869422911151196 0
243 0.2006881550459344 1.263477823353004 0
244 0.6313095902652569 0.7633817009873018 0
245 0.1562691873567591 -0.2557819367625108 0
246 1.114917771920052 0.6726740894698306 0
247 1.04519390784157 0.7566116920510011 0
248 0.9275786935921645 0.7382183536176286 0
249 0.09470655706407015 -0.002445614209464369 0
250 0.1080531847055963 0.2442219196421768 0
251 0.116903749156946 0.8330801557868684 0
252 0.1004865296774971 -0.8384810709784671 0
253 0.1043952123029622 -1.075019937750615 0
254 0.09825318396837283 1.084883417765106 0
255 0.5060170181864088 1.175867365379 0
256 0.6142129587956509 1.17139267997613 0
257 0.5440567401962221 0.8417911824795381 0
258 0.6544237010817351 -1.013283832598263 0
259 0.7690850753598538 -0.9858713824318379 0
260 0.6176003254108143 -1.126786355351705 0
261 0.8169942771054903 -0.8591601578555027 0
262 0.8919296370270517 -0.9621954084444369 0
263 0.5028220191898624 -1.147831572706511 0
264 0.5711202760416728 -1.25380539697005 0
265 0.7256706583830311 -0.7928382683369787 0
266 0.7846640796841182 1.030305589681212 0
267 0.519822064952589 0.7250916294093341 0
268 0.9543966983818348 -0.855427931901742 0
269 0.790116118761098 -0.5684733866133251 0
270 0.2566840634489466 0.9591625486557885 0
271 0.3536954591421012 0.004693601785991107 0
272 0.386662105261813 -0.8702342330177478 0
273 0.2511744471023514 0.4181228496475178 0
274 0.1679320687595737 -0.4527057260960495 0
275 0.4960923408868585 0.6095638367226961 0
276 0.7147660418033087 0.6851422685113332 0
277 0.5490893946579475 0.2967888941393599 0
278 0.2065822256566188 0.178993788094347 0
279 0.4522320391555197 -0.648502102767706 0
280 1.37851987668814 -0.2866887548396019 0
281 1.37834679360612 0.284899256253401 0
282 0.8528308531430659 -1.079428023517916 0
283 1.160851051839121 -0.6385769376255411 0
284 1.274051704553644 -0.4621794735580719 0
285 1.273710997423197 0.4572744831643415 0
286 1.078682101482884 -0.8428236624872025 0
287 0.3957374896058494 1.237451553036644 0
288 0.3533914578336911 -1.284834900808467 0
289 1.226300982801757 0.6867615482571896 0
290 0.2086800080292848 0.7353423462438987 0
291 1.092154446441765 0.8620501656287911 0
292 0.4585025046058532 0.05186117466614843 0
293 0.9705510017080112 0.844529945002696 0
294 0.381511992884021 1.35273948854568 0
295 0.8863397711728919 1.079804402036723 0
296 0.197705152007958 0.04472514060551669 0
297 1.181372777780424 0.520470470116087 0
298 0.2036444273650291 -1.124749699685829 0
299 0.8201699715865313 0.7183702033709964 0
300 0.6950025269470473 -1.208027471774854 0
301 0.1955543438256324 1.140502052517144 0
302 0.8170405052818008 -0.4581746113058984 0
303 0.4474894996246518 -0.2890071316646786 0
304 0.5601691910487424 -0.2283142905308898 0
305 0.2057657475686447 -1.269057156317168 0
306 0.6917882728006414 1.09930240749613 0
307 0.9595147658452956 -1.037997225743938 0
308 0.555170581022814 0.0950951832682162 0
309 0.5901318434986554 1.272554916510675 0
310 0.08544937737979748 0.5884316255142048 0
311 0.8946004977501345 0.6315586197942968 0
312 0.3402799883670078 -0.6945057509251735 0
313 0.8885985160627543 -0.547289788210867 0
314 0.3293104038807935 -0.7975682967068368 0
315 1.401310988804006 -0.1803335379835468 0
316 1.401310988804004 0.1803335379835486 0
317 1.245152640405995 -0.6901709593541373 0
318 0.6999902195269557 1.223753533327996 0
319 0.1858217309959185 1.025895585214873 0
320 1.41534563818756 0.05708734591377637 0
321 1.415511443697747 -0.05909660831386297 0
322 0.7294242100431195 -1.088159649618899 0
323 0.6406416596241403 0.3666128766163144 0
324 0.3094980873635974 1.281785549445627 0
325 1.196580071753619 -0.5286833295623737 0
326 0.8456884133159523 -0.6549755827120853 0
327 1.364806929109707 -0.3979765113818041 0
328 1.364622132835352 0.3959013351321453 0
329 0.862734060079849 0.54205511045288 0
330 0.5485539356783719 -0.4342817261994279 0
331 0.3822875559152628 -1.373303235346162 0
332 0.6017966268931878 0.177884810947376 0
333 0.07024675238344941 0.48 0
334 0.1805157233515144 -0.8950132704435972 0
335 0.9731130262713358 1.030421578282863 0
336 1.089210728676686 -0.7249989613106973 0
337 0.08510044968851152 1.287398302607461 0
338 0.08510044968851085 -1.287398302607461 0
339 1.177162262518272 0.6061522026704484 0
340 0.1787881219806145 0.9143856367706609 0
341 0.8022659881684556 -0.7546395863950125 0
342 1.110061047119701 0.4547621259403741 0
343 0.07935947228847648 -0.4933033109855468 0
344 0.06270370599217222 -0.6000000000000001 0
345 0.06467889451082279 -0.2415177770790708 0
346 0.1654797414547035 -0.06005772333232182 0
347 0.1877029823111387 -0.3521295495917064 0
348 0.4598989234878244 -1.230981127456821 0
349 1.350135543385652 -0.4980912986932269 0
350 1.350135543385653 0.4980912986932269 0
351 0.2734884559052669 0.02503462091000948 0
352 0.07179854740795372 -1.424474114975844 0
353 0.07179854740795413 1.424474114975844 0
354 0.1849290229779112 -0.6952725237041704 0
$EndNodes
$Elements
706
1 1 2 1 1 1 5
2 1 2 1 1 5 6
3 1 2 1 1 6 7
4 1 2 1 1 7 8
5 1 2 1 1 8 9
6 1 2 1 1 9 10
7 1 2 1 1 10 11
8 1 2 1 1 11 12
9 1 2 1 1 12 13
10 1 2 1 1 13 14
11 1 2 1 1 14 15
12 1 2 1 1 15 16
13 1 2 1 1 16 17
14 1 2 1 1 17 18
15 1 2 1 1 18 19
16 1 2 1 1 19 20
17 1 2 1 1 20 21
18 1 2 1 1 21 22
19 1 2 1 1 22 23
20 1 2 1 1 23 2
21 1 2 2 2 1 24
22 1 2 2 2 24 25
23 1 2 2 2 25 26
24 1 2 2 2 26 27
25 1 2 2 2 27 28
26 1 2 2 2 28 29
27 1 2 2 2 29 30
28 1 2 2 2 30 31
29 1 2 2 2 31 32
30 1 2 2 2 32 33
31 1 2 2 2 33 34
32 1 2 2 2 34 35
33 1 2 2 2 35 36
34 1 2 2 2 36 37
35 1 2 2 2 37 38
36 1 2 2 2 38 39
37 1 2 2 2 39 40
38 1 2 2 2 40 41
39 1 2 2 2 41 42
40 1 2 2 2 42 43
41 1 2 2 2 43 44
42 1 2 2 2 44 45
43 1 2 2 2 45 46
44 1 2 2 2 46 47
45 1 2 2 2 47 3
46 1 2 1 3 2 48
47 1 2 1 3 48 49
48 1 2 1 3 49 50
49 1 2 1 3 50 51
50 1 2 1 3 51 52
51 1 2 1 3 52 53
52 1 2 1 3 53 54
53 1 2 1 3 54 55
54 1 2 1 3 55 56
55 1 2 1 3 56 57
56 1 2 1 3 57 58
57 1 2 1 3 58 59
58 1 2 1 3 59 60
59 1 2 1 3 60 61
60 1 2 1 3 61 62
61 1 2 1 3 62 63
62 1 2 1 3 63 64
63 1 2 1 3 64 65
64 1 2 1 3 65 66
65 1 2 1 3 66 3
66 2 2 20 2 75 105 92
67 2 2 20 2 76 105 75
68 2 2 20 2 91 102 70
69 2 2 20 2 97 104 90
70 2 2 20 2 104 112 90
71 2 2 20 2 70 102 69
72 2 2 20 2 87 101 94
73 2 2 20 2 69 102 68
74 2 2 20 2 68 102 87
75 2 2 20 2 94 110 87
76 2 2 20 2 92 105 103
77 2 2 20 2 103 105 104
78 2 2 20 2 88 112 104
79 2 2 20 2 90 114 97
80 2 2 20 2 104 105 88
81 2 2 20 2 84 89 83
82 2 2 20 2 71 91 70
83 2 2 20 2 75 92 74
84 2 2 20 2 78 88 77
85 2 2 20 2 82 85 81
86 2 2 20 2 68 87 67
87 2 2 20 2 73 86 72
88 2 2 20 2 80 90 79
89 2 2 20 2 96 99 98
90 2 2 20 2 96 98 97
91 2 2 20 2 88 105 77
92 2 2 20 2 77 105 76
93 2 2 20 2 96 97 95
94 2 2 20 2 94 101 96
95 2 2 20 2 99 100 98
96 2 2 20 2 100 111 92
97 2 2 20 2 87 102 101
98 2 2 20 2 94 96 95
99 2 2 20 2 96 101 99
100 2 2 20 2 86 111 100
101 2 2 20 2 93 110 94
102 2 2 20 2 94 95 89
103 2 2 20 2 95 106 89
104 2 2 20 2 85 106 95
105 2 2 20 2 92 103 100
106 2 2 20 2 100 108 86
107 2 2 20 2 99 108 100
108 2 2 20 2 91 113 102
109 2 2 20 2 97 114 95
110 2 2 20 2 103 104 98
111 2 2 20 2 98 104 97
112 2 2 20 2 100 103 98
113 2 2 20 2 95 114 85
114 2 2 20 2 93 94 89
115 2 2 20 2 102 113 101
116 2 2 20 2 4 93 84
117 2 2 20 2 72 107 71
118 2 2 20 2 89 106 83
119 2 2 20 2 84 93 89
120 2 2 20 2 79 112 78
121 2 2 20 2 74 111 73
122 2 2 20 2 67 110 4
123 2 2 20 2 73 111 86
124 2 2 20 2 92 111 74
125 2 2 20 2 81 109 80
126 2 2 20 2 86 107 72
127 2 2 20 2 83 106 82
128 2 2 20 2 71 107 91
129 2 2 20 2 78 112 88
130 2 2 20 2 85 109 81
131 2 2 20 2 80 109 90
132 2 2 20 2 90 112 79
133 2 2 20 2 82 106 85
134 2 2 20 2 87 110 67
135 2 2 20 2 101 113 99
136 2 2 20 2 107 108 91
137 2 2 20 2 86 108 107
138 2 2 20 2 108 113 91
139 2 2 20 2 99 113 108
140 2 2 20 2 4 110 93
141 2 2 20 2 109 114 90
142 2 2 20 2 85 114 109
143 2 2 1 3 255 309 123
144 2 2 1 3 116 295 59
145 2 2 1 3 135 305 298
146 2 2 1 3 298 305 222
147 2 2 1 3 16 286 15
148 2 2 1 3 126 273 238
149 2 2 1 3 132 215 205
150 2 2 1 3 230 293 122
151 2 2 1 3 65 229 140
152 2 2 1 3 141 228 6
153 2 2 1 3 261 268 220
154 2 2 1 3 239 273 126
155 2 2 1 3 66 229 65
156 2 2 1 3 6 228 5
157 2 2 1 3 251 290 214
158 2 2 1 3 231 233 177
159 2 2 1 3 123 287 255
160 2 2 1 3 79 302 189
161 2 2 1 3 192 304 77
162 2 2 1 3 195 271 191
163 2 2 1 3 119 290 251
164 2 2 1 3 266 295 116
165 2 2 1 3 131 245 223
166 2 2 1 3 223 346 131
167 2 2 1 3 271 292 191
168 2 2 1 3 262 268 261
169 2 2 1 3 142 143 118
170 2 2 1 3 13 282 12
171 2 2 1 3 168 169 117
172 2 2 1 3 133 207 142
173 2 2 1 3 300 322 260
174 2 2 1 3 256 309 255
175 2 2 1 3 136 286 16
176 2 2 1 3 115 322 300
177 2 2 1 3 212 280 83
178 2 2 1 3 68 281 213
179 2 2 1 3 177 241 231
180 2 2 1 3 215 325 205
181 2 2 1 3 10 264 9
182 2 2 1 3 15 286 121
183 2 2 1 3 79 189 80
184 2 2 1 3 76 192 77
185 2 2 1 3 129 253 240
186 2 2 1 3 72 142 118
187 2 2 1 3 118 219 73
188 2 2 1 3 82 212 83
189 2 2 1 3 68 213 69
190 2 2 1 3 78 168 117
191 2 2 1 3 133 142 71
192 2 2 1 3 59 295 58
193 2 2 1 3 132 205 81
194 2 2 1 3 126 250 239
195 2 2 1 3 121 268 262
196 2 2 1 3 236 312 234
197 2 2 1 3 291 293 247
198 2 2 1 3 191 292 210
199 2 2 1 3 9 264 124
200 2 2 1 3 118 323 219
201 2 2 1 3 292 308 210
202 2 2 1 3 201 293 230
203 2 2 1 3 122 293 291
204 2 2 1 3 117 302 79
205 2 2 1 3 236 314 312
206 2 2 1 3 77 304 168
207 2 2 1 3 229 243 140
208 2 2 1 3 120 252 236
209 2 2 1 3 74 332 75
210 2 2 1 3 233 279 177
211 2 2 1 3 122 335 230
212 2 2 1 3 288 305 141
213 2 2 1 3 12 282 115
214 2 2 1 3 75 332 308
215 2 2 1 3 222 305 288
216 2 2 1 3 220 341 261
217 2 2 1 3 238 333 126
218 2 2 1 3 253 298 240
219 2 2 1 3 303 304 202
220 2 2 1 3 283 336 136
221 2 2 1 3 136 317 283
222 2 2 1 3 250 278 239
223 2 2 1 3 13 307 282
224 2 2 1 3 262 307 121
225 2 2 1 3 137 291 247
226 2 2 1 3 320 321 2
227 2 2 1 3 224 346 223
228 2 2 1 3 252 334 236
229 2 2 1 3 309 318 61
230 2 2 1 3 141 305 228
231 2 2 1 3 231 241 226
232 2 2 1 3 169 170 117
233 2 2 1 3 143 144 118
234 2 2 1 3 4 321 320
235 2 2 1 3 133 208 207
236 2 2 1 3 168 176 169
237 2 2 1 3 237 290 119
238 2 2 1 3 137 247 246
239 2 2 1 3 235 344 120
240 2 2 1 3 176 304 303
241 2 2 1 3 241 303 226
242 2 2 1 3 119 310 237
243 2 2 1 3 120 354 235
244 2 2 1 3 130 296 278
245 2 2 1 3 201 299 248
246 2 2 1 3 244 267 147
247 2 2 1 3 159 275 267
248 2 2 1 3 236 334 242
249 2 2 1 3 10 300 264
250 2 2 1 3 176 303 241
251 2 2 1 3 245 345 125
252 2 2 1 3 244 276 200
253 2 2 1 3 116 306 266
254 2 2 1 3 343 344 235
255 2 2 1 3 274 343 235
256 2 2 1 3 267 275 147
257 2 2 1 3 83 315 84
258 2 2 1 3 67 316 68
259 2 2 1 3 130 278 250
260 2 2 1 3 208 209 207
261 2 2 1 3 143 145 144
262 2 2 1 3 123 294 287
263 2 2 1 3 169 171 170
264 2 2 1 3 125 347 245
265 2 2 1 3 284 327 212
266 2 2 1 3 213 328 285
267 2 2 1 3 36 249 130
268 2 2 1 3 38 250 126
269 2 2 1 3 191 210 155
270 2 2 1 3 119 251 42
271 2 2 1 3 147 276 244
272 2 2 1 3 129 252 28
273 2 2 1 3 278 296 195
274 2 2 1 3 257 267 244
275 2 2 1 3 179 265 174
276 2 2 1 3 135 253 26
277 2 2 1 3 45 254 134
278 2 2 1 3 131 249 35
279 2 2 1 3 130 250 37
280 2 2 1 3 174 265 178
281 2 2 1 3 161 257 163
282 2 2 1 3 34 131 35
283 2 2 1 3 36 130 37
284 2 2 1 3 198 200 199
285 2 2 1 3 32 125 33
286 2 2 1 3 38 126 39
287 2 2 1 3 29 252 120
288 2 2 1 3 159 267 161
289 2 2 1 3 43 251 128
290 2 2 1 3 200 201 199
291 2 2 1 3 41 119 42
292 2 2 1 3 29 120 30
293 2 2 1 3 53 139 52
294 2 2 1 3 19 138 18
295 2 2 1 3 27 253 129
296 2 2 1 3 128 254 44
297 2 2 1 3 198 199 197
298 2 2 1 3 166 198 197
299 2 2 1 3 35 249 36
300 2 2 1 3 163 166 165
301 2 2 1 3 43 128 44
302 2 2 1 3 27 129 28
303 2 2 1 3 183 265 179
304 2 2 1 3 37 250 38
305 2 2 1 3 17 136 16
306 2 2 1 3 55 137 54
307 2 2 1 3 198 257 244
308 2 2 1 3 259 261 183
309 2 2 1 3 157 191 155
310 2 2 1 3 198 244 200
311 2 2 1 3 45 134 46
312 2 2 1 3 25 135 26
313 2 2 1 3 42 251 43
314 2 2 1 3 258 259 183
315 2 2 1 3 154 155 150
316 2 2 1 3 15 121 14
317 2 2 1 3 57 122 56
318 2 2 1 3 143 151 145
319 2 2 1 3 166 197 196
320 2 2 1 3 28 252 29
321 2 2 1 3 166 196 165
322 2 2 1 3 221 263 186
323 2 2 1 3 259 262 261
324 2 2 1 3 166 257 198
325 2 2 1 3 44 254 45
326 2 2 1 3 26 253 27
327 2 2 1 3 196 256 255
328 2 2 1 3 165 255 167
329 2 2 1 3 280 315 83
330 2 2 1 3 68 316 281
331 2 2 1 3 163 257 166
332 2 2 1 3 181 258 183
333 2 2 1 3 161 267 257
334 2 2 1 3 261 265 183
335 2 2 1 3 256 318 309
336 2 2 1 3 163 165 164
337 2 2 1 3 153 159 158
338 2 2 1 3 185 258 181
339 2 2 1 3 181 183 179
340 2 2 1 3 210 277 155
341 2 2 1 3 153 275 159
342 2 2 1 3 263 264 260
343 2 2 1 3 165 167 164
344 2 2 1 3 159 161 160
345 2 2 1 3 185 260 258
346 2 2 1 3 201 230 199
347 2 2 1 3 174 178 172
348 2 2 1 3 196 255 165
349 2 2 1 3 232 233 231
350 2 2 1 3 188 221 186
351 2 2 1 3 240 334 129
352 2 2 1 3 208 246 209
353 2 2 1 3 227 231 226
354 2 2 1 3 161 163 162
355 2 2 1 3 225 226 204
356 2 2 1 3 188 222 221
357 2 2 1 3 237 310 238
358 2 2 1 3 171 172 170
359 2 2 1 3 167 211 194
360 2 2 1 3 187 272 242
361 2 2 1 3 182 185 181
362 2 2 1 3 172 269 170
363 2 2 1 3 186 263 185
364 2 2 1 3 247 248 209
365 2 2 1 3 199 266 197
366 2 2 1 3 146 148 144
367 2 2 1 3 60 116 59
368 2 2 1 3 12 115 11
369 2 2 1 3 159 160 158
370 2 2 1 3 185 263 260
371 2 2 1 3 187 242 240
372 2 2 1 3 154 157 155
373 2 2 1 3 145 146 144
374 2 2 1 3 157 195 191
375 2 2 1 3 182 186 185
376 2 2 1 3 163 164 162
377 2 2 1 3 161 162 160
378 2 2 1 3 9 124 8
379 2 2 1 3 63 123 62
380 2 2 1 3 78 117 79
381 2 2 1 3 72 118 73
382 2 2 1 3 230 266 199
383 2 2 1 3 232 234 233
384 2 2 1 3 178 269 172
385 2 2 1 3 246 247 209
386 2 2 1 3 227 232 231
387 2 2 1 3 180 181 179
388 2 2 1 3 175 179 174
389 2 2 1 3 167 194 164
390 2 2 1 3 80 132 81
391 2 2 1 3 70 133 71
392 2 2 1 3 71 142 72
393 2 2 1 3 124 348 288
394 2 2 1 3 187 188 186
395 2 2 1 3 65 140 64
396 2 2 1 3 7 141 6
397 2 2 1 3 217 220 218
398 2 2 1 3 182 187 186
399 2 2 1 3 73 219 74
400 2 2 1 3 225 227 226
401 2 2 1 3 190 217 216
402 2 2 1 3 77 168 78
403 2 2 1 3 153 158 156
404 2 2 1 3 162 214 160
405 2 2 1 3 187 240 188
406 2 2 1 3 180 182 181
407 2 2 1 3 81 205 82
408 2 2 1 3 69 206 70
409 2 2 1 3 149 150 148
410 2 2 1 3 175 184 180
411 2 2 1 3 220 268 218
412 2 2 1 3 173 174 172
413 2 2 1 3 175 180 179
414 2 2 1 3 75 127 76
415 2 2 1 3 217 218 216
416 2 2 1 3 145 147 146
417 2 2 1 3 237 238 156
418 2 2 1 3 152 154 150
419 2 2 1 3 173 175 174
420 2 2 1 3 149 153 152
421 2 2 1 3 232 235 234
422 2 2 1 3 80 189 132
423 2 2 1 3 146 149 148
424 2 2 1 3 158 237 156
425 2 2 1 3 171 177 173
426 2 2 1 3 164 270 162
427 2 2 1 3 171 173 172
428 2 2 1 3 190 215 132
429 2 2 1 3 203 224 223
430 2 2 1 3 150 277 148
431 2 2 1 3 153 156 152
432 2 2 1 3 193 271 203
433 2 2 1 3 190 216 215
434 2 2 1 3 200 299 201
435 2 2 1 3 154 239 157
436 2 2 1 3 223 225 204
437 2 2 1 3 194 270 164
438 2 2 1 3 127 192 76
439 2 2 1 3 203 204 202
440 2 2 1 3 162 270 214
441 2 2 1 3 189 190 132
442 2 2 1 3 149 152 150
443 2 2 1 3 182 272 187
444 2 2 1 3 203 271 224
445 2 2 1 3 184 272 180
446 2 2 1 3 180 272 182
447 2 2 1 3 47 337 229
448 2 2 1 3 228 338 24
449 2 2 1 3 223 245 225
450 2 2 1 3 203 223 204
451 2 2 1 3 193 202 192
452 2 2 1 3 69 213 206
453 2 2 1 3 205 212 82
454 2 2 1 3 135 338 305
455 2 2 1 3 193 203 202
456 2 2 1 3 238 273 156
457 2 2 1 3 151 276 145
458 2 2 1 3 227 274 232
459 2 2 1 3 284 349 327
460 2 2 1 3 328 350 285
461 2 2 1 3 154 273 239
462 2 2 1 3 152 273 154
463 2 2 1 3 127 193 192
464 2 2 1 3 232 274 235
465 2 2 1 3 156 273 152
466 2 2 1 3 70 342 133
467 2 2 1 3 145 276 147
468 2 2 1 3 149 275 153
469 2 2 1 3 206 342 70
470 2 2 1 3 147 275 146
471 2 2 1 3 135 298 253
472 2 2 1 3 146 275 149
473 2 2 1 3 175 279 184
474 2 2 1 3 155 277 150
475 2 2 1 3 239 278 157
476 2 2 1 3 177 279 173
477 2 2 1 3 210 332 277
478 2 2 1 3 288 331 124
479 2 2 1 3 157 278 195
480 2 2 1 3 255 287 167
481 2 2 1 3 246 289 137
482 2 2 1 3 173 279 175
483 2 2 1 3 277 332 219
484 2 2 1 3 66 353 229
485 2 2 1 3 228 352 5
486 2 2 1 3 310 333 238
487 2 2 1 3 234 354 236
488 2 2 1 3 236 354 120
489 2 2 1 3 22 280 21
490 2 2 1 3 50 281 49
491 2 2 1 3 306 318 256
492 2 2 1 3 248 293 201
493 2 2 1 3 229 353 47
494 2 2 1 3 24 352 228
495 2 2 1 3 296 346 224
496 2 2 1 3 158 290 237
497 2 2 1 3 242 314 236
498 2 2 1 3 259 282 262
499 2 2 1 3 214 290 160
500 2 2 1 3 193 292 271
501 2 2 1 3 285 297 206
502 2 2 1 3 216 283 215
503 2 2 1 3 134 301 243
504 2 2 1 3 254 301 134
505 2 2 1 3 240 298 188
506 2 2 1 3 264 300 260
507 2 2 1 3 213 285 206
508 2 2 1 3 205 284 212
509 2 2 1 3 204 303 202
510 2 2 1 3 243 301 211
511 2 2 1 3 167 287 211
512 2 2 1 3 294 324 287
513 2 2 1 3 268 286 218
514 2 2 1 3 222 288 221
515 2 2 1 3 121 286 268
516 2 2 1 3 196 306 256
517 2 2 1 3 266 306 197
518 2 2 1 3 212 327 280
519 2 2 1 3 281 328 213
520 2 2 1 3 277 323 148
521 2 2 1 3 41 310 119
522 2 2 1 3 151 299 276
523 2 2 1 3 264 348 124
524 2 2 1 3 276 299 200
525 2 2 1 3 131 345 245
526 2 2 1 3 219 323 277
527 2 2 1 3 53 289 139
528 2 2 1 3 202 304 192
529 2 2 1 3 137 289 54
530 2 2 1 3 55 291 137
531 2 2 1 3 177 330 241
532 2 2 1 3 209 311 207
533 2 2 1 3 122 291 56
534 2 2 1 3 269 302 170
535 2 2 1 3 54 289 53
536 2 2 1 3 160 290 158
537 2 2 1 3 56 291 55
538 2 2 1 3 190 313 217
539 2 2 1 3 127 292 193
540 2 2 1 3 247 293 248
541 2 2 1 3 142 329 143
542 2 2 1 3 207 329 142
543 2 2 1 3 64 294 63
544 2 2 1 3 272 314 242
545 2 2 1 3 249 296 130
546 2 2 1 3 260 322 258
547 2 2 1 3 63 294 123
548 2 2 1 3 126 333 39
549 2 2 1 3 34 345 131
550 2 2 1 3 125 345 33
551 2 2 1 3 261 341 265
552 2 2 1 3 217 326 220
553 2 2 1 3 32 343 125
554 2 2 1 3 140 294 64
555 2 2 1 3 120 344 30
556 2 2 1 3 230 295 266
557 2 2 1 3 208 339 246
558 2 2 1 3 46 337 47
559 2 2 1 3 24 338 25
560 2 2 1 3 125 343 274
561 2 2 1 3 243 337 134
562 2 2 1 3 263 348 264
563 2 2 1 3 279 312 184
564 2 2 1 3 224 351 296
565 2 2 1 3 144 323 118
566 2 2 1 3 254 319 301
567 2 2 1 3 11 300 10
568 2 2 1 3 229 337 243
569 2 2 1 3 245 347 225
570 2 2 1 3 116 318 306
571 2 2 1 3 171 330 177
572 2 2 1 3 205 325 284
573 2 2 1 3 227 347 274
574 2 2 1 3 188 298 222
575 2 2 1 3 151 311 299
576 2 2 1 3 282 307 262
577 2 2 1 3 121 307 14
578 2 2 1 3 233 312 279
579 2 2 1 3 274 347 125
580 2 2 1 3 170 302 117
581 2 2 1 3 242 334 240
582 2 2 1 3 136 336 286
583 2 2 1 3 168 304 176
584 2 2 1 3 326 341 220
585 2 2 1 3 259 322 282
586 2 2 1 3 282 322 115
587 2 2 1 3 62 309 61
588 2 2 1 3 115 300 11
589 2 2 1 3 211 301 194
590 2 2 1 3 138 317 18
591 2 2 1 3 17 317 136
592 2 2 1 3 226 303 204
593 2 2 1 3 49 316 48
594 2 2 1 3 23 315 22
595 2 2 1 3 139 297 285
596 2 2 1 3 269 313 302
597 2 2 1 3 127 308 292
598 2 2 1 3 61 318 60
599 2 2 1 3 216 336 283
600 2 2 1 3 297 339 208
601 2 2 1 3 288 348 221
602 2 2 1 3 241 330 176
603 2 2 1 3 139 350 52
604 2 2 1 3 19 349 138
605 2 2 1 3 286 336 218
606 2 2 1 3 58 335 57
607 2 2 1 3 214 340 251
608 2 2 1 3 124 331 8
609 2 2 1 3 243 324 140
610 2 2 1 3 7 331 141
611 2 2 1 3 197 306 196
612 2 2 1 3 211 324 243
613 2 2 1 3 128 319 254
614 2 2 1 3 230 335 295
615 2 2 1 3 14 307 13
616 2 2 1 3 2 321 23
617 2 2 1 3 48 320 2
618 2 2 1 3 299 311 248
619 2 2 1 3 313 326 217
620 2 2 1 3 283 317 138
621 2 2 1 3 249 346 296
622 2 2 1 3 176 330 169
623 2 2 1 3 235 354 234
624 2 2 1 3 280 327 21
625 2 2 1 3 50 328 281
626 2 2 1 3 311 329 207
627 2 2 1 3 138 349 284
628 2 2 1 3 285 350 139
629 2 2 1 3 316 320 48
630 2 2 1 3 23 321 315
631 2 2 1 3 301 319 194
632 2 2 1 3 302 313 189
633 2 2 1 3 141 331 288
634 2 2 1 3 75 308 127
635 2 2 1 3 123 309 62
636 2 2 1 3 40 310 41
637 2 2 1 3 248 311 209
638 2 2 1 3 234 312 233
639 2 2 1 3 128 340 319
640 2 2 1 3 295 335 58
641 2 2 1 3 189 313 190
642 2 2 1 3 283 325 215
643 2 2 1 3 195 351 271
644 2 2 1 3 287 324 211
645 2 2 1 3 138 325 283
646 2 2 1 3 184 314 272
647 2 2 1 3 305 338 228
648 2 2 1 3 18 317 17
649 2 2 1 3 133 342 208
650 2 2 1 3 40 333 310
651 2 2 1 3 251 340 128
652 2 2 1 3 60 318 116
653 2 2 1 3 194 319 270
654 2 2 1 3 84 321 4
655 2 2 1 3 4 320 67
656 2 2 1 3 1 352 24
657 2 2 1 3 47 353 3
658 2 2 1 3 297 342 206
659 2 2 1 3 258 322 259
660 2 2 1 3 148 323 144
661 2 2 1 3 5 352 1
662 2 2 1 3 3 353 66
663 2 2 1 3 281 316 49
664 2 2 1 3 22 315 280
665 2 2 1 3 143 329 151
666 2 2 1 3 21 327 20
667 2 2 1 3 51 328 50
668 2 2 1 3 178 326 269
669 2 2 1 3 67 320 316
670 2 2 1 3 315 321 84
671 2 2 1 3 129 334 252
672 2 2 1 3 169 330 171
673 2 2 1 3 8 331 7
674 2 2 1 3 319 340 270
675 2 2 1 3 39 333 40
676 2 2 1 3 219 332 74
677 2 2 1 3 57 335 122
678 2 2 1 3 178 341 326
679 2 2 1 3 134 337 46
680 2 2 1 3 25 338 135
681 2 2 1 3 218 336 216
682 2 2 1 3 131 346 249
683 2 2 1 3 265 341 178
684 2 2 1 3 31 344 343
685 2 2 1 3 31 343 32
686 2 2 1 3 221 348 263
687 2 2 1 3 30 344 31
688 2 2 1 3 33 345 34
689 2 2 1 3 20 349 19
690 2 2 1 3 52 350 51
691 2 2 1 3 270 340 214
692 2 2 1 3 225 347 227
693 2 2 1 3 269 326 313
694 2 2 1 3 284 325 138
695 2 2 1 3 151 329 311
696 2 2 1 3 271 351 224
697 2 2 1 3 246 339 289
698 2 2 1 3 312 314 184
699 2 2 1 3 208 342 297
700 2 2 1 3 140 324 294
701 2 2 1 3 327 349 20
702 2 2 1 3 51 350 328
703 2 2 1 3 308 332 210
704 2 2 1 3 289 339 139
705 2 2 1 3 139 339 297
706 2 2 1 3 296 351 195
$EndElements
