$MeshFormat
2.2 0 8
$EndMeshFormat
$PhysicalNames
7
1 1 "Gamma"
1 2 "axis"
2 1 "vacuum"
2 10 "coil0"
2 11 "coil1"
2 12 "coil2"
2 13 "coil3"
$EndPhysicalNames
$Nodes
924
1 0 -2.6 0
2 2.6 0 0
3 0 2.6 0
4 0.5 -1.15 0
5 0.6 -1.15 0
6 0.6 -1.05 0
7 0.5 -1.05 0
8 1.7 -0.95 0
9 1.8 -0.95 0
10 1.8 -0.85 0
11 1.7 -0.85 0
12 0.5 1.05 0
13 0.6 1.05 0
14 0.6 1.15 0
15 0.5 1.15 0
16 1.7 0.85 0
17 1.8 0.85 0
18 1.8 0.95 0
19 1.7 0.95 0
20 0.2101055939604465 -2.591496795171958 0
21 0.4188369026124626 -2.566042799528098 0
22 0.6248286297472022 -2.523804505790461 0
23 0.8267333985579705 -2.465058191546153 0
24 1.023230564733258 -2.390188112135875 0
25 1.213034854694517 -2.299683987267871 0
26 1.394904772476528 -2.194137797797168 0
27 1.567650720261628 -2.074239913622144 0
28 1.73014277945195 -1.940774578025558 0
29 1.880893452978698 -1.795059837036601 0
30 2.009590424000245 -1.649710983101742 0
31 2.116746879755526 -1.509762447223153 0
32 2.207643083533967 -1.3734307466067 0
33 2.286547110956909 -1.237619614168512 0
34 2.356676215054081 -1.098215469476903 0
35 2.420066949381802 -0.9504083125214432 0
36 2.477073813153645 -0.7900033697323458 0
37 2.526344868610634 -0.6144766918644836 0
38 2.566042898029811 -0.4188362991322115 0
39 2.591496795171958 -0.2101055939604477 0
40 0 -2.381329402147879 0
41 0 -2.162658804295758 0
42 0 -1.943988206443638 0
43 0 -1.732435021942826 0
44 0 -1.546409087537096 0
45 0 -1.380018944262217 0
46 0 -1.22561792165656 0
47 0 -1.075448380569007 0
48 0 -0.9246766484570617 0
49 0 -0.7672086561767431 0
50 0 -0.5965594959541782 0
51 0 -0.425537953206542 0
52 0 -0.2553227719239248 0
53 0 -0.08510759064130768 0
54 0 0.08510759064130902 0
55 0 0.2553227719239262 0
56 0 0.4255379532065433 0
57 0 0.5965594959541796 0
58 0 0.7672086561767446 0
59 0 0.9246766484570634 0
60 0 1.07544838056901 0
61 0 1.22561792165656 0
62 0 1.380018944262217 0
63 0 1.546409087537098 0
64 0 1.732435021942829 0
65 0 1.943988206443641 0
66 0 2.162658804295762 0
67 0 2.38132940214788 0
68 2.591496795171958 0.210105593960448 0
69 2.566042898029812 0.4188362991322102 0
70 2.526344868610634 0.6144766918644839 0
71 2.477073813153646 0.7900033697323445 0
72 2.420066949381802 0.9504083125214431 0
73 2.35667621505408 1.098215469476903 0
74 2.286547110956907 1.237619614168514 0
75 2.207643083533964 1.373430746606705 0
76 2.116746879755523 1.509762447223157 0
77 2.009590424000241 1.649710983101746 0
78 1.880893452978694 1.795059837036606 0
79 1.730142779451944 1.940774578025563 0
80 1.567650720261622 2.074239913622149 0
81 1.394904772476521 2.194137797797173 0
82 1.21303485469451 2.299683987267874 0
83 1.023230564733253 2.390188112135877 0
84 0.8267333985579639 2.465058191546154 0
85 0.6248286297471989 2.523804505790462 0
86 0.4188369026124599 2.566042799528099 0
87 0.2101055939604466 2.591496795171958 0
88 0.5499999999999999 -1.15 0
89 0.6 -1.1 0
90 0.55 -1.05 0
91 0.5 -1.1 0
92 1.75 -0.95 0
93 1.8 -0.9 0
94 1.75 -0.85 0
95 1.7 -0.8999999999999999 0
96 0.5499999999999999 1.05 0
97 0.6 1.1 0
98 0.55 1.15 0
99 0.5 1.1 0
100 1.75 0.85 0
101 1.8 0.8999999999999999 0
102 1.75 0.95 0
103 1.7 0.9 0
104 1.725 0.875 0
105 1.764236111111111 0.8857638888888889 0
106 1.735564295162509 0.9144357048374905 0
107 1.775 0.9249999999999999 0
108 1.725 -0.9249999999999999 0
109 1.764236111111111 -0.914236111111111 0
110 1.735564295162509 -0.8855642951625095 0
111 1.775 -0.875 0
112 0.575 1.075 0
113 0.564236111111111 1.114236111111111 0
114 0.5355642951625095 1.08556429516251 0
115 0.525 1.125 0
116 0.575 -1.125 0
117 0.564236111111111 -1.085763888888889 0
118 0.5355642951625095 -1.11443570483749 0
119 0.525 -1.075 0
120 1.72927108383099 -0.7961963859110828 0
121 1.729271083830991 0.7961963859110821 0
122 1.663314389024587 -0.8000024013345917 0
123 1.669699376741979 0.8063248832008514 0
124 1.701251662535877 0.7390180925631699 0
125 1.626827373990303 0.7446179902697838 0
126 0.6538036140889175 -1.07927108383099 0
127 0.648418391093499 -1.016266184945391 0
128 0.6488090051454248 1.07768153731628 0
129 1.700187497916311 -0.7379643455854606 0
130 0.6494306383697105 1.01501385859289 0
131 1.621833597295664 -0.7403195620206091 0
132 1.666873333976986 0.670946924279734 0
133 1.576321818781351 0.6688327955861877 0
134 0.7081407603371218 1.050576099449575 0
135 0.7117724531525549 -1.050679463903111 0
136 0.7107058672980976 -0.9760106297839328 0
137 1.665772299754653 -0.6691143612140176 0
138 1.577677073274235 -0.6672485915231224 0
139 0.7102692930415605 0.9757846813162601 0
140 1.625062349551695 0.585651267457441 0
141 1.52375239189923 0.5821841722611601 0
142 0.7807616948431941 1.017386559630504 0
143 0.7810126767954357 -1.016550466167164 0
144 0.7826186114784498 -0.9280148052171713 0
145 1.625104719596784 -0.5850818062693116 0
146 1.525476129165317 -0.577494330719672 0
147 0.5780681606277007 -1.193397538917253 0
148 0.5729458090370859 1.198146883498997 0
149 0.1211132824278778 -0.01728129438912793 0
150 0.7800368900163822 0.9263880562191558 0
151 1.57596399279451 0.4931924320284043 0
152 1.472278065305554 0.4924874002145364 0
153 0.6367497453421754 -1.199404484931061 0
154 0.5992765705290958 -1.254942353403137 0
155 0.6754942790683964 -1.259021333116475 0
156 0.6317600975274912 1.19653023246236 0
157 0.6002667650499459 1.262767390156812 0
158 0.6747589351103698 1.259953346888946 0
159 1.52429288390077 0.4035706679910931 0
160 1.425675358221946 0.4030969857872869 0
161 0.8659022168395284 -0.9766178886693233 0
162 0.8612645610508443 0.9771093228334342 0
163 0.6283708325243352 -1.325176704565908 0
164 0.6342183166809657 1.334674649680921 0
165 1.476497263495934 0.318203111186735 0
166 1.382614409610763 0.3165691621973534 0
167 0.7188260385395631 -1.329777080326086 0
168 0.7189732204929733 1.331129936091248 0
169 1.746689893354824 -0.6786447875444526 0
170 1.744943496103386 0.6739686926810904 0
171 1.330457862128567 0.3968875463355993 0
172 1.291869969666459 0.3132214706174126 0
173 1.340324892661378 0.2369758190878377 0
174 1.250503764022536 0.2335794738904452 0
175 1.202463326983976 0.3091082982451009 0
176 1.16055466277758 0.2300197674235666 0
177 1.112591721683427 0.3061563826140298 0
178 1.070631681354417 0.2266263007107964 0
179 1.118587472761026 0.1504901571424467 0
180 1.022614696710296 0.3027545744371308 0
181 1.028664386061796 0.1470502832392142 0
182 1.076619334030423 0.07089463210666067 0
183 0.9867008614239428 0.06743137630669788 0
184 1.034655037705393 -0.008719136890580891 0
185 0.944722839238354 -0.01217864838919869 0
186 0.9926838247399731 -0.08833333332485441 0
187 0.8681681329125669 -0.8725953376684542 0
188 0.9027503449845686 -0.09179205981385295 0
189 0.7662668175645947 -0.8348977742932333 0
190 1.725263372015743 1.000904717373464 0
191 1.6646108310428 0.9997799237410505 0
192 1.72865673246797 -0.9991930735726037 0
193 1.664857926951017 -0.9953245615118972 0
194 0.6422891940623255 0.9462437711348635 0
195 1.576274503357711 0.3172688912828976 0
196 1.123205217336356 0.002473215132453426 0
197 0.6653691794462135 1.420560407028164 0
198 0.6728906771665654 -1.411264561050844 0
199 1.577318256606967 -0.4916714538868224 0
200 0.8967714125688389 0.0639369233381165 0
201 0.5219318393722985 -1.006602461082747 0
202 1.539988212426637 0.7539502515401201 0
203 0.9612859192006936 -0.929772665506664 0
204 0.7847676015091553 -1.412874944568105 0
205 0.7740089953087725 1.420183598967382 0
206 0.9507122518113218 -0.1679473092011069 0
207 0.8607787120559535 -0.1714059989344448 0
208 1.064632444943913 0.3824025327974075 0
209 0.9744939887709538 0.3789209148804548 0
210 1.698981332892637 1.062081511787921 0
211 1.61963890685819 1.057695337431407 0
212 1.702981436071604 -1.058510587365501 0
213 1.62809176525231 -1.057723163450923 0
214 0.9756269858817924 -0.8084022792079125 0
215 0.7107510539111755 1.522297805525615 0
216 0.7137977378979646 -1.519530388796182 0
217 1.843301270189222 -0.8750000000000001 0
218 1.849193073572604 0.8786567324679707 0
219 1.667229782167191 -1.129037579726143 0
220 1.573338245846092 -1.12812353007107 0
221 1.672023934481071 1.134336924868715 0
222 1.572052287341633 1.129381936099037 0
223 1.473438028272494 -0.4852329422829407 0
224 1.525235186505313 -0.397489615702197 0
225 1.632810716441711 -0.3991296730537247 0
226 0.8427685209730059 -1.518322089978626 0
227 0.8404676392751435 1.520001435166745 0
228 1.533336227361316 -0.7516692077388902 0
229 0.1375943821044434 0.5097346893527012 0
230 1.57645453783056 -0.3025934132317424 0
231 1.690352520555835 -0.3019022241571951 0
232 1.017447309877917 0.4593437811847831 0
233 0.9265155880213155 0.4540791039871471 0
234 1.425730679376031 -0.3977322363057698 0
235 0.8923119563152002 1.393136115494882 0
236 0.4673861772074059 -1.00426132496793 0
237 0.4511909948545753 -1.122318462683719 0
238 0.451677200433189 -1.18473562907196 0
239 0.5007234294709043 -0.9450576465968623 0
240 0.12202338004411 -0.5343050727151197 0
241 0.908740762434881 -0.247561336272284 0
242 0.8188072366048417 -0.251020034538158 0
243 0.7708451512607647 -0.1748646757778665 0
244 0.7288737086520595 -0.2544787315035628 0
245 0.4461963859110823 1.120728916169009 0
246 0.4497369268063733 1.184721216987991 0
247 0.8843441139090245 0.3751510720563879 0
248 0.8361147794639018 0.4499446838952309 0
249 0.7942775985630782 0.3713493641022159 0
250 0.7459525456879206 0.4473369044026932 0
251 0.7043077193735718 0.3677208219550466 0
252 0.7768417873900507 -1.634919100282113 0
253 0.7759505264426081 1.635660227268372 0
254 1.421649689000772 0.5831428482189386 0
255 0.9971837458718026 -0.2433091135045141 0
256 0.9754983765936256 1.518235425003122 0
257 2.411208130330939 0.1056644318529588 0
258 0.7768357933546333 -0.3306340898707984 0
259 0.6869022752122983 -0.3340927928469274 0
260 0.6809116255578634 -0.1783233741217604 0
261 1.625951681440814 -1.214823853760083 0
262 1.522661510831607 -1.216685125364976 0
263 1.633354824378993 1.219691305567006 0
264 1.52368104157056 1.217706101670791 0
265 1.467118356044972 1.120245031439461 0
266 0.9096553947730069 -1.403252811283046 0
267 0.9787724299529046 -1.519641650103129 0
268 1.375110523172769 -0.4795295100405024 0
269 1.467838934830308 -1.119485314876373 0
270 2.390151994269528 -0.4852192505575797 0
271 0.5700054050492595 -1.400909782991351 0
272 0.5674739731420808 1.407526112831079 0
273 0.6552782132184326 0.4440453596586507 0
274 0.6142687384344984 0.3639662665782065 0
275 0.699196435000947 0.5271810419427992 0
276 0.9616977355920894 0.5355313292518744 0
277 1.627973683173753 -0.2053936018568927 0
278 1.749657157849597 -0.204553178412781 0
279 1.754399239460988 -1.127394820234222 0
280 1.756130591983975 1.122348963893815 0
281 2.334209557139307 0.669448905358661 0
282 0.9552557698388101 -0.3229504162242862 0
283 0.6626501958056366 0.2880207056379735 0
284 0.5727652348374163 0.284127396558075 0
285 0.6211281439060158 0.2079912112219455 0
286 1.578012097576231 -1.315165644616193 0
287 1.579508818772429 1.316091411068389 0
288 0.4252638097655876 -0.9414827521417148 0
289 0.4717555156146616 -0.8749073096437893 0
290 1.52032209617835 -0.2111614538535244 0
291 0.6017315068771207 0.5236511726115725 0
292 0.7348643588393661 -0.4102481505552116 0
293 0.6449308419583082 -0.4137068543041096 0
294 0.5969687583002786 -0.3375514965768559 0
295 1.676150520449881 0.503353368483637 0
296 1.102298528734409 -0.8741297562733237 0
297 1.408669757807899 1.218591948745141 0
298 1.356104509503176 1.11024246243015 0
299 1.408619932482296 -1.218295166600325 0
300 0.1334717158896078 0.8459426523169039 0
301 1.331852747109238 -0.3976271015392695 0
302 1.281941678929697 -0.4757161218579259 0
303 2.329139383126347 -0.8211925567134268 0
304 0.5258479487181618 0.3669500545004535 0
305 1.566595034059073 -0.1146508722557676 0
306 1.817600900256189 -0.3093790546204234 0
307 0.6749052136383074 2.319576689732961 0
308 0.6767670462877882 -2.317852763651767 0
309 0.3879200998307572 1.149485103085786 0
310 0.3889354445157663 1.224181365036446 0
311 0.3944623804441198 -1.149707956795986 0
312 0.3912933503280158 -1.223088170761866 0
313 1.325161390375424 -0.562664992573891 0
314 0.6313824786640719 -1.631186326270078 0
315 0.6307261545083663 1.631771083556027 0
316 1.702741582772437 1.312897795456728 0
317 1.709988288369596 -1.292652871892859 0
318 0.5301862851778142 0.2043689163388351 0
319 0.5572073777056038 -0.4188409551628701 0
320 0.5092733654805982 -0.351609179597187 0
321 0.6049248879246359 -0.4960472876323377 0
322 1.54664321414953 1.858214438444814 0
323 1.533955485847145 -1.859789396607038 0
324 1.064831169142044 0.5431412015244821 0
325 1.002322764126022 0.6293946172360352 0
326 1.466037160947533 -0.1221303600443527 0
327 0.5798413969869771 0.1283752320537733 0
328 2.262267889184603 0.9702292209344887 0
329 2.217202382293858 -1.114841704135144 0
330 0.6488577374071773 0.6161352431329852 0
331 0.5436996708426175 0.608403820911921 0
332 1.849388440143056 -0.8137616147624419 0
333 1.906373320370357 -0.8475360411841799 0
334 1.909189776233048 -0.7741871461480199 0
335 1.849494649774241 0.8151763911181718 0
336 1.909205602075892 0.8530345134327972 0
337 1.907168473484934 0.7704086969607786 0
338 1.508895022405409 -0.03231164271744266 0
339 1.611865664142372 -0.02597720564883211 0
340 1.588333369226868 0.977621189765657 0
341 1.590588688591875 -0.9734511078406138 0
342 1.887943828901195 -0.1949526794172326 0
343 0.3807160739699208 -0.8697742617054164 0
344 0.4311518942104102 -0.7817133913173018 0
345 0.3334864894076905 -0.9520540675262936 0
346 0.5123037910108668 -0.5015418181517064 0
347 1.216129837855262 2.055533537087517 0
348 1.216058485297246 -2.053796860125617 0
349 1.278668388390201 1.226379349982015 0
350 1.373307849338138 1.369130370994378 0
351 1.418356453077017 -0.03955964388436961 0
352 1.369224544855763 -0.1182015291208602 0
353 0.7675408168555742 1.251422269219107 0
354 0.763867756603629 -1.250371062708575 0
355 0.7228830582703939 -0.09870931233283357 0
356 0.9448321750811925 -1.047551810863207 0
357 0.6329495403657958 -0.1021680154546258 0
358 1.116995501833124 0.6359177757093593 0
359 1.98111854003493 0.8168135103278964 0
360 1.978757727968996 0.7213121816665353 0
361 1.975007827140463 0.9027700024862153 0
362 1.224177832500343 -0.5581279027299876 0
363 0.487025937742745 0.1210999273296666 0
364 0.4333693525565566 0.2047041404194528 0
365 0.1395030301755155 -1.459084897429604 0
366 0.1443270241513347 1.462088487191131 0
367 2.129860532125735 1.237413832112595 0
368 0.7037122204865341 1.769901775160135 0
369 0.5459301636751576 1.747878084879356 0
370 0.7036679911911982 -1.769131555775572 0
371 0.546020393456204 -1.747753745375712 0
372 1.240312417369719 -0.3938885168890636 0
373 1.056668308783284 0.7355848299518707 0
374 1.179325893653803 0.7419769488166867 0
375 1.215926727589751 1.103053851555002 0
376 1.043735314120078 -1.393767187366059 0
377 1.130293563065639 -1.52026575735144 0
378 1.978466497623502 -0.8161064173061516 0
379 1.982071568985777 -0.7292087794739917 0
380 1.960371048320766 -0.9052878993643378 0
381 0.3195640399122875 1.183523335941217 0
382 0.3185239059986056 1.101455132024827 0
383 0.3206595951964001 -1.184024560607525 0
384 0.5270541909629137 1.001853116501003 0
385 0.464909300867329 1.000679715238027 0
386 0.4993367347589612 0.9369004607599006 0
387 0.4255606942468978 0.9389226360758994 0
388 0.4657688715133971 0.8650826559660052 0
389 1.643126248261217 1.420148298366959 0
390 1.645531272427346 -1.420346106858222 0
391 1.960364104150653 -0.3162895466135158 0
392 2.066399617515668 0.776348816813984 0
393 2.07343656154672 0.6692328154512415 0
394 1.971096073397113 0.6162536340792344 0
395 2.071268432170925 0.5551465816462086 0
396 1.96139887850428 0.5011887658827033 0
397 2.067878878956909 0.4298810915066245 0
398 1.947868618909826 0.369629879747141 0
399 0.1965830327434672 2.029856093901319 0
400 0.1970787323233866 -2.030047901489946 0
401 1.357471815413699 -1.109951549458308 0
402 0.3265214108582156 -0.7823895053285804 0
403 0.8424497621896555 0.2954875024275359 0
404 0.6695441553963486 0.1322498535665176 0
405 1.298419890892742 0.1573980921083642 0
406 0.5608195621027017 -0.5820000844441039 0
407 0.6586240130278677 -0.57821277824613 0
408 1.272077519966798 -0.6526051204708059 0
409 1.490436314770233 -1.430351972683151 0
410 1.523223040164216 0.2294597728351912 0
411 1.633264505568298 0.2206882230826643 0
412 2.042680802207808 -1.365023546642171 0
413 0.8588762828962574 -1.765087741946004 0
414 0.8588762828962561 1.765087741946004 0
415 0.7540858156488324 0.6165311259526653 0
416 0.5537632423137824 -0.7964648402686184 0
417 2.037998223107209 -0.1820456782214342 0
418 1.925055837720297 -0.05254386987099935 0
419 2.065324207308292 0.2771609181021391 0
420 1.288987526473652 -0.321826464245546 0
421 0.8593245234766153 1.074503532014928 0
422 1.198888290645088 -0.3142533105009548 0
423 1.149926211558743 -0.3884124248106334 0
424 0.377809550185371 0.866668694544123 0
425 0.3202229196739146 -1.268826038539563 0
426 0.3244345911628794 1.274660389084664 0
427 0.3839804570795066 -0.6805305925297868 0
428 1.65050362449821 0.8717430716388203 0
429 1.643626747263948 -0.8610273287217705 0
430 1.331869762438626 -0.0447130645452334 0
431 1.280649438413077 -0.1167174977218272 0
432 0.7019121118092854 0.7139374992872589 0
433 1.888044337194512 -0.4459106042372941 0
434 2.027015400193668 -0.4417096108798153 0
435 1.77613664603409 1.414340910026603 0
436 0.6154575358770062 1.899003010086688 0
437 0.6154575358770082 -1.899003010086689 0
438 1.162708679371929 0.5440711120234889 0
439 0.4284826761180581 0.782758241503883 0
440 2.055617930232117 -0.8631215728970725 0
441 0.6432925096917833 -0.9420461011328172 0
442 0.4558831204399613 1.262006943550518 0
443 0.456649845960894 -1.258856880398477 0
444 1.426262297705263 -1.005006083055933 0
445 1.426654291201981 1.020395763168163 0
446 0.9508144275803477 1.02723551594547 0
447 0.9511437737424152 1.143877384596062 0
448 1.267065495839952 -1.219133437912345 0
449 0.3856625465923515 0.1140298614477781 0
450 0.4442776158893364 0.0326654413639488 0
451 0.3256521867987329 0.205303248641991 0
452 0.8670223713267288 0.8776526517407738 0
453 0.2405363184104094 1.137940557875681 0
454 0.590915103120265 -0.1818217568556441 0
455 0.8251411963462728 -0.4069704406473101 0
456 0.48046230755023 -1.615596442976664 0
457 0.3897686680159119 -1.729987502698948 0
458 0.4833816641816954 1.59249116797685 0
459 0.3902863361422703 1.727049217138393 0
460 1.776201935768758 -1.411674867323163 0
461 1.828692845085044 1.279214647293394 0
462 1.823698696473201 -1.316084107143308 0
463 1.458615480692826 0.04200020519225783 0
464 1.046079193094877 1.358445396870571 0
465 1.130920545735039 1.513301240850527 0
466 1.164868723545943 -0.6465470769401594 0
467 1.113147997473303 0.8487828720854915 0
468 2.207066854937599 0.3640435453674884 0
469 0.2296422141793716 -1.227003169034251 0
470 0.2458829398042091 -1.118414472784261 0
471 0.2420943769352312 1.044236014866979 0
472 1.305283155398019 -0.9994434947286629 0
473 1.362093690385485 -0.9000681133302593 0
474 0.3235911743775957 0.781878154854476 0
475 0.3782030476538121 0.6861725007528199 0
476 1.129986728855259 -0.5522915953905956 0
477 1.704832285992232 -1.568717052774395 0
478 1.714754954037213 1.54349677632254 0
479 1.563338732897744 1.548317479523932 0
480 1.905999394737608 -0.6879116367782054 0
481 1.243906373663711 0.8597417645432182 0
482 0.5050936370823399 0.5168939907124404 0
483 2.048354505026591 -0.9598654033509031 0
484 1.958685804036805 -1.00123345506666 0
485 0.7828264420926389 -0.4864035080344759 0
486 0.8765662156489277 -0.4845363034605815 0
487 0.8309489902915986 -0.5676375389673303 0
488 0.9301007685640155 -0.5672373449245831 0
489 0.9609907427178368 -0.47468036103302 0
490 0.9503158839438436 -1.275104892400158 0
491 0.5436593313980592 -0.1060493848422439 0
492 0.5006665643239392 -0.1854788591243502 0
493 0.6751366925362245 -0.02279397795814935 0
494 0.7648953791063272 -0.01926361925912033 0
495 0.7805821347349742 -1.099272438258676 0
496 1.686476467197639 0.318384577825665 0
497 1.7646266766112 0.2117901378367539 0
498 0.2924274414310541 -2.398003181492214 0
499 0.2924274414310531 2.398003181492214 0
500 0.5268697630478089 0.7886783718365971 0
501 0.3839985850514394 0.3032575421382625 0
502 0.2512043213789897 0.3046542042656304 0
503 0.3228935460022457 0.3965547568210989 0
504 2.094655242433642 -0.05735903579775476 0
505 2.217451874614955 -0.1864376524784918 0
506 2.037546204311061 -1.056969255285043 0
507 1.948529104384867 -1.095071503581861 0
508 1.877518242466702 -1.037074331640335 0
509 2.027597912603151 -1.158037328462507 0
510 1.583869149215898 0.1360010982739605 0
511 1.981725433612898 -0.6342621243168276 0
512 2.086725400407277 -0.690226990530681 0
513 1.913022485331977 1.393427379670259 0
514 0.2037161894123623 0.196760804496552 0
515 0.7046753841335948 1.11917510456912 0
516 0.3943894482905176 -1.086198805545791 0
517 1.310784680683831 0.7308654927518053 0
518 1.378713059044133 -0.657679489360758 0
519 2.143205551877413 -0.9161188685114278 0
520 0.117022419464427 -0.85770531622418 0
521 0.8154238397472119 0.7101632005493186 0
522 0.4484156121987165 -0.1109802502007261 0
523 0.3993490936532071 -0.1958547457324924 0
524 0.3437011035306569 -0.1054198167177531 0
525 0.2612892902605775 -0.2039398833223686 0
526 0.3551784612117775 -0.3032221591139723 0
527 0.2332140408680045 -0.3141421605247612 0
528 0.266751950670627 -0.6868330482148861 0
529 0.3341956300602015 -0.5906112085074759 0
530 0.2654332440160106 0.6874617070795002 0
531 0.3381187475599577 -1.590276786640118 0
532 0.3386915850195948 1.585936193213389 0
533 1.865777404899292 0.5790670116164373 0
534 1.388375145958544 0.1608194828893917 0
535 0.4053120855803469 1.473339434862396 0
536 0.4195681006945475 -1.498026263969275 0
537 1.646271697795925 -0.9275767431001485 0
538 1.578477988413262 -0.8971682278222006 0
539 0.6261919635942114 -0.6921391177713557 0
540 2.173941551791758 0.7265648954510541 0
541 1.110430651186496 -0.3097464117103088 0
542 1.168177569373148 -0.2210955125791399 0
543 1.314730642785114 -0.189071200578417 0
544 0.7618454608542852 -0.6542425205772321 0
545 1.204277291302836 -0.7577586020086878 0
546 1.341156218888259 0.09142479224231354 0
547 1.256430155646215 0.07780937548688155 0
548 0.8758845826459892 -0.6430111730432762 0
549 0.9872658580597115 -0.6642519013963086 0
550 1.069336219098611 -0.3846498537739396 0
551 1.893387830969329 -0.9609610942040928 0
552 0.2512510255653561 -1.697966647099378 0
553 0.2514327764963553 1.696753500601497 0
554 1.030187003538221 1.682227410192146 0
555 1.224524664012763 1.667058316092161 0
556 1.030565156493919 -1.683423230420848 0
557 1.261654079701544 -1.673159085141647 0
558 2.131103906504102 -0.799431567096582 0
559 1.372603865952731 0.8542772891439858 0
560 1.353905228033486 -1.344112196984254 0
561 1.138115186001617 1.227114474876176 0
562 1.105044543253826 -1.261396300573966 0
563 1.91394524755906 0.2241114798110157 0
564 1.855384328056795 -1.121745611415198 0
565 1.598155262420587 0.8189024256873197 0
566 0.3963153813660775 1.007085909971215 0
567 1.836745093544482 0.7425522160657034 0
568 1.495892036499111 0.8506801825860988 0
569 1.129819875939171 1.853204694050787 0
570 1.136232121016531 -1.852288358727772 0
571 0.2385520907240782 -1.340585000555074 0
572 1.961671283794289 1.274596468511271 0
573 1.896576061447508 1.173867897741517 0
574 2.001275591702297 1.163700252978482 0
575 1.935112155985494 1.082326983798384 0
576 2.053002227200272 1.057545947858352 0
577 1.239607933594801 -0.04680257213341811 0
578 1.192286294811749 -0.1248771946115669 0
579 0.3243860096554569 0.5904431964548423 0
580 0.2603290212607329 0.8797532546975388 0
581 2.176199965412222 0.8535659640490264 0
582 0.2816706601914634 -1.459096243502193 0
583 1.579390755504624 0.8982935285279942 0
584 1.79088536081593 -0.7957577341765174 0
585 0.6543031420264138 -1.14088727090974 0
586 1.515695613844153 -0.9475373476326794 0
587 1.499426444905038 -0.8506098314962786 0
588 1.891396823894658 -0.5878277101006384 0
589 0.2996888205476894 -0.4002090742480542 0
590 0.128324662879994 -1.162530577246381 0
591 0.137290162600194 -1.021682838177675 0
592 1.503744839554736 0.9450427749198123 0
593 0.1567944481225881 1.083881131488569 0
594 0.146962729110732 1.193483380198322 0
595 1.355652686254127 0.4960140833488085 0
596 1.319805976689746 0.5976765016872719 0
597 1.273945220512503 0.4561922025413262 0
598 1.473249954326837 -0.307527447705259 0
599 2.209939010377283 0.1937899237569926 0
600 2.298606458349785 0.7847584605015109 0
601 2.19318790071047 0.6039618386199879 0
602 2.33983383530224 0.4970914634837896 0
603 2.387597920691638 0.2982552095923146 0
604 0.123407560784452 -0.1523349763669727 0
605 1.245173900227617 -0.8800512769412847 0
606 1.186840589377996 -0.9960550020228969 0
607 0.3319070253378923 0.00655413262956092 0
608 1.681488963414454 -0.5002513773024129 0
609 2.264012873143841 -0.9727604522332318 0
610 2.13215323374257 0.9656795892917935 0
611 2.188369499968279 1.101506940062666 0
612 2.128738439443145 -1.232530185796831 0
613 0.8731107679916051 0.606880108495378 0
614 0.5027546353859048 -0.6841093243579826 0
615 0.657303581221898 -0.7972240582279301 0
616 1.864481397773805 -1.529510716260859 0
617 1.070584971639513 1.089173409649605 0
618 1.4084682776018 -0.219342331334922 0
619 0.3107734882752745 1.855870211146244 0
620 0.3107098503515647 -1.856881322628798 0
621 0.2185614273359929 -0.9320054166640129 0
622 0.2853980477017858 1.464800265465232 0
623 1.642678001229032 1.687434795001093 0
624 0.768864292102775 0.8172254325143568 0
625 1.428696171266459 0.7554637308320225 0
626 0.9522285672866706 1.273658381867124 0
627 0.6367595767597449 0.8102283767111338 0
628 1.379739497267155 -0.3208300543187655 0
629 1.190499051443112 -0.4693360834666577 0
630 0.9325224729047709 0.2991637646499201 0
631 0.8906442868226404 0.2195382619714582 0
632 0.8007742267675083 0.2159156206796421 0
633 0.6389296908778591 -0.2579440484368123 0
634 0.5493699293988584 -0.2632445556532784 0
635 0.8665853582733036 -0.3270778432776741 0
636 0.911904972170907 -0.4011195012208966 0
637 0.8128234417709898 -0.09527870185699255 0
638 1.039569036660478 -0.1639181675746807 0
639 0.8547982231439764 -0.01567621553979822 0
640 0.8069215613953887 0.06027251269398125 0
641 1.078853264547662 -0.07876224888554839 0
642 1.153087639622033 0.3841868713605108 0
643 0.9806621071393583 0.2231407798305043 0
644 1.2085039242943 0.1539445945366948 0
645 1.166142592795332 0.07976892725397765 0
646 0.9387080751224617 0.143503560928711 0
647 0.7525519383498498 0.2917795756915829 0
648 1.9029367517622 -1.399502621959112 0
649 0.8462666339350288 1.183598141966303 0
650 0.7109975986219377 0.2120635499407727 0
651 0.8488594156971841 0.1399318687431473 0
652 2.360797306316632 -0.6571507937337586 0
653 2.220030067102533 -0.5463054895558358 0
654 2.251447642963655 -0.3807622770866988 0
655 2.420777236061815 -0.2991592340391842 0
656 0.5873425702769749 -0.02706746559845622 0
657 1.106616175730142 0.4620478251161558 0
658 0.7590031638678493 0.1361205532525834 0
659 2.084337241109659 -0.5604244586778572 0
660 0.7171830237966986 0.05650149619868002 0
661 1.257085145510916 -0.2474859722257645 0
662 0.1614220959073167 0.9659441822191871 0
663 0.1104123955906744 -1.292087656477516 0
664 0.6284162840962152 0.05273483378766801 0
665 0.5655182149081959 0.4421765174310843 0
666 1.815051493135684 0.330973351047253 0
667 1.839651409607005 0.09096349223375162 0
668 1.700316594405727 0.1175890462291056 0
669 1.740324863468319 -0.003037449197350346 0
670 2.063131458000536 1.369434922977738 0
671 1.851500463630181 0.4544670469071558 0
672 1.430146858369876 0.2402616764620632 0
673 1.833398872477791 1.090722235588667 0
674 1.878376019783019 1.015468205825053 0
675 1.817212628577382 1.026356482966134 0
676 1.962868176995392 0.991368317672283 0
677 0.6954175022861202 -0.491251746475216 0
678 1.213002647572454 1.365052354977961 0
679 1.298157161883315 1.516434614834644 0
680 1.416398282356606 1.65668358770304 0
681 0.580432623096224 -0.9876170396955307 0
682 0.5638160718089983 -0.9020809699329062 0
683 0.5921335862134154 0.9942460188846285 0
684 1.78793261824156 0.7987190382967519 0
685 0.449301717471674 1.061068276513101 0
686 0.5195712490649345 -1.212577327197186 0
687 0.5397506862041913 -1.298564573486811 0
688 0.4646302140966299 -1.33892439236481 0
689 0.3682476522060615 -1.375740178600881 0
690 0.5076402130789618 1.206433044913524 0
691 0.4828786565150121 0.2802300790811325 0
692 0.3567693355418748 1.374866086627827 0
693 0.4718213481613189 1.36112664060436 0
694 0.2503102487717639 1.353701242081296 0
695 1.306036436810537 -1.497888670161408 0
696 1.443780701943671 -1.592744377280862 0
697 1.895812661914302 0.9323213043558423 0
698 1.782095036099649 -1.049024603139229 0
699 1.927629858627143 -1.186401618905351 0
700 0.1217313808217449 0.357810381417716 0
701 1.314830161926453 0.978822834544582 0
702 0.4140568435960905 -0.3916299737278268 0
703 0.9347674020499045 0.7168160648194758 0
704 0.5382567016614616 0.04572320611726585 0
705 1.478336050785758 0.6687428045898197 0
706 1.017343723015048 -1.14648402109133 0
707 0.8806446563269237 -1.149106626761125 0
708 0.7948429125807464 0.5282858949486404 0
709 1.525653500274313 -1.036795894754655 0
710 0.5292938700107325 1.274815282997354 0
711 0.5698807555371056 0.932049345273567 0
712 1.239899081956688 0.3865746228463793 0
713 1.645357634224052 0.9362246470220312 0
714 0.1398943744798626 0.6834878813125896 0
715 0.1353948033642188 -0.6887825945934924 0
716 1.325275152893106 1.84753872331335 0
717 0.9852920560134086 2.02143755447052 0
718 0.459466094290211 -0.2650619933288209 0
719 2.417272689485611 -0.09143093371168884 0
720 1.703383124796937 -1.749217635101502 0
721 1.222403484431591 0.6314420567068822 0
722 1.684502111918414 -0.1114012690126884 0
723 1.334014350507919 -1.842297438108968 0
724 0.9858628786556979 -2.020702479775756 0
725 1.158614428014894 -1.137264371324176 0
726 2.216581622527909 -0.7068937518901568 0
727 1.476922452796374 0.1368552419641198 0
728 2.110157639657852 -0.3203918756279017 0
729 0.8580586321436198 1.285401302721622 0
730 0.5923289306188013 0.705783399164302 0
731 1.856734849853649 1.527596926545136 0
732 0.8548140769776383 -0.7527225607752592 0
733 0.4327662774932592 0.3793567230610476 0
734 1.166849625710378 0.973028077951579 0
735 0.131400103891313 1.306348217301984 0
736 1.201013430187253 -1.372760591724912 0
737 2.136567421723536 -1.022598345132409 0
738 1.085233789738855 -0.7291671232172231 0
739 0.6992224401395964 1.186677021142461 0
740 0.4001437604720006 -1.014599578945509 0
741 0.3239002378928768 -1.052438019484368 0
742 0.778744522291147 1.102203435224277 0
743 1.75132404960603 -0.4137765153257503 0
744 0.4380964817933364 0.6003062991894084 0
745 0.4784938072074875 -2.355911309713592 0
746 0.5473236511587908 -2.138735909281492 0
747 0.7307342980734824 -2.108211110006287 0
748 0.4454808638710401 -1.991879219186466 0
749 0.8722748543689592 -2.255908138908514 0
750 0.8733218066692652 2.261452875133331 0
751 0.7245686257818114 2.11100362018056 0
752 0.5377312277205569 2.151496142257427 0
753 0.4455882557617636 1.990764729586844 0
754 0.8072864587825038 1.914510873919858 0
755 0.4803600803058924 2.353042199720756 0
756 0.8127149979411846 -1.903638113273958 0
757 0.826857592783974 -1.317709464648146 0
758 1.47791018181638 -0.6622642199645059 0
759 1.439032236699744 -0.7514169383208739 0
760 1.331442046551126 -0.7764483835427136 0
761 2.044467579391369 0.1025107649414539 0
762 0.4506154297580434 -0.5895675270103127 0
763 0.403849336699905 -0.4942829174535368 0
764 1.896583961410417 0.6844581617378226 0
765 1.52959034170473 1.041730338803923 0
766 0.3391005905055723 0.9436596027554846 0
767 0.3930232195230332 1.301841717104446 0
768 0.7011739013174022 -0.8928769202219329 0
769 0.4002087964531031 -1.293087132133119 0
770 0.6934130947658187 0.891974781335225 0
771 1.031661739631836 -0.541264740919511 0
772 1.814963246604517 -1.217809410126329 0
773 1.101115728799366 -0.4637532503521014 0
774 1.425968218641086 -0.570810914157045 0
775 1.590002565710636 -0.8167994265223901 0
776 1.055487490349406 2.202343294993063 0
777 0.1236739945970863 -1.637665894854362 0
778 0.1245082854148895 1.63796430206497 0
779 0.267430516076379 0.1096928901854724 0
780 0.5681083740382464 -1.499808615360629 0
781 0.5820776478688121 1.514627627525302 0
782 2.041330811238069 0.9575621691957168 0
783 1.511003006800059 1.415601918438748 0
784 0.2962458934950109 -0.8655911791659978 0
785 2.062034999180653 0.8787900086941054 0
786 1.83904819493383 0.9261792769366199 0
787 0.4521850634707499 -1.062896362023825 0
788 1.778490825579741 -0.9890777111730116 0
789 0.6474111544910178 1.138343982581703 0
790 1.842856620326839 -0.9305219955595528 0
791 1.543463799138145 0.05132509151370829 0
792 1.74003476706861 1.209732608810917 0
793 0.9746946947037155 0.8340744938070453 0
794 0.7069913323161016 -1.191569269127544 0
795 1.840822792181762 -0.7454101042361084 0
796 0.4878309413458634 0.6959123372396583 0
797 1.054529113902093 -2.203036753717678 0
798 1.077601981460748 -0.2341785098759276 0
799 1.724015272459248 -0.6036052912965929 0
800 1.795001286772208 -0.5329085161582005 0
801 1.713442683258613 -1.199180681039059 0
802 1.713395007290117 0.5977358122802574 0
803 0.8505947719556111 -1.057819846143899 0
804 1.628309222011133 0.4058960820089211 0
805 0.1615610850429486 -2.263370393662401 0
806 0.1608822536212685 2.2633003984775 0
807 0.8993366399070895 1.625364946704072 0
808 0.9003144040442731 -1.625390885726119 0
809 1.479234094857817 1.307424350183489 0
810 1.469293559835962 -1.309980240293831 0
811 1.409316762878093 -2.004852281252187 0
812 1.037576159982755 0.9455484057968807 0
813 0.2355346718765642 1.241609520413861 0
814 2.046797060750555 -0.7796190654608958 0
815 0.7875467431340978 -1.17738889886129 0
816 1.814561149235874 -0.6560782042881943 0
817 0.1413484237706459 1.82244942978146 0
818 0.1412789023310508 -1.822701531966988 0
819 0.4959775920267202 -0.03420744318591561 0
820 1.798417058273013 1.667687003370504 0
821 1.12029848422559 -0.1471109389201055 0
822 1.830353243638546 -0.9915275509896937 0
823 0.3953008389883031 0.4871796575536322 0
824 2.009444199774968 -1.244440093611112 0
825 0.2245439060047619 0.7757047300522016 0
826 1.571445098689399 -1.537387853468944 0
827 0.2219440659032347 -0.7917326446056854 0
828 1.39992724101724 2.010282079510361 0
829 0.1366640223023834 -0.3847980755937396 0
830 1.190270187616556 0.4605723036413206 0
831 0.8784563567299316 0.5149442241156542 0
832 1.032783152942793 -0.314222657961914 0
833 0.6296276349392798 -0.8663002057645649 0
834 0.3455385807396016 -2.178316517241533 0
835 1.061869227237372 -1.021876271180266 0
836 1.776703764896333 0.5293924678855377 0
837 0.2518242514081927 -1.015318962927322 0
838 1.99006979749638 1.493562468741962 0
839 1.977597361828012 -0.5347300905320657 0
840 0.2350050278517195 -0.07746054049583498 0
841 0.3468817680511749 2.186768387653828 0
842 2.09807929151379 1.143844906596017 0
843 0.7459324817105022 -0.5555496184600769 0
844 0.9888086736287172 -0.3905527384876531 0
845 0.7592899594709882 1.168615194424254 0
846 1.989983692356033 -1.494514706136471 0
847 0.4859082726496741 -1.422285885802418 0
848 0.272090854842342 0.4944310241775765 0
849 1.079021077378354 -0.625906954973956 0
850 1.739031988553475 0.4237444823596949 0
851 1.391854513685313 0.6671782756159716 0
852 2.241128520047072 0.01978849640661282 0
853 0.3233874782760473 1.02382739573035 0
854 0.262590902745055 0.9678065206280017 0
855 1.832636137108383 -1.65844324485502 0
856 1.777536701361712 0.9904180970044181 0
857 0.5020133437868508 1.469822196759997 0
858 0.3358589203256247 -1.118156763043586 0
859 0.1294993707394009 0.1254986930554334 0
860 0.9409123214161953 0.9307693616672642 0
861 1.331565597620334 -0.2616435100214238 0
862 1.299303718572453 0.02380308377622605 0
863 0.2278797730196231 0.5931116996754419 0
864 0.1509149828430835 -0.2621075735463534 0
865 1.212161735616297 0.02036416785371673 0
866 0.615519869728373 0.8885177486465932 0
867 1.031630338353019 1.218453809571908 0
868 1.810966627612586 1.175177270665662 0
869 0.7158332365755099 -1.123178070815225 0
870 1.770402962889282 -0.7350085936236359 0
871 1.767750793683706 0.7380647409049255 0
872 0.3873546591547115 1.080315120949421 0
873 1.784155733671362 0.611463842900314 0
874 1.818926548283857 0.6757080589670272 0
875 2.109530472074951 -1.116995363762387 0
876 2.14188886902541 -0.4491020046215011 0
877 1.25239107287253 0.5384044751040331 0
878 0.4018172063025472 -0.04156121422579178 0
879 1.920225592574972 -1.288210233064564 0
880 0.4593484698504175 -1.847413557455178 0
881 1.376677554950715 0.02851245656057677 0
882 1.161068821688742 -0.06245259526074479 0
883 0.4594541699229792 1.846533925107125 0
884 0.2246214966535576 -0.6009803600948868 0
885 0.4806689817162162 -0.4291998676221232 0
886 0.9730988001612469 -1.852210742653148 0
887 0.971793722627161 1.853366696779166 0
888 0.4887085375090849 0.4379017970144499 0
889 2.175847180415629 0.4900249041248197 0
890 0.7298610653938807 -0.7489992686558029 0
891 1.421765739863446 0.9310206330199753 0
892 1.242585818178801 -0.1798494755433431 0
893 0.2273025692414946 0.4012375709064882 0
894 1.810596268817371 -0.1147953067045067 0
895 1.56767418661645 -1.675273380748411 0
896 1.253050646752482 -1.092262317838616 0
897 0.2267847900139784 1.560878125813427 0
898 0.2251922011252792 -1.556295117006162 0
899 1.409531897372985 0.09495766718811613 0
900 2.331607404251991 0.8842091679164681 0
901 0.5636686114371803 1.335375899618398 0
902 0.5439808096804899 0.8662508145710967 0
903 1.418726628231268 -0.8355591443663262 0
904 2.219386609935586 -0.8493692838017787 0
905 0.1428519808673124 2.448625029504456 0
906 0.1428519808673123 -2.448625029504456 0
907 1.030382620775273 -0.450980188913245 0
908 1.433870099523657 1.509436484609249 0
909 0.075819684998141 1.131597213406168 0
910 0.8418465265584936 -1.233936189075859 0
911 1.839890083853222 0.9725841503048616 0
912 0.08043206728531987 1.028808191871417 0
913 0.7983014586238452 1.338522988729297 0
914 1.735289545513394 1.793960294891924 0
915 1.888880955287492 -0.9010051556805582 0
916 1.629633949596571 0.06235010130852035 0
917 0.2169910444866539 0.02940077619710076 0
918 2.147149978547976 -0.6286767446685754 0
919 0.8705760116423209 0.7866005740331838 0
920 1.446345167482229 -0.920004284766175 0
921 0.1325165101320939 0.2505528293570586 0
922 0.2535071143846411 -0.5008644514354688 0
923 1.448648422429318 -1.743783969257727 0
924 1.765079224761948 1.053433090319206 0
$EndNodes
$Elements
1846
1 1 2 1 1 1 20
2 1 2 1 1 20 21
3 1 2 1 1 21 22
4 1 2 1 1 22 23
5 1 2 1 1 23 24
6 1 2 1 1 24 25
7 1 2 1 1 25 26
8 1 2 1 1 26 27
9 1 2 1 1 27 28
10 1 2 1 1 28 29
11 1 2 1 1 29 30
12 1 2 1 1 30 31
13 1 2 1 1 31 32
14 1 2 1 1 32 33
15 1 2 1 1 33 34
16 1 2 1 1 34 35
17 1 2 1 1 35 36
18 1 2 1 1 36 37
19 1 2 1 1 37 38
20 1 2 1 1 38 39
21 1 2 1 1 39 2
22 1 2 2 2 1 40
23 1 2 2 2 40 41
24 1 2 2 2 41 42
25 1 2 2 2 42 43
26 1 2 2 2 43 44
27 1 2 2 2 44 45
28 1 2 2 2 45 46
29 1 2 2 2 46 47
30 1 2 2 2 47 48
31 1 2 2 2 48 49
32 1 2 2 2 49 50
33 1 2 2 2 50 51
34 1 2 2 2 51 52
35 1 2 2 2 52 53
36 1 2 2 2 53 54
37 1 2 2 2 54 55
38 1 2 2 2 55 56
39 1 2 2 2 56 57
40 1 2 2 2 57 58
41 1 2 2 2 58 59
42 1 2 2 2 59 60
43 1 2 2 2 60 61
44 1 2 2 2 61 62
45 1 2 2 2 62 63
46 1 2 2 2 63 64
47 1 2 2 2 64 65
48 1 2 2 2 65 66
49 1 2 2 2 66 67
50 1 2 2 2 67 3
51 1 2 1 3 2 68
52 1 2 1 3 68 69
53 1 2 1 3 69 70
54 1 2 1 3 70 71
55 1 2 1 3 71 72
56 1 2 1 3 72 73
57 1 2 1 3 73 74
58 1 2 1 3 74 75
59 1 2 1 3 75 76
60 1 2 1 3 76 77
61 1 2 1 3 77 78
62 1 2 1 3 78 79
63 1 2 1 3 79 80
64 1 2 1 3 80 81
65 1 2 1 3 81 82
66 1 2 1 3 82 83
67 1 2 1 3 83 84
68 1 2 1 3 84 85
69 1 2 1 3 85 86
70 1 2 1 3 86 87
71 1 2 1 3 87 3
72 2 2 10 2 17 105 100
73 2 2 10 2 101 105 17
74 2 2 10 2 19 106 102
75 2 2 10 2 103 106 19
76 2 2 10 2 16 104 103
77 2 2 10 2 18 107 101
78 2 2 10 2 100 104 16
79 2 2 10 2 102 107 18
80 2 2 10 2 106 107 102
81 2 2 10 2 104 106 103
82 2 2 10 2 100 105 104
83 2 2 10 2 101 107 105
84 2 2 10 2 105 106 104
85 2 2 10 2 105 107 106
86 2 2 11 3 93 109 9
87 2 2 11 3 9 109 92
88 2 2 11 3 11 110 94
89 2 2 11 3 95 110 11
90 2 2 11 3 8 108 95
91 2 2 11 3 10 111 93
92 2 2 11 3 92 108 8
93 2 2 11 3 94 111 10
94 2 2 11 3 108 110 95
95 2 2 11 3 110 111 94
96 2 2 11 3 93 111 109
97 2 2 11 3 92 109 108
98 2 2 11 3 109 110 108
99 2 2 11 3 109 111 110
100 2 2 12 4 14 113 97
101 2 2 12 4 98 113 14
102 2 2 12 4 12 114 99
103 2 2 12 4 96 114 12
104 2 2 12 4 13 112 96
105 2 2 12 4 15 115 98
106 2 2 12 4 97 112 13
107 2 2 12 4 99 115 15
108 2 2 12 4 114 115 99
109 2 2 12 4 112 114 96
110 2 2 12 4 97 113 112
111 2 2 12 4 98 115 113
112 2 2 12 4 113 114 112
113 2 2 12 4 113 115 114
114 2 2 13 5 90 117 6
115 2 2 13 5 6 117 89
116 2 2 13 5 88 118 4
117 2 2 13 5 4 118 91
118 2 2 13 5 89 116 5
119 2 2 13 5 91 119 7
120 2 2 13 5 5 116 88
121 2 2 13 5 7 119 90
122 2 2 13 5 118 119 91
123 2 2 13 5 116 118 88
124 2 2 13 5 89 117 116
125 2 2 13 5 90 119 117
126 2 2 13 5 117 118 116
127 2 2 13 5 117 119 118
128 2 2 1 6 735 813 694
129 2 2 1 6 560 695 409
130 2 2 1 6 750 751 717
131 2 2 1 6 48 591 520
132 2 2 1 6 799 816 800
133 2 2 1 6 682 833 416
134 2 2 1 6 508 698 564
135 2 2 1 6 687 688 271
136 2 2 1 6 591 621 520
137 2 2 1 6 416 615 539
138 2 2 1 6 281 600 540
139 2 2 1 6 751 752 436
140 2 2 1 6 752 753 436
141 2 2 1 6 829 922 589
142 2 2 1 6 540 601 281
143 2 2 1 6 548 732 549
144 2 2 1 6 169 816 799
145 2 2 1 6 571 663 365
146 2 2 1 6 746 747 437
147 2 2 1 6 572 574 367
148 2 2 1 6 580 854 662
149 2 2 1 6 610 611 576
150 2 2 1 6 437 748 746
151 2 2 1 6 442 710 693
152 2 2 1 6 559 891 701
153 2 2 1 6 163 687 271
154 2 2 1 6 289 682 416
155 2 2 1 6 348 723 570
156 2 2 1 6 352 618 326
157 2 2 1 6 590 591 47
158 2 2 1 6 544 732 548
159 2 2 1 6 594 813 735
160 2 2 1 6 564 698 279
161 2 2 1 6 667 669 418
162 2 2 1 6 320 718 702
163 2 2 1 6 393 601 540
164 2 2 1 6 537 538 341
165 2 2 1 6 772 801 317
166 2 2 1 6 626 867 464
167 2 2 1 6 780 847 536
168 2 2 1 6 715 884 240
169 2 2 1 6 395 601 393
170 2 2 1 6 669 916 339
171 2 2 1 6 229 863 714
172 2 2 1 6 147 686 154
173 2 2 1 6 201 681 239
174 2 2 1 6 167 757 354
175 2 2 1 6 296 605 545
176 2 2 1 6 6 681 90
177 2 2 1 6 4 686 88
178 2 2 1 6 544 548 487
179 2 2 1 6 365 582 571
180 2 2 1 6 611 842 576
181 2 2 1 6 544 890 732
182 2 2 1 6 569 716 347
183 2 2 1 6 747 749 724
184 2 2 1 6 464 867 561
185 2 2 1 6 345 837 741
186 2 2 1 6 204 757 167
187 2 2 1 6 558 904 726
188 2 2 1 6 567 764 337
189 2 2 1 6 211 765 340
190 2 2 1 6 71 600 281
191 2 2 1 6 340 765 592
192 2 2 1 6 559 701 481
193 2 2 1 6 340 592 583
194 2 2 1 6 271 780 198
195 2 2 1 6 197 781 272
196 2 2 1 6 222 765 211
197 2 2 1 6 337 764 360
198 2 2 1 6 495 815 707
199 2 2 1 6 198 780 216
200 2 2 1 6 215 781 197
201 2 2 1 6 695 696 409
202 2 2 1 6 549 732 214
203 2 2 1 6 527 829 589
204 2 2 1 6 473 903 760
205 2 2 1 6 517 721 596
206 2 2 1 6 669 894 418
207 2 2 1 6 592 891 568
208 2 2 1 6 689 847 688
209 2 2 1 6 587 775 228
210 2 2 1 6 221 792 263
211 2 2 1 6 470 591 590
212 2 2 1 6 50 715 240
213 2 2 1 6 229 714 57
214 2 2 1 6 71 900 600
215 2 2 1 6 367 611 74
216 2 2 1 6 497 667 563
217 2 2 1 6 280 792 221
218 2 2 1 6 46 590 47
219 2 2 1 6 543 618 352
220 2 2 1 6 473 760 605
221 2 2 1 6 322 680 623
222 2 2 1 6 783 908 350
223 2 2 1 6 213 709 220
224 2 2 1 6 580 662 300
225 2 2 1 6 751 754 717
226 2 2 1 6 348 811 723
227 2 2 1 6 70 602 69
228 2 2 1 6 470 837 591
229 2 2 1 6 8 537 193
230 2 2 1 6 148 710 690
231 2 2 1 6 384 711 683
232 2 2 1 6 717 776 750
233 2 2 1 6 347 717 569
234 2 2 1 6 570 724 348
235 2 2 1 6 228 759 587
236 2 2 1 6 558 726 512
237 2 2 1 6 562 736 448
238 2 2 1 6 160 595 171
239 2 2 1 6 563 666 497
240 2 2 1 6 510 668 411
241 2 2 1 6 98 690 15
242 2 2 1 6 99 685 12
243 2 2 1 6 10 584 94
244 2 2 1 6 100 684 17
245 2 2 1 6 5 585 89
246 2 2 1 6 11 429 95
247 2 2 1 6 96 683 13
248 2 2 1 6 19 713 103
249 2 2 1 6 668 916 669
250 2 2 1 6 626 649 447
251 2 2 1 6 800 816 588
252 2 2 1 6 693 767 442
253 2 2 1 6 341 709 213
254 2 2 1 6 773 907 771
255 2 2 1 6 539 614 416
256 2 2 1 6 300 662 59
257 2 2 1 6 462 772 317
258 2 2 1 6 416 833 615
259 2 2 1 6 152 595 160
260 2 2 1 6 594 735 61
261 2 2 1 6 626 729 649
262 2 2 1 6 418 761 667
263 2 2 1 6 240 922 829
264 2 2 1 6 545 738 296
265 2 2 1 6 702 718 526
266 2 2 1 6 224 598 234
267 2 2 1 6 581 900 328
268 2 2 1 6 538 586 341
269 2 2 1 6 456 780 536
270 2 2 1 6 326 618 290
271 2 2 1 6 707 803 495
272 2 2 1 6 125 565 202
273 2 2 1 6 725 835 706
274 2 2 1 6 772 879 699
275 2 2 1 6 328 610 581
276 2 2 1 6 325 613 276
277 2 2 1 6 649 845 742
278 2 2 1 6 619 753 399
279 2 2 1 6 724 756 747
280 2 2 1 6 621 837 345
281 2 2 1 6 596 851 517
282 2 2 1 6 602 889 468
283 2 2 1 6 400 748 620
284 2 2 1 6 600 900 581
285 2 2 1 6 304 733 691
286 2 2 1 6 380 551 484
287 2 2 1 6 623 680 479
288 2 2 1 6 615 768 189
289 2 2 1 6 367 670 572
290 2 2 1 6 582 689 571
291 2 2 1 6 154 687 163
292 2 2 1 6 239 682 289
293 2 2 1 6 156 789 739
294 2 2 1 6 740 787 236
295 2 2 1 6 686 687 154
296 2 2 1 6 681 682 239
297 2 2 1 6 542 892 578
298 2 2 1 6 499 841 755
299 2 2 1 6 365 663 45
300 2 2 1 6 568 891 559
301 2 2 1 6 325 703 613
302 2 2 1 6 561 678 464
303 2 2 1 6 553 817 778
304 2 2 1 6 777 818 552
305 2 2 1 6 456 536 531
306 2 2 1 6 532 535 458
307 2 2 1 6 578 821 542
308 2 2 1 6 193 537 341
309 2 2 1 6 47 591 48
310 2 2 1 6 745 834 498
311 2 2 1 6 487 843 544
312 2 2 1 6 461 573 572
313 2 2 1 6 706 835 356
314 2 2 1 6 601 889 602
315 2 2 1 6 571 689 425
316 2 2 1 6 573 575 574
317 2 2 1 6 667 761 563
318 2 2 1 6 367 842 611
319 2 2 1 6 564 772 699
320 2 2 1 6 716 828 347
321 2 2 1 6 595 877 597
322 2 2 1 6 484 551 508
323 2 2 1 6 157 710 148
324 2 2 1 6 386 711 384
325 2 2 1 6 95 537 8
326 2 2 1 6 618 628 598
327 2 2 1 6 504 852 761
328 2 2 1 6 74 611 73
329 2 2 1 6 726 904 303
330 2 2 1 6 602 603 69
331 2 2 1 6 557 696 695
332 2 2 1 6 508 822 698
333 2 2 1 6 778 817 64
334 2 2 1 6 43 818 777
335 2 2 1 6 461 868 573
336 2 2 1 6 448 725 562
337 2 2 1 6 595 597 171
338 2 2 1 6 662 912 59
339 2 2 1 6 290 598 230
340 2 2 1 6 688 847 271
341 2 2 1 6 525 864 527
342 2 2 1 6 673 674 575
343 2 2 1 6 557 923 696
344 2 2 1 6 77 820 731
345 2 2 1 6 484 508 507
346 2 2 1 6 565 568 202
347 2 2 1 6 535 857 458
348 2 2 1 6 427 762 529
349 2 2 1 6 710 901 693
350 2 2 1 6 749 797 724
351 2 2 1 6 512 814 558
352 2 2 1 6 468 603 602
353 2 2 1 6 214 738 549
354 2 2 1 6 615 833 768
355 2 2 1 6 350 908 679
356 2 2 1 6 462 879 772
357 2 2 1 6 761 852 599
358 2 2 1 6 230 598 224
359 2 2 1 6 414 807 554
360 2 2 1 6 556 808 413
361 2 2 1 6 350 809 783
362 2 2 1 6 411 668 497
363 2 2 1 6 88 686 147
364 2 2 1 6 90 681 201
365 2 2 1 6 476 773 771
366 2 2 1 6 469 663 571
367 2 2 1 6 755 841 752
368 2 2 1 6 305 326 290
369 2 2 1 6 409 810 560
370 2 2 1 6 517 625 559
371 2 2 1 6 573 673 575
372 2 2 1 6 463 791 727
373 2 2 1 6 380 915 551
374 2 2 1 6 148 690 98
375 2 2 1 6 245 685 99
376 2 2 1 6 89 585 126
377 2 2 1 6 94 584 120
378 2 2 1 6 121 684 100
379 2 2 1 6 384 683 96
380 2 2 1 6 103 713 428
381 2 2 1 6 534 727 672
382 2 2 1 6 532 622 535
383 2 2 1 6 536 582 531
384 2 2 1 6 356 707 706
385 2 2 1 6 448 736 560
386 2 2 1 6 224 234 223
387 2 2 1 6 152 160 159
388 2 2 1 6 366 694 622
389 2 2 1 6 649 742 421
390 2 2 1 6 604 864 525
391 2 2 1 6 536 847 689
392 2 2 1 6 746 834 745
393 2 2 1 6 598 628 234
394 2 2 1 6 150 624 452
395 2 2 1 6 565 583 568
396 2 2 1 6 429 537 95
397 2 2 1 6 146 774 758
398 2 2 1 6 566 872 853
399 2 2 1 6 753 841 399
400 2 2 1 6 866 902 627
401 2 2 1 6 592 765 445
402 2 2 1 6 400 834 748
403 2 2 1 6 36 652 303
404 2 2 1 6 290 618 598
405 2 2 1 6 32 612 412
406 2 2 1 6 572 670 513
407 2 2 1 6 590 663 469
408 2 2 1 6 419 761 599
409 2 2 1 6 559 625 568
410 2 2 1 6 654 655 505
411 2 2 1 6 573 574 572
412 2 2 1 6 416 614 344
413 2 2 1 6 691 733 501
414 2 2 1 6 674 697 676
415 2 2 1 6 707 910 490
416 2 2 1 6 277 290 230
417 2 2 1 6 517 559 481
418 2 2 1 6 374 721 517
419 2 2 1 6 624 770 627
420 2 2 1 6 470 858 741
421 2 2 1 6 433 800 588
422 2 2 1 6 303 609 35
423 2 2 1 6 58 300 59
424 2 2 1 6 48 520 49
425 2 2 1 6 616 855 30
426 2 2 1 6 366 735 694
427 2 2 1 6 694 813 426
428 2 2 1 6 257 603 599
429 2 2 1 6 859 917 779
430 2 2 1 6 338 351 326
431 2 2 1 6 588 839 433
432 2 2 1 6 356 803 707
433 2 2 1 6 62 366 63
434 2 2 1 6 44 365 45
435 2 2 1 6 497 668 667
436 2 2 1 6 281 602 70
437 2 2 1 6 607 840 524
438 2 2 1 6 605 760 545
439 2 2 1 6 199 224 223
440 2 2 1 6 152 159 151
441 2 2 1 6 739 789 515
442 2 2 1 6 516 787 740
443 2 2 1 6 706 707 490
444 2 2 1 6 349 678 561
445 2 2 1 6 610 785 581
446 2 2 1 6 50 240 51
447 2 2 1 6 56 229 57
448 2 2 1 6 554 887 414
449 2 2 1 6 413 886 556
450 2 2 1 6 362 629 476
451 2 2 1 6 53 149 54
452 2 2 1 6 618 861 628
453 2 2 1 6 815 869 794
454 2 2 1 6 816 870 795
455 2 2 1 6 627 902 500
456 2 2 1 6 673 675 674
457 2 2 1 6 652 726 303
458 2 2 1 6 36 303 35
459 2 2 1 6 220 709 269
460 2 2 1 6 34 329 33
461 2 2 1 6 75 367 74
462 2 2 1 6 339 722 669
463 2 2 1 6 583 592 568
464 2 2 1 6 398 666 563
465 2 2 1 6 589 922 763
466 2 2 1 6 131 775 122
467 2 2 1 6 73 328 72
468 2 2 1 6 726 918 512
469 2 2 1 6 32 412 31
470 2 2 1 6 563 761 419
471 2 2 1 6 672 727 410
472 2 2 1 6 254 595 152
473 2 2 1 6 743 800 433
474 2 2 1 6 792 868 461
475 2 2 1 6 71 281 70
476 2 2 1 6 596 877 595
477 2 2 1 6 351 352 326
478 2 2 1 6 46 663 590
479 2 2 1 6 234 268 223
480 2 2 1 6 741 837 470
481 2 2 1 6 123 565 125
482 2 2 1 6 279 772 564
483 2 2 1 6 322 716 680
484 2 2 1 6 199 223 146
485 2 2 1 6 141 152 151
486 2 2 1 6 160 166 165
487 2 2 1 6 270 653 652
488 2 2 1 6 575 676 576
489 2 2 1 6 266 757 204
490 2 2 1 6 296 606 605
491 2 2 1 6 30 855 29
492 2 2 1 6 38 270 37
493 2 2 1 6 617 734 375
494 2 2 1 6 821 882 641
495 2 2 1 6 599 603 468
496 2 2 1 6 160 165 159
497 2 2 1 6 701 891 445
498 2 2 1 6 122 775 429
499 2 2 1 6 622 692 535
500 2 2 1 6 53 604 149
501 2 2 1 6 758 774 518
502 2 2 1 6 305 338 326
503 2 2 1 6 615 890 539
504 2 2 1 6 37 652 36
505 2 2 1 6 538 775 587
506 2 2 1 6 73 611 328
507 2 2 1 6 2 719 39
508 2 2 1 6 624 627 432
509 2 2 1 6 360 764 394
510 2 2 1 6 265 765 222
511 2 2 1 6 536 689 582
512 2 2 1 6 574 842 367
513 2 2 1 6 314 456 371
514 2 2 1 6 369 458 315
515 2 2 1 6 784 827 621
516 2 2 1 6 376 490 266
517 2 2 1 6 277 305 290
518 2 2 1 6 489 636 486
519 2 2 1 6 61 735 62
520 2 2 1 6 576 782 610
521 2 2 1 6 782 785 610
522 2 2 1 6 460 462 317
523 2 2 1 6 316 461 435
524 2 2 1 6 338 463 351
525 2 2 1 6 458 857 781
526 2 2 1 6 344 614 427
527 2 2 1 6 519 737 609
528 2 2 1 6 459 532 458
529 2 2 1 6 456 531 457
530 2 2 1 6 234 301 268
531 2 2 1 6 216 780 314
532 2 2 1 6 315 781 215
533 2 2 1 6 762 763 529
534 2 2 1 6 150 770 624
535 2 2 1 6 324 657 438
536 2 2 1 6 561 617 375
537 2 2 1 6 575 576 574
538 2 2 1 6 692 694 426
539 2 2 1 6 298 445 265
540 2 2 1 6 269 444 401
541 2 2 1 6 394 533 396
542 2 2 1 6 482 665 291
543 2 2 1 6 853 872 382
544 2 2 1 6 380 484 483
545 2 2 1 6 583 713 340
546 2 2 1 6 350 678 349
547 2 2 1 6 78 820 77
548 2 2 1 6 461 572 513
549 2 2 1 6 578 882 821
550 2 2 1 6 433 434 391
551 2 2 1 6 263 792 316
552 2 2 1 6 160 171 166
553 2 2 1 6 362 476 466
554 2 2 1 6 69 603 68
555 2 2 1 6 234 628 301
556 2 2 1 6 674 676 575
557 2 2 1 6 306 433 391
558 2 2 1 6 488 489 486
559 2 2 1 6 52 604 53
560 2 2 1 6 510 916 668
561 2 2 1 6 508 564 507
562 2 2 1 6 374 517 481
563 2 2 1 6 617 812 734
564 2 2 1 6 509 824 612
565 2 2 1 6 271 847 780
566 2 2 1 6 676 782 576
567 2 2 1 6 141 254 152
568 2 2 1 6 351 430 352
569 2 2 1 6 270 652 37
570 2 2 1 6 692 693 535
571 2 2 1 6 34 609 329
572 2 2 1 6 670 838 513
573 2 2 1 6 763 922 529
574 2 2 1 6 301 420 372
575 2 2 1 6 14 789 156
576 2 2 1 6 16 428 123
577 2 2 1 6 236 787 7
578 2 2 1 6 9 822 790
579 2 2 1 6 329 612 33
580 2 2 1 6 612 824 412
581 2 2 1 6 415 708 613
582 2 2 1 6 306 743 433
583 2 2 1 6 589 763 702
584 2 2 1 6 324 438 358
585 2 2 1 6 223 774 146
586 2 2 1 6 301 372 302
587 2 2 1 6 613 703 521
588 2 2 1 6 436 754 751
589 2 2 1 6 301 628 420
590 2 2 1 6 514 859 779
591 2 2 1 6 331 482 291
592 2 2 1 6 655 719 505
593 2 2 1 6 747 756 437
594 2 2 1 6 235 626 464
595 2 2 1 6 525 840 604
596 2 2 1 6 505 852 504
597 2 2 1 6 327 404 285
598 2 2 1 6 597 712 171
599 2 2 1 6 676 697 361
600 2 2 1 6 653 726 652
601 2 2 1 6 171 172 166
602 2 2 1 6 719 852 505
603 2 2 1 6 744 823 482
604 2 2 1 6 430 431 352
605 2 2 1 6 399 817 619
606 2 2 1 6 620 818 400
607 2 2 1 6 412 879 648
608 2 2 1 6 247 630 209
609 2 2 1 6 420 422 372
610 2 2 1 6 209 630 180
611 2 2 1 6 414 754 368
612 2 2 1 6 55 700 56
613 2 2 1 6 248 249 247
614 2 2 1 6 233 247 209
615 2 2 1 6 68 603 257
616 2 2 1 6 731 838 77
617 2 2 1 6 629 773 476
618 2 2 1 6 630 643 180
619 2 2 1 6 649 729 353
620 2 2 1 6 172 173 166
621 2 2 1 6 249 403 247
622 2 2 1 6 57 714 58
623 2 2 1 6 49 715 50
624 2 2 1 6 631 643 630
625 2 2 1 6 248 250 249
626 2 2 1 6 431 543 352
627 2 2 1 6 430 577 431
628 2 2 1 6 658 660 640
629 2 2 1 6 631 646 643
630 2 2 1 6 65 399 66
631 2 2 1 6 41 400 42
632 2 2 1 6 250 251 249
633 2 2 1 6 422 423 372
634 2 2 1 6 233 248 247
635 2 2 1 6 300 825 580
636 2 2 1 6 404 650 285
637 2 2 1 6 172 174 173
638 2 2 1 6 403 630 247
639 2 2 1 6 577 578 431
640 2 2 1 6 250 273 251
641 2 2 1 6 63 778 64
642 2 2 1 6 43 777 44
643 2 2 1 6 422 541 423
644 2 2 1 6 270 654 653
645 2 2 1 6 174 405 173
646 2 2 1 6 172 175 174
647 2 2 1 6 403 631 630
648 2 2 1 6 273 274 251
649 2 2 1 6 422 542 541
650 2 2 1 6 541 550 423
651 2 2 1 6 450 704 363
652 2 2 1 6 856 924 190
653 2 2 1 6 175 176 174
654 2 2 1 6 405 534 173
655 2 2 1 6 403 632 631
656 2 2 1 6 274 283 251
657 2 2 1 6 405 546 534
658 2 2 1 6 175 177 176
659 2 2 1 6 274 284 283
660 2 2 1 6 177 178 176
661 2 2 1 6 405 547 546
662 2 2 1 6 284 285 283
663 2 2 1 6 178 179 176
664 2 2 1 6 177 180 178
665 2 2 1 6 178 181 179
666 2 2 1 6 177 208 180
667 2 2 1 6 181 182 179
668 2 2 1 6 208 209 180
669 2 2 1 6 181 183 182
670 2 2 1 6 183 184 182
671 2 2 1 6 183 185 184
672 2 2 1 6 184 196 182
673 2 2 1 6 183 200 185
674 2 2 1 6 185 186 184
675 2 2 1 6 185 639 188
676 2 2 1 6 185 188 186
677 2 2 1 6 200 639 185
678 2 2 1 6 188 206 186
679 2 2 1 6 188 207 206
680 2 2 1 6 207 241 206
681 2 2 1 6 207 637 243
682 2 2 1 6 188 637 207
683 2 2 1 6 241 255 206
684 2 2 1 6 207 242 241
685 2 2 1 6 242 635 241
686 2 2 1 6 241 282 255
687 2 2 1 6 207 243 242
688 2 2 1 6 243 244 242
689 2 2 1 6 355 357 260
690 2 2 1 6 493 656 357
691 2 2 1 6 244 258 242
692 2 2 1 6 243 260 244
693 2 2 1 6 357 454 260
694 2 2 1 6 244 259 258
695 2 2 1 6 292 455 258
696 2 2 1 6 355 493 357
697 2 2 1 6 243 355 260
698 2 2 1 6 259 293 292
699 2 2 1 6 294 319 293
700 2 2 1 6 259 292 258
701 2 2 1 6 355 494 493
702 2 2 1 6 244 633 259
703 2 2 1 6 259 294 293
704 2 2 1 6 259 633 294
705 2 2 1 6 454 633 260
706 2 2 1 6 260 633 244
707 2 2 1 6 241 635 282
708 2 2 1 6 258 635 242
709 2 2 1 6 455 635 258
710 2 2 1 6 243 637 355
711 2 2 1 6 455 636 635
712 2 2 1 6 635 636 282
713 2 2 1 6 355 637 494
714 2 2 1 6 206 638 186
715 2 2 1 6 255 638 206
716 2 2 1 6 188 639 637
717 2 2 1 6 637 639 494
718 2 2 1 6 184 641 196
719 2 2 1 6 186 641 184
720 2 2 1 6 639 640 494
721 2 2 1 6 200 640 639
722 2 2 1 6 638 641 186
723 2 2 1 6 175 642 177
724 2 2 1 6 177 642 208
725 2 2 1 6 180 643 178
726 2 2 1 6 273 665 274
727 2 2 1 6 178 643 181
728 2 2 1 6 174 644 405
729 2 2 1 6 176 644 174
730 2 2 1 6 179 644 176
731 2 2 1 6 405 644 547
732 2 2 1 6 444 473 472
733 2 2 1 6 196 645 182
734 2 2 1 6 179 645 644
735 2 2 1 6 644 645 547
736 2 2 1 6 249 647 403
737 2 2 1 6 183 646 200
738 2 2 1 6 643 646 181
739 2 2 1 6 182 645 179
740 2 2 1 6 403 647 632
741 2 2 1 6 251 647 249
742 2 2 1 6 181 646 183
743 2 2 1 6 415 613 521
744 2 2 1 6 646 651 200
745 2 2 1 6 283 647 251
746 2 2 1 6 633 634 294
747 2 2 1 6 454 634 633
748 2 2 1 6 165 672 410
749 2 2 1 6 631 651 646
750 2 2 1 6 632 651 631
751 2 2 1 6 647 650 632
752 2 2 1 6 283 650 647
753 2 2 1 6 404 660 658
754 2 2 1 6 269 709 444
755 2 2 1 6 173 672 166
756 2 2 1 6 484 507 506
757 2 2 1 6 404 658 650
758 2 2 1 6 298 701 445
759 2 2 1 6 285 650 283
760 2 2 1 6 200 651 640
761 2 2 1 6 301 302 268
762 2 2 1 6 534 672 173
763 2 2 1 6 640 660 494
764 2 2 1 6 318 327 285
765 2 2 1 6 650 658 632
766 2 2 1 6 824 879 412
767 2 2 1 6 166 672 165
768 2 2 1 6 420 661 422
769 2 2 1 6 632 658 651
770 2 2 1 6 357 656 491
771 2 2 1 6 357 491 454
772 2 2 1 6 235 729 626
773 2 2 1 6 232 233 209
774 2 2 1 6 651 658 640
775 2 2 1 6 477 895 720
776 2 2 1 6 493 664 656
777 2 2 1 6 692 767 693
778 2 2 1 6 551 822 508
779 2 2 1 6 208 232 209
780 2 2 1 6 494 660 493
781 2 2 1 6 444 709 586
782 2 2 1 6 422 661 542
783 2 2 1 6 327 664 404
784 2 2 1 6 430 862 577
785 2 2 1 6 606 835 725
786 2 2 1 6 609 737 329
787 2 2 1 6 862 865 577
788 2 2 1 6 642 657 208
789 2 2 1 6 770 866 627
790 2 2 1 6 345 784 621
791 2 2 1 6 56 700 229
792 2 2 1 6 502 921 514
793 2 2 1 6 345 741 740
794 2 2 1 6 700 921 502
795 2 2 1 6 29 720 28
796 2 2 1 6 404 664 660
797 2 2 1 6 771 907 489
798 2 2 1 6 490 757 266
799 2 2 1 6 284 318 285
800 2 2 1 6 732 890 189
801 2 2 1 6 423 629 372
802 2 2 1 6 370 756 413
803 2 2 1 6 35 609 34
804 2 2 1 6 372 629 302
805 2 2 1 6 486 636 455
806 2 2 1 6 33 612 32
807 2 2 1 6 490 910 757
808 2 2 1 6 208 657 232
809 2 2 1 6 330 730 331
810 2 2 1 6 175 712 642
811 2 2 1 6 727 791 510
812 2 2 1 6 660 664 493
813 2 2 1 6 543 861 618
814 2 2 1 6 336 697 218
815 2 2 1 6 212 698 192
816 2 2 1 6 51 829 52
817 2 2 1 6 171 712 172
818 2 2 1 6 428 565 123
819 2 2 1 6 308 747 746
820 2 2 1 6 307 752 751
821 2 2 1 6 688 769 689
822 2 2 1 6 314 780 456
823 2 2 1 6 458 781 315
824 2 2 1 6 274 304 284
825 2 2 1 6 274 665 304
826 2 2 1 6 54 859 55
827 2 2 1 6 62 735 366
828 2 2 1 6 517 851 625
829 2 2 1 6 225 230 224
830 2 2 1 6 368 754 436
831 2 2 1 6 28 323 27
832 2 2 1 6 80 322 79
833 2 2 1 6 68 257 2
834 2 2 1 6 21 498 20
835 2 2 1 6 82 347 81
836 2 2 1 6 23 308 22
837 2 2 1 6 26 348 25
838 2 2 1 6 85 307 84
839 2 2 1 6 87 499 86
840 2 2 1 6 394 764 533
841 2 2 1 6 445 765 265
842 2 2 1 6 859 921 55
843 2 2 1 6 612 875 509
844 2 2 1 6 589 702 526
845 2 2 1 6 127 681 6
846 2 2 1 6 238 686 4
847 2 2 1 6 668 669 667
848 2 2 1 6 621 827 520
849 2 2 1 6 527 589 526
850 2 2 1 6 316 792 461
851 2 2 1 6 447 649 421
852 2 2 1 6 165 410 195
853 2 2 1 6 303 904 609
854 2 2 1 6 257 719 2
855 2 2 1 6 608 800 743
856 2 2 1 6 254 596 595
857 2 2 1 6 560 736 695
858 2 2 1 6 607 917 840
859 2 2 1 6 292 485 455
860 2 2 1 6 500 730 627
861 2 2 1 6 202 705 133
862 2 2 1 6 712 830 642
863 2 2 1 6 823 888 482
864 2 2 1 6 369 459 458
865 2 2 1 6 456 457 371
866 2 2 1 6 328 611 610
867 2 2 1 6 613 831 276
868 2 2 1 6 614 762 427
869 2 2 1 6 689 769 425
870 2 2 1 6 75 670 367
871 2 2 1 6 231 277 230
872 2 2 1 6 76 670 75
873 2 2 1 6 433 839 434
874 2 2 1 6 293 677 292
875 2 2 1 6 449 450 363
876 2 2 1 6 701 734 481
877 2 2 1 6 495 869 815
878 2 2 1 6 169 870 816
879 2 2 1 6 723 923 557
880 2 2 1 6 410 510 411
881 2 2 1 6 291 665 273
882 2 2 1 6 525 526 523
883 2 2 1 6 461 513 435
884 2 2 1 6 460 648 462
885 2 2 1 6 485 486 455
886 2 2 1 6 153 794 585
887 2 2 1 6 332 795 584
888 2 2 1 6 501 503 502
889 2 2 1 6 294 320 319
890 2 2 1 6 319 321 293
891 2 2 1 6 661 892 542
892 2 2 1 6 720 855 477
893 2 2 1 6 24 749 23
894 2 2 1 6 465 679 555
895 2 2 1 6 294 634 320
896 2 2 1 6 410 727 510
897 2 2 1 6 172 712 175
898 2 2 1 6 426 767 692
899 2 2 1 6 521 624 432
900 2 2 1 6 196 882 865
901 2 2 1 6 526 718 523
902 2 2 1 6 121 871 684
903 2 2 1 6 585 869 126
904 2 2 1 6 245 872 685
905 2 2 1 6 584 870 120
906 2 2 1 6 492 634 454
907 2 2 1 6 693 901 272
908 2 2 1 6 446 812 617
909 2 2 1 6 376 562 490
910 2 2 1 6 437 756 370
911 2 2 1 6 539 890 544
912 2 2 1 6 351 881 430
913 2 2 1 6 491 492 454
914 2 2 1 6 45 663 46
915 2 2 1 6 302 629 362
916 2 2 1 6 664 704 656
917 2 2 1 6 364 501 451
918 2 2 1 6 400 818 42
919 2 2 1 6 65 817 399
920 2 2 1 6 829 864 52
921 2 2 1 6 61 909 594
922 2 2 1 6 597 830 712
923 2 2 1 6 417 418 342
924 2 2 1 6 586 709 341
925 2 2 1 6 318 363 327
926 2 2 1 6 423 773 629
927 2 2 1 6 823 848 503
928 2 2 1 6 498 834 805
929 2 2 1 6 484 506 483
930 2 2 1 6 58 714 300
931 2 2 1 6 520 715 49
932 2 2 1 6 428 713 583
933 2 2 1 6 327 704 664
934 2 2 1 6 674 911 697
935 2 2 1 6 538 587 586
936 2 2 1 6 72 900 71
937 2 2 1 6 806 841 499
938 2 2 1 6 550 773 423
939 2 2 1 6 533 671 396
940 2 2 1 6 444 472 401
941 2 2 1 6 530 579 475
942 2 2 1 6 427 529 528
943 2 2 1 6 55 921 700
944 2 2 1 6 280 924 673
945 2 2 1 6 66 806 67
946 2 2 1 6 40 805 41
947 2 2 1 6 708 831 613
948 2 2 1 6 826 895 477
949 2 2 1 6 133 705 141
950 2 2 1 6 155 794 153
951 2 2 1 6 334 795 332
952 2 2 1 6 759 903 587
953 2 2 1 6 199 225 224
954 2 2 1 6 18 911 856
955 2 2 1 6 39 719 655
956 2 2 1 6 361 697 336
957 2 2 1 6 279 698 212
958 2 2 1 6 353 845 649
959 2 2 1 6 727 899 463
960 2 2 1 6 795 870 584
961 2 2 1 6 794 869 585
962 2 2 1 6 232 657 324
963 2 2 1 6 678 679 465
964 2 2 1 6 518 759 758
965 2 2 1 6 363 704 327
966 2 2 1 6 319 346 321
967 2 2 1 6 724 797 348
968 2 2 1 6 145 199 146
969 2 2 1 6 141 151 140
970 2 2 1 6 23 749 308
971 2 2 1 6 430 881 862
972 2 2 1 6 542 821 798
973 2 2 1 6 531 552 457
974 2 2 1 6 459 553 532
975 2 2 1 6 364 691 501
976 2 2 1 6 205 235 227
977 2 2 1 6 226 266 204
978 2 2 1 6 562 706 490
979 2 2 1 6 165 195 159
980 2 2 1 6 250 275 273
981 2 2 1 6 360 394 393
982 2 2 1 6 220 269 262
983 2 2 1 6 264 265 222
984 2 2 1 6 187 189 144
985 2 2 1 6 424 580 474
986 2 2 1 6 235 913 729
987 2 2 1 6 653 876 659
988 2 2 1 6 379 480 334
989 2 2 1 6 158 353 168
990 2 2 1 6 343 345 288
991 2 2 1 6 138 228 131
992 2 2 1 6 125 202 133
993 2 2 1 6 167 354 155
994 2 2 1 6 374 481 467
995 2 2 1 6 292 677 485
996 2 2 1 6 764 874 533
997 2 2 1 6 680 716 555
998 2 2 1 6 248 708 250
999 2 2 1 6 228 775 131
1000 2 2 1 6 361 782 676
1001 2 2 1 6 189 890 615
1002 2 2 1 6 597 877 830
1003 2 2 1 6 579 744 475
1004 2 2 1 6 501 733 503
1005 2 2 1 6 524 840 525
1006 2 2 1 6 418 894 342
1007 2 2 1 6 398 563 419
1008 2 2 1 6 579 848 823
1009 2 2 1 6 347 776 717
1010 2 2 1 6 246 442 310
1011 2 2 1 6 211 340 191
1012 2 2 1 6 136 441 127
1013 2 2 1 6 130 194 139
1014 2 2 1 6 312 443 238
1015 2 2 1 6 193 341 213
1016 2 2 1 6 385 566 387
1017 2 2 1 6 335 567 337
1018 2 2 1 6 738 849 549
1019 2 2 1 6 305 339 338
1020 2 2 1 6 515 845 739
1021 2 2 1 6 321 677 293
1022 2 2 1 6 232 276 233
1023 2 2 1 6 38 655 270
1024 2 2 1 6 39 655 38
1025 2 2 1 6 331 744 482
1026 2 2 1 6 270 655 654
1027 2 2 1 6 284 691 318
1028 2 2 1 6 275 291 273
1029 2 2 1 6 679 680 555
1030 2 2 1 6 145 608 199
1031 2 2 1 6 151 295 140
1032 2 2 1 6 196 865 645
1033 2 2 1 6 345 740 288
1034 2 2 1 6 158 739 353
1035 2 2 1 6 253 315 215
1036 2 2 1 6 216 314 252
1037 2 2 1 6 307 755 752
1038 2 2 1 6 518 760 759
1039 2 2 1 6 30 846 616
1040 2 2 1 6 431 892 543
1041 2 2 1 6 420 861 661
1042 2 2 1 6 406 407 321
1043 2 2 1 6 304 691 284
1044 2 2 1 6 466 738 545
1045 2 2 1 6 302 362 313
1046 2 2 1 6 189 768 144
1047 2 2 1 6 424 766 580
1048 2 2 1 6 673 924 675
1049 2 2 1 6 28 720 323
1050 2 2 1 6 540 581 392
1051 2 2 1 6 161 356 203
1052 2 2 1 6 263 316 287
1053 2 2 1 6 286 317 261
1054 2 2 1 6 624 919 452
1055 2 2 1 6 661 861 543
1056 2 2 1 6 302 313 268
1057 2 2 1 6 601 602 281
1058 2 2 1 6 205 913 235
1059 2 2 1 6 505 728 654
1060 2 2 1 6 579 823 744
1061 2 2 1 6 307 751 750
1062 2 2 1 6 308 746 745
1063 2 2 1 6 428 583 565
1064 2 2 1 6 308 749 747
1065 2 2 1 6 543 892 661
1066 2 2 1 6 44 777 365
1067 2 2 1 6 366 778 63
1068 2 2 1 6 657 830 438
1069 2 2 1 6 696 826 409
1070 2 2 1 6 487 488 486
1071 2 2 1 6 267 376 266
1072 2 2 1 6 235 464 256
1073 2 2 1 6 232 324 276
1074 2 2 1 6 717 887 569
1075 2 2 1 6 570 886 724
1076 2 2 1 6 76 838 670
1077 2 2 1 6 398 671 666
1078 2 2 1 6 162 421 142
1079 2 2 1 6 197 272 164
1080 2 2 1 6 439 500 388
1081 2 2 1 6 163 271 198
1082 2 2 1 6 383 470 469
1083 2 2 1 6 289 416 344
1084 2 2 1 6 539 544 407
1085 2 2 1 6 616 648 460
1086 2 2 1 6 525 527 526
1087 2 2 1 6 449 607 450
1088 2 2 1 6 445 891 592
1089 2 2 1 6 714 863 530
1090 2 2 1 6 528 884 715
1091 2 2 1 6 362 466 408
1092 2 2 1 6 269 401 299
1093 2 2 1 6 394 396 395
1094 2 2 1 6 297 298 265
1095 2 2 1 6 330 331 291
1096 2 2 1 6 199 608 225
1097 2 2 1 6 350 679 678
1098 2 2 1 6 240 829 51
1099 2 2 1 6 225 231 230
1100 2 2 1 6 733 888 823
1101 2 2 1 6 373 703 325
1102 2 2 1 6 799 800 608
1103 2 2 1 6 491 522 492
1104 2 2 1 6 548 549 488
1105 2 2 1 6 489 844 636
1106 2 2 1 6 415 521 432
1107 2 2 1 6 434 728 391
1108 2 2 1 6 410 411 195
1109 2 2 1 6 368 369 315
1110 2 2 1 6 314 371 370
1111 2 2 1 6 231 278 277
1112 2 2 1 6 84 750 83
1113 2 2 1 6 22 745 21
1114 2 2 1 6 86 755 85
1115 2 2 1 6 275 415 330
1116 2 2 1 6 417 504 418
1117 2 2 1 6 375 701 298
1118 2 2 1 6 702 885 320
1119 2 2 1 6 625 851 705
1120 2 2 1 6 485 487 486
1121 2 2 1 6 333 380 378
1122 2 2 1 6 135 495 143
1123 2 2 1 6 210 280 221
1124 2 2 1 6 359 361 336
1125 2 2 1 6 129 169 137
1126 2 2 1 6 381 382 309
1127 2 2 1 6 219 279 212
1128 2 2 1 6 132 170 124
1129 2 2 1 6 408 518 313
1130 2 2 1 6 473 605 472
1131 2 2 1 6 760 903 759
1132 2 2 1 6 438 721 358
1133 2 2 1 6 501 502 451
1134 2 2 1 6 407 677 321
1135 2 2 1 6 475 796 439
1136 2 2 1 6 390 460 317
1137 2 2 1 6 316 435 389
1138 2 2 1 6 466 849 738
1139 2 2 1 6 553 897 532
1140 2 2 1 6 531 898 552
1141 2 2 1 6 549 771 488
1142 2 2 1 6 324 358 325
1143 2 2 1 6 586 920 444
1144 2 2 1 6 511 588 480
1145 2 2 1 6 697 786 218
1146 2 2 1 6 698 788 192
1147 2 2 1 6 318 364 363
1148 2 2 1 6 358 374 373
1149 2 2 1 6 452 919 793
1150 2 2 1 6 406 614 539
1151 2 2 1 6 141 705 254
1152 2 2 1 6 623 914 322
1153 2 2 1 6 507 509 506
1154 2 2 1 6 704 819 656
1155 2 2 1 6 446 447 421
1156 2 2 1 6 659 876 434
1157 2 2 1 6 609 904 519
1158 2 2 1 6 533 874 873
1159 2 2 1 6 52 864 604
1160 2 2 1 6 358 721 374
1161 2 2 1 6 588 816 480
1162 2 2 1 6 349 561 375
1163 2 2 1 6 380 483 440
1164 2 2 1 6 453 471 382
1165 2 2 1 6 444 920 473
1166 2 2 1 6 395 889 601
1167 2 2 1 6 149 917 859
1168 2 2 1 6 555 716 569
1169 2 2 1 6 441 681 127
1170 2 2 1 6 443 686 238
1171 2 2 1 6 346 406 321
1172 2 2 1 6 622 694 692
1173 2 2 1 6 569 887 554
1174 2 2 1 6 556 886 570
1175 2 2 1 6 568 625 202
1176 2 2 1 6 432 730 330
1177 2 2 1 6 477 616 460
1178 2 2 1 6 790 822 551
1179 2 2 1 6 659 918 653
1180 2 2 1 6 604 840 149
1181 2 2 1 6 237 516 311
1182 2 2 1 6 134 515 128
1183 2 2 1 6 31 846 30
1184 2 2 1 6 415 432 330
1185 2 2 1 6 758 759 228
1186 2 2 1 6 441 682 681
1187 2 2 1 6 443 687 686
1188 2 2 1 6 488 771 489
1189 2 2 1 6 396 671 398
1190 2 2 1 6 161 803 356
1191 2 2 1 6 317 801 261
1192 2 2 1 6 151 804 295
1193 2 2 1 6 149 859 54
1194 2 2 1 6 83 776 82
1195 2 2 1 6 346 763 762
1196 2 2 1 6 742 845 515
1197 2 2 1 6 396 398 397
1198 2 2 1 6 349 375 298
1199 2 2 1 6 306 391 342
1200 2 2 1 6 359 785 361
1201 2 2 1 6 593 662 471
1202 2 2 1 6 278 894 722
1203 2 2 1 6 439 796 500
1204 2 2 1 6 675 924 856
1205 2 2 1 6 42 818 43
1206 2 2 1 6 64 817 65
1207 2 2 1 6 255 798 638
1208 2 2 1 6 450 819 704
1209 2 2 1 6 419 468 397
1210 2 2 1 6 542 798 541
1211 2 2 1 6 627 730 432
1212 2 2 1 6 836 850 671
1213 2 2 1 6 333 915 380
1214 2 2 1 6 354 794 155
1215 2 2 1 6 480 795 334
1216 2 2 1 6 329 875 612
1217 2 2 1 6 421 742 142
1218 2 2 1 6 338 791 463
1219 2 2 1 6 308 745 22
1220 2 2 1 6 307 750 84
1221 2 2 1 6 21 745 498
1222 2 2 1 6 85 755 307
1223 2 2 1 6 499 755 86
1224 2 2 1 6 157 901 710
1225 2 2 1 6 386 902 711
1226 2 2 1 6 522 523 492
1227 2 2 1 6 429 775 538
1228 2 2 1 6 625 705 202
1229 2 2 1 6 159 804 151
1230 2 2 1 6 278 722 277
1231 2 2 1 6 417 505 504
1232 2 2 1 6 346 762 406
1233 2 2 1 6 519 558 440
1234 2 2 1 6 453 594 593
1235 2 2 1 6 364 449 363
1236 2 2 1 6 634 718 320
1237 2 2 1 6 411 496 195
1238 2 2 1 6 599 852 257
1239 2 2 1 6 275 330 291
1240 2 2 1 6 564 699 507
1241 2 2 1 6 502 514 451
1242 2 2 1 6 231 306 278
1243 2 2 1 6 406 539 407
1244 2 2 1 6 77 838 76
1245 2 2 1 6 277 722 305
1246 2 2 1 6 722 894 669
1247 2 2 1 6 362 408 313
1248 2 2 1 6 642 830 657
1249 2 2 1 6 268 774 223
1250 2 2 1 6 391 417 342
1251 2 2 1 6 492 718 634
1252 2 2 1 6 145 146 138
1253 2 2 1 6 133 141 140
1254 2 2 1 6 487 548 488
1255 2 2 1 6 478 479 389
1256 2 2 1 6 524 525 523
1257 2 2 1 6 306 342 278
1258 2 2 1 6 82 776 347
1259 2 2 1 6 466 545 408
1260 2 2 1 6 411 497 496
1261 2 2 1 6 340 713 191
1262 2 2 1 6 130 683 194
1263 2 2 1 6 335 684 567
1264 2 2 1 6 385 685 566
1265 2 2 1 6 246 690 442
1266 2 2 1 6 871 874 567
1267 2 2 1 6 557 695 377
1268 2 2 1 6 414 887 754
1269 2 2 1 6 324 325 276
1270 2 2 1 6 296 738 214
1271 2 2 1 6 497 666 496
1272 2 2 1 6 522 524 523
1273 2 2 1 6 417 728 505
1274 2 2 1 6 364 451 449
1275 2 2 1 6 581 785 392
1276 2 2 1 6 25 797 24
1277 2 2 1 6 383 858 470
1278 2 2 1 6 250 708 275
1279 2 2 1 6 297 350 349
1280 2 2 1 6 448 560 299
1281 2 2 1 6 464 678 465
1282 2 2 1 6 481 734 467
1283 2 2 1 6 798 821 638
1284 2 2 1 6 443 688 687
1285 2 2 1 6 358 373 325
1286 2 2 1 6 235 256 227
1287 2 2 1 6 226 267 266
1288 2 2 1 6 374 467 373
1289 2 2 1 6 756 886 413
1290 2 2 1 6 570 723 557
1291 2 2 1 6 322 914 79
1292 2 2 1 6 264 297 265
1293 2 2 1 6 269 299 262
1294 2 2 1 6 394 395 393
1295 2 2 1 6 267 556 377
1296 2 2 1 6 465 554 256
1297 2 2 1 6 865 882 577
1298 2 2 1 6 348 797 25
1299 2 2 1 6 379 511 480
1300 2 2 1 6 126 869 135
1301 2 2 1 6 124 871 121
1302 2 2 1 6 309 872 245
1303 2 2 1 6 120 870 129
1304 2 2 1 6 255 832 798
1305 2 2 1 6 288 740 236
1306 2 2 1 6 156 739 158
1307 2 2 1 6 67 905 3
1308 2 2 1 6 1 906 40
1309 2 2 1 6 656 819 491
1310 2 2 1 6 798 832 541
1311 2 2 1 6 641 882 196
1312 2 2 1 6 447 867 626
1313 2 2 1 6 286 409 390
1314 2 2 1 6 591 837 621
1315 2 2 1 6 314 370 252
1316 2 2 1 6 253 368 315
1317 2 2 1 6 26 811 348
1318 2 2 1 6 13 683 130
1319 2 2 1 6 332 584 10
1320 2 2 1 6 12 685 385
1321 2 2 1 6 17 684 335
1322 2 2 1 6 15 690 246
1323 2 2 1 6 191 713 19
1324 2 2 1 6 122 429 11
1325 2 2 1 6 153 585 5
1326 2 2 1 6 370 413 252
1327 2 2 1 6 253 414 368
1328 2 2 1 6 318 691 364
1329 2 2 1 6 339 791 338
1330 2 2 1 6 323 811 27
1331 2 2 1 6 830 877 438
1332 2 2 1 6 379 512 511
1333 2 2 1 6 412 846 31
1334 2 2 1 6 41 805 400
1335 2 2 1 6 399 806 66
1336 2 2 1 6 513 731 435
1337 2 2 1 6 556 570 557
1338 2 2 1 6 555 569 554
1339 2 2 1 6 540 600 581
1340 2 2 1 6 286 390 317
1341 2 2 1 6 316 389 287
1342 2 2 1 6 389 783 287
1343 2 2 1 6 638 821 641
1344 2 2 1 6 27 811 26
1345 2 2 1 6 724 886 756
1346 2 2 1 6 544 843 407
1347 2 2 1 6 20 906 1
1348 2 2 1 6 3 905 87
1349 2 2 1 6 190 924 210
1350 2 2 1 6 675 911 674
1351 2 2 1 6 700 893 229
1352 2 2 1 6 406 762 614
1353 2 2 1 6 507 699 509
1354 2 2 1 6 464 465 256
1355 2 2 1 6 267 377 376
1356 2 2 1 6 470 590 469
1357 2 2 1 6 162 446 421
1358 2 2 1 6 534 899 727
1359 2 2 1 6 347 828 81
1360 2 2 1 6 233 831 248
1361 2 2 1 6 459 619 553
1362 2 2 1 6 552 620 457
1363 2 2 1 6 80 828 322
1364 2 2 1 6 376 736 562
1365 2 2 1 6 275 708 415
1366 2 2 1 6 491 819 522
1367 2 2 1 6 396 397 395
1368 2 2 1 6 297 349 298
1369 2 2 1 6 401 448 299
1370 2 2 1 6 442 767 310
1371 2 2 1 6 566 766 387
1372 2 2 1 6 312 769 443
1373 2 2 1 6 136 768 441
1374 2 2 1 6 194 770 139
1375 2 2 1 6 221 222 211
1376 2 2 1 6 337 360 359
1377 2 2 1 6 158 168 164
1378 2 2 1 6 143 144 136
1379 2 2 1 6 310 426 381
1380 2 2 1 6 387 424 388
1381 2 2 1 6 137 138 131
1382 2 2 1 6 289 343 288
1383 2 2 1 6 139 150 142
1384 2 2 1 6 125 133 132
1385 2 2 1 6 163 167 155
1386 2 2 1 6 383 425 312
1387 2 2 1 6 213 220 219
1388 2 2 1 6 378 379 334
1389 2 2 1 6 408 760 518
1390 2 2 1 6 605 606 472
1391 2 2 1 6 504 761 418
1392 2 2 1 6 371 437 370
1393 2 2 1 6 368 436 369
1394 2 2 1 6 305 722 339
1395 2 2 1 6 381 453 382
1396 2 2 1 6 380 440 378
1397 2 2 1 6 695 736 377
1398 2 2 1 6 506 737 483
1399 2 2 1 6 435 478 389
1400 2 2 1 6 390 477 460
1401 2 2 1 6 388 902 386
1402 2 2 1 6 164 901 157
1403 2 2 1 6 195 804 159
1404 2 2 1 6 360 393 392
1405 2 2 1 6 198 204 167
1406 2 2 1 6 161 187 144
1407 2 2 1 6 344 402 343
1408 2 2 1 6 424 474 439
1409 2 2 1 6 469 571 425
1410 2 2 1 6 150 452 162
1411 2 2 1 6 220 262 261
1412 2 2 1 6 263 264 222
1413 2 2 1 6 168 205 197
1414 2 2 1 6 134 742 515
1415 2 2 1 6 608 743 225
1416 2 2 1 6 138 758 228
1417 2 2 1 6 446 617 447
1418 2 2 1 6 463 881 351
1419 2 2 1 6 205 227 215
1420 2 2 1 6 216 226 204
1421 2 2 1 6 474 530 475
1422 2 2 1 6 203 214 187
1423 2 2 1 6 427 528 402
1424 2 2 1 6 483 519 440
1425 2 2 1 6 453 593 471
1426 2 2 1 6 683 711 194
1427 2 2 1 6 690 710 442
1428 2 2 1 6 282 832 255
1429 2 2 1 6 210 211 191
1430 2 2 1 6 154 155 153
1431 2 2 1 6 335 337 336
1432 2 2 1 6 156 158 157
1433 2 2 1 6 130 139 134
1434 2 2 1 6 123 125 124
1435 2 2 1 6 239 288 236
1436 2 2 1 6 129 131 122
1437 2 2 1 6 135 136 127
1438 2 2 1 6 385 387 386
1439 2 2 1 6 311 312 238
1440 2 2 1 6 246 310 309
1441 2 2 1 6 193 213 212
1442 2 2 1 6 333 334 332
1443 2 2 1 6 541 832 550
1444 2 2 1 6 685 872 566
1445 2 2 1 6 684 871 567
1446 2 2 1 6 740 741 516
1447 2 2 1 6 398 419 397
1448 2 2 1 6 698 822 788
1449 2 2 1 6 562 725 706
1450 2 2 1 6 203 296 214
1451 2 2 1 6 754 887 717
1452 2 2 1 6 419 599 468
1453 2 2 1 6 227 253 215
1454 2 2 1 6 216 252 226
1455 2 2 1 6 198 216 204
1456 2 2 1 6 161 203 187
1457 2 2 1 6 263 287 264
1458 2 2 1 6 262 286 261
1459 2 2 1 6 205 215 197
1460 2 2 1 6 474 475 439
1461 2 2 1 6 344 427 402
1462 2 2 1 6 393 540 392
1463 2 2 1 6 163 198 167
1464 2 2 1 6 220 261 219
1465 2 2 1 6 133 140 132
1466 2 2 1 6 137 145 138
1467 2 2 1 6 383 469 425
1468 2 2 1 6 143 161 144
1469 2 2 1 6 150 162 142
1470 2 2 1 6 221 263 222
1471 2 2 1 6 289 344 343
1472 2 2 1 6 360 392 359
1473 2 2 1 6 168 197 164
1474 2 2 1 6 424 439 388
1475 2 2 1 6 512 659 511
1476 2 2 1 6 654 876 653
1477 2 2 1 6 715 827 528
1478 2 2 1 6 524 878 607
1479 2 2 1 6 478 623 479
1480 2 2 1 6 502 893 700
1481 2 2 1 6 518 774 313
1482 2 2 1 6 465 555 554
1483 2 2 1 6 556 557 377
1484 2 2 1 6 337 359 336
1485 2 2 1 6 125 132 124
1486 2 2 1 6 311 383 312
1487 2 2 1 6 239 289 288
1488 2 2 1 6 158 164 157
1489 2 2 1 6 310 381 309
1490 2 2 1 6 135 143 136
1491 2 2 1 6 333 378 334
1492 2 2 1 6 154 163 155
1493 2 2 1 6 387 388 386
1494 2 2 1 6 139 142 134
1495 2 2 1 6 129 137 131
1496 2 2 1 6 210 221 211
1497 2 2 1 6 213 219 212
1498 2 2 1 6 806 905 67
1499 2 2 1 6 40 906 805
1500 2 2 1 6 471 853 382
1501 2 2 1 6 648 879 462
1502 2 2 1 6 320 885 319
1503 2 2 1 6 429 538 537
1504 2 2 1 6 804 850 295
1505 2 2 1 6 373 793 703
1506 2 2 1 6 391 728 417
1507 2 2 1 6 744 796 475
1508 2 2 1 6 343 784 345
1509 2 2 1 6 392 785 359
1510 2 2 1 6 730 796 331
1511 2 2 1 6 81 828 80
1512 2 2 1 6 248 831 708
1513 2 2 1 6 793 860 452
1514 2 2 1 6 276 831 233
1515 2 2 1 6 648 846 412
1516 2 2 1 6 819 878 522
1517 2 2 1 6 331 796 744
1518 2 2 1 6 282 844 832
1519 2 2 1 6 59 912 60
1520 2 2 1 6 521 919 624
1521 2 2 1 6 365 898 582
1522 2 2 1 6 622 897 366
1523 2 2 1 6 832 844 550
1524 2 2 1 6 739 845 353
1525 2 2 1 6 304 888 733
1526 2 2 1 6 272 857 693
1527 2 2 1 6 346 885 763
1528 2 2 1 6 750 776 83
1529 2 2 1 6 187 732 189
1530 2 2 1 6 757 910 354
1531 2 2 1 6 361 785 782
1532 2 2 1 6 479 783 389
1533 2 2 1 6 530 825 714
1534 2 2 1 6 194 866 770
1535 2 2 1 6 533 836 671
1536 2 2 1 6 856 911 675
1537 2 2 1 6 482 888 665
1538 2 2 1 6 520 827 715
1539 2 2 1 6 295 850 836
1540 2 2 1 6 523 718 492
1541 2 2 1 6 443 769 688
1542 2 2 1 6 673 868 280
1543 2 2 1 6 146 758 138
1544 2 2 1 6 24 797 749
1545 2 2 1 6 295 802 140
1546 2 2 1 6 145 799 608
1547 2 2 1 6 225 743 231
1548 2 2 1 6 781 857 272
1549 2 2 1 6 375 734 701
1550 2 2 1 6 558 814 440
1551 2 2 1 6 453 813 594
1552 2 2 1 6 545 760 408
1553 2 2 1 6 280 868 792
1554 2 2 1 6 328 900 72
1555 2 2 1 6 296 835 606
1556 2 2 1 6 714 825 300
1557 2 2 1 6 279 801 772
1558 2 2 1 6 468 889 397
1559 2 2 1 6 91 237 4
1560 2 2 1 6 15 245 99
1561 2 2 1 6 89 126 6
1562 2 2 1 6 8 192 92
1563 2 2 1 6 13 128 97
1564 2 2 1 6 16 121 100
1565 2 2 1 6 14 148 98
1566 2 2 1 6 17 218 101
1567 2 2 1 6 88 147 5
1568 2 2 1 6 90 201 7
1569 2 2 1 6 7 787 91
1570 2 2 1 6 93 217 10
1571 2 2 1 6 103 428 16
1572 2 2 1 6 101 786 18
1573 2 2 1 6 9 790 93
1574 2 2 1 6 12 384 96
1575 2 2 1 6 94 120 11
1576 2 2 1 6 102 190 19
1577 2 2 1 6 97 789 14
1578 2 2 1 6 92 788 9
1579 2 2 1 6 733 823 503
1580 2 2 1 6 636 844 282
1581 2 2 1 6 514 779 451
1582 2 2 1 6 313 774 268
1583 2 2 1 6 60 909 61
1584 2 2 1 6 677 843 485
1585 2 2 1 6 496 804 195
1586 2 2 1 6 310 767 426
1587 2 2 1 6 387 766 424
1588 2 2 1 6 425 769 312
1589 2 2 1 6 144 768 136
1590 2 2 1 6 139 770 150
1591 2 2 1 6 567 874 764
1592 2 2 1 6 377 736 376
1593 2 2 1 6 723 811 323
1594 2 2 1 6 665 888 304
1595 2 2 1 6 680 908 479
1596 2 2 1 6 169 799 137
1597 2 2 1 6 219 801 279
1598 2 2 1 6 132 802 170
1599 2 2 1 6 495 803 143
1600 2 2 1 6 435 731 478
1601 2 2 1 6 483 737 519
1602 2 2 1 6 231 743 306
1603 2 2 1 6 441 833 682
1604 2 2 1 6 142 742 134
1605 2 2 1 6 729 913 353
1606 2 2 1 6 467 793 373
1607 2 2 1 6 699 824 509
1608 2 2 1 6 449 779 607
1609 2 2 1 6 752 841 753
1610 2 2 1 6 450 878 819
1611 2 2 1 6 748 834 746
1612 2 2 1 6 561 867 617
1613 2 2 1 6 322 828 716
1614 2 2 1 6 628 861 420
1615 2 2 1 6 79 914 78
1616 2 2 1 6 254 851 596
1617 2 2 1 6 697 911 786
1618 2 2 1 6 560 810 299
1619 2 2 1 6 297 809 350
1620 2 2 1 6 768 833 441
1621 2 2 1 6 671 850 666
1622 2 2 1 6 286 810 409
1623 2 2 1 6 552 818 620
1624 2 2 1 6 619 817 553
1625 2 2 1 6 402 784 343
1626 2 2 1 6 516 858 311
1627 2 2 1 6 229 893 848
1628 2 2 1 6 554 807 256
1629 2 2 1 6 267 808 556
1630 2 2 1 6 413 808 252
1631 2 2 1 6 253 807 414
1632 2 2 1 6 662 854 471
1633 2 2 1 6 451 779 449
1634 2 2 1 6 778 897 553
1635 2 2 1 6 552 898 777
1636 2 2 1 6 783 809 287
1637 2 2 1 6 214 732 187
1638 2 2 1 6 29 855 720
1639 2 2 1 6 793 919 703
1640 2 2 1 6 720 895 323
1641 2 2 1 6 353 913 168
1642 2 2 1 6 580 825 474
1643 2 2 1 6 379 814 512
1644 2 2 1 6 528 827 402
1645 2 2 1 6 547 862 546
1646 2 2 1 6 272 901 164
1647 2 2 1 6 500 902 388
1648 2 2 1 6 766 854 580
1649 2 2 1 6 547 865 862
1650 2 2 1 6 645 865 547
1651 2 2 1 6 201 239 236
1652 2 2 1 6 190 210 191
1653 2 2 1 6 126 135 127
1654 2 2 1 6 246 309 245
1655 2 2 1 6 130 134 128
1656 2 2 1 6 156 157 148
1657 2 2 1 6 193 212 192
1658 2 2 1 6 335 336 218
1659 2 2 1 6 147 154 153
1660 2 2 1 6 120 129 122
1661 2 2 1 6 217 333 332
1662 2 2 1 6 237 311 238
1663 2 2 1 6 385 386 384
1664 2 2 1 6 123 124 121
1665 2 2 1 6 576 842 574
1666 2 2 1 6 135 869 495
1667 2 2 1 6 129 870 169
1668 2 2 1 6 170 871 124
1669 2 2 1 6 382 872 309
1670 2 2 1 6 474 825 530
1671 2 2 1 6 515 789 128
1672 2 2 1 6 237 787 516
1673 2 2 1 6 511 839 588
1674 2 2 1 6 147 153 5
1675 2 2 1 6 126 127 6
1676 2 2 1 6 12 385 384
1677 2 2 1 6 13 130 128
1678 2 2 1 6 17 335 218
1679 2 2 1 6 16 123 121
1680 2 2 1 6 201 236 7
1681 2 2 1 6 15 246 245
1682 2 2 1 6 8 193 192
1683 2 2 1 6 217 332 10
1684 2 2 1 6 190 191 19
1685 2 2 1 6 237 238 4
1686 2 2 1 6 120 122 11
1687 2 2 1 6 14 156 148
1688 2 2 1 6 788 822 9
1689 2 2 1 6 577 882 578
1690 2 2 1 6 210 924 280
1691 2 2 1 6 476 849 466
1692 2 2 1 6 679 908 680
1693 2 2 1 6 815 910 707
1694 2 2 1 6 500 796 730
1695 2 2 1 6 578 892 431
1696 2 2 1 6 763 885 702
1697 2 2 1 6 356 835 203
1698 2 2 1 6 137 799 145
1699 2 2 1 6 261 801 219
1700 2 2 1 6 140 802 132
1701 2 2 1 6 143 803 161
1702 2 2 1 6 546 899 534
1703 2 2 1 6 434 876 728
1704 2 2 1 6 734 812 467
1705 2 2 1 6 203 835 296
1706 2 2 1 6 434 839 659
1707 2 2 1 6 438 877 721
1708 2 2 1 6 448 896 725
1709 2 2 1 6 257 852 719
1710 2 2 1 6 693 857 535
1711 2 2 1 6 711 902 866
1712 2 2 1 6 741 858 516
1713 2 2 1 6 496 850 804
1714 2 2 1 6 371 880 437
1715 2 2 1 6 426 813 381
1716 2 2 1 6 378 814 379
1717 2 2 1 6 436 883 369
1718 2 2 1 6 264 809 297
1719 2 2 1 6 299 810 262
1720 2 2 1 6 256 807 227
1721 2 2 1 6 226 808 267
1722 2 2 1 6 287 809 264
1723 2 2 1 6 262 810 286
1724 2 2 1 6 227 807 253
1725 2 2 1 6 252 808 226
1726 2 2 1 6 437 880 748
1727 2 2 1 6 753 883 436
1728 2 2 1 6 573 868 673
1729 2 2 1 6 853 854 766
1730 2 2 1 6 532 897 622
1731 2 2 1 6 582 898 531
1732 2 2 1 6 401 896 448
1733 2 2 1 6 659 839 511
1734 2 2 1 6 381 813 453
1735 2 2 1 6 440 814 378
1736 2 2 1 6 485 843 487
1737 2 2 1 6 319 885 346
1738 2 2 1 6 407 843 677
1739 2 2 1 6 409 826 390
1740 2 2 1 6 805 906 498
1741 2 2 1 6 499 905 806
1742 2 2 1 6 705 851 254
1743 2 2 1 6 748 880 620
1744 2 2 1 6 478 820 623
1745 2 2 1 6 513 838 731
1746 2 2 1 6 805 834 400
1747 2 2 1 6 566 853 766
1748 2 2 1 6 619 883 753
1749 2 2 1 6 529 884 528
1750 2 2 1 6 731 820 478
1751 2 2 1 6 862 881 546
1752 2 2 1 6 18 856 102
1753 2 2 1 6 606 896 472
1754 2 2 1 6 721 877 596
1755 2 2 1 6 620 880 457
1756 2 2 1 6 295 836 802
1757 2 2 1 6 459 883 619
1758 2 2 1 6 666 850 496
1759 2 2 1 6 489 907 844
1760 2 2 1 6 530 863 579
1761 2 2 1 6 390 826 477
1762 2 2 1 6 162 860 446
1763 2 2 1 6 402 827 784
1764 2 2 1 6 498 906 20
1765 2 2 1 6 87 905 499
1766 2 2 1 6 354 815 794
1767 2 2 1 6 480 816 795
1768 2 2 1 6 549 849 771
1769 2 2 1 6 617 867 447
1770 2 2 1 6 170 874 871
1771 2 2 1 6 607 878 450
1772 2 2 1 6 514 921 859
1773 2 2 1 6 399 841 806
1774 2 2 1 6 467 812 793
1775 2 2 1 6 653 918 726
1776 2 2 1 6 616 846 648
1777 2 2 1 6 777 898 365
1778 2 2 1 6 366 897 778
1779 2 2 1 6 506 875 737
1780 2 2 1 6 550 907 773
1781 2 2 1 6 477 855 616
1782 2 2 1 6 522 878 524
1783 2 2 1 6 457 880 371
1784 2 2 1 6 311 858 383
1785 2 2 1 6 342 894 278
1786 2 2 1 6 369 883 459
1787 2 2 1 6 452 860 162
1788 2 2 1 6 446 860 812
1789 2 2 1 6 711 866 194
1790 2 2 1 6 509 875 506
1791 2 2 1 6 503 893 502
1792 2 2 1 6 168 913 205
1793 2 2 1 6 771 849 476
1794 2 2 1 6 339 916 791
1795 2 2 1 6 895 923 323
1796 2 2 1 6 703 919 521
1797 2 2 1 6 472 896 401
1798 2 2 1 6 802 873 170
1799 2 2 1 6 527 864 829
1800 2 2 1 6 725 896 606
1801 2 2 1 6 728 876 654
1802 2 2 1 6 699 879 824
1803 2 2 1 6 218 786 101
1804 2 2 1 6 93 790 217
1805 2 2 1 6 91 787 237
1806 2 2 1 6 128 789 97
1807 2 2 1 6 192 788 92
1808 2 2 1 6 587 920 586
1809 2 2 1 6 397 889 395
1810 2 2 1 6 323 923 723
1811 2 2 1 6 519 904 558
1812 2 2 1 6 593 912 662
1813 2 2 1 6 812 860 793
1814 2 2 1 6 594 909 593
1815 2 2 1 6 844 907 550
1816 2 2 1 6 512 918 659
1817 2 2 1 6 737 875 329
1818 2 2 1 6 102 856 190
1819 2 2 1 6 836 873 802
1820 2 2 1 6 217 915 333
1821 2 2 1 6 779 917 607
1822 2 2 1 6 903 920 587
1823 2 2 1 6 579 863 848
1824 2 2 1 6 471 854 853
1825 2 2 1 6 479 908 783
1826 2 2 1 6 786 911 18
1827 2 2 1 6 873 874 170
1828 2 2 1 6 909 912 593
1829 2 2 1 6 881 899 546
1830 2 2 1 6 533 873 836
1831 2 2 1 6 791 916 510
1832 2 2 1 6 463 899 881
1833 2 2 1 6 696 895 826
1834 2 2 1 6 848 893 503
1835 2 2 1 6 354 910 815
1836 2 2 1 6 840 917 149
1837 2 2 1 6 884 922 240
1838 2 2 1 6 848 863 229
1839 2 2 1 6 473 920 903
1840 2 2 1 6 790 915 217
1841 2 2 1 6 820 914 623
1842 2 2 1 6 78 914 820
1843 2 2 1 6 60 912 909
1844 2 2 1 6 529 922 884
1845 2 2 1 6 696 923 895
1846 2 2 1 6 551 915 790
$EndElements
