MFEM mesh v1.0

dimension
2

elements
1024
1 3 0 1 34 33
1 3 1 2 35 34
1 3 2 3 36 35
1 3 3 4 37 36
1 3 4 5 38 37
1 3 5 6 39 38
1 3 6 7 40 39
1 3 7 8 41 40
1 3 8 9 42 41
1 3 9 10 43 42
1 3 10 11 44 43
1 3 11 12 45 44
1 3 12 13 46 45
1 3 13 14 47 46
1 3 14 15 48 47
1 3 15 16 49 48
1 3 16 17 50 49
1 3 17 18 51 50
1 3 18 19 52 51
1 3 19 20 53 52
1 3 20 21 54 53
1 3 21 22 55 54
1 3 22 23 56 55
1 3 23 24 57 56
1 3 24 25 58 57
1 3 25 26 59 58
1 3 26 27 60 59
1 3 27 28 61 60
1 3 28 29 62 61
1 3 29 30 63 62
1 3 30 31 64 63
1 3 31 32 65 64
1 3 33 34 67 66
1 3 34 35 68 67
1 3 35 36 69 68
1 3 36 37 70 69
1 3 37 38 71 70
1 3 38 39 72 71
1 3 39 40 73 72
1 3 40 41 74 73
1 3 41 42 75 74
1 3 42 43 76 75
1 3 43 44 77 76
1 3 44 45 78 77
1 3 45 46 79 78
1 3 46 47 80 79
1 3 47 48 81 80
1 3 48 49 82 81
1 3 49 50 83 82
1 3 50 51 84 83
1 3 51 52 85 84
1 3 52 53 86 85
1 3 53 54 87 86
1 3 54 55 88 87
1 3 55 56 89 88
1 3 56 57 90 89
1 3 57 58 91 90
1 3 58 59 92 91
1 3 59 60 93 92
1 3 60 61 94 93
1 3 61 62 95 94
1 3 62 63 96 95
1 3 63 64 97 96
1 3 64 65 98 97
1 3 66 67 100 99
1 3 67 68 101 100
1 3 68 69 102 101
1 3 69 70 103 102
1 3 70 71 104 103
1 3 71 72 105 104
1 3 72 73 106 105
1 3 73 74 107 106
1 3 74 75 108 107
1 3 75 76 109 108
1 3 76 77 110 109
1 3 77 78 111 110
1 3 78 79 112 111
1 3 79 80 113 112
1 3 80 81 114 113
1 3 81 82 115 114
1 3 82 83 116 115
1 3 83 84 117 116
1 3 84 85 118 117
1 3 85 86 119 118
1 3 86 87 120 119
1 3 87 88 121 120
1 3 88 89 122 121
1 3 89 90 123 122
1 3 90 91 124 123
1 3 91 92 125 124
1 3 92 93 126 125
1 3 93 94 127 126
1 3 94 95 128 127
1 3 95 96 129 128
1 3 96 97 130 129
1 3 97 98 131 130
1 3 99 100 133 132
1 3 100 101 134 133
1 3 101 102 135 134
1 3 102 103 136 135
1 3 103 104 137 136
1 3 104 105 138 137
1 3 105 106 139 138
1 3 106 107 140 139
1 3 107 108 141 140
1 3 108 109 142 141
1 3 109 110 143 142
1 3 110 111 144 143
1 3 111 112 145 144
1 3 112 113 146 145
1 3 113 114 147 146
1 3 114 115 148 147
1 3 115 116 149 148
1 3 116 117 150 149
1 3 117 118 151 150
1 3 118 119 152 151
1 3 119 120 153 152
1 3 120 121 154 153
1 3 121 122 155 154
1 3 122 123 156 155
1 3 123 124 157 156
1 3 124 125 158 157
1 3 125 126 159 158
1 3 126 127 160 159
1 3 127 128 161 160
1 3 128 129 162 161
1 3 129 130 163 162
1 3 130 131 164 163
1 3 132 133 166 165
1 3 133 134 167 166
1 3 134 135 168 167
1 3 135 136 169 168
1 3 136 137 170 169
1 3 137 138 171 170
1 3 138 139 172 171
1 3 139 140 173 172
1 3 140 141 174 173
1 3 141 142 175 174
1 3 142 143 176 175
1 3 143 144 177 176
1 3 144 145 178 177
1 3 145 146 179 178
1 3 146 147 180 179
1 3 147 148 181 180
1 3 148 149 182 181
1 3 149 150 183 182
1 3 150 151 184 183
1 3 151 152 185 184
1 3 152 153 186 185
1 3 153 154 187 186
1 3 154 155 188 187
1 3 155 156 189 188
1 3 156 157 190 189
1 3 157 158 191 190
1 3 158 159 192 191
1 3 159 160 193 192
1 3 160 161 194 193
1 3 161 162 195 194
1 3 162 163 196 195
1 3 163 164 197 196
1 3 165 166 199 198
1 3 166 167 200 199
1 3 167 168 201 200
1 3 168 169 202 201
1 3 169 170 203 202
1 3 170 171 204 203
1 3 171 172 205 204
1 3 172 173 206 205
1 3 173 174 207 206
1 3 174 175 208 207
1 3 175 176 209 208
1 3 176 177 210 209
1 3 177 178 211 210
1 3 178 179 212 211
1 3 179 180 213 212
1 3 180 181 214 213
1 3 181 182 215 214
1 3 182 183 216 215
1 3 183 184 217 216
1 3 184 185 218 217
1 3 185 186 219 218
1 3 186 187 220 219
1 3 187 188 221 220
1 3 188 189 222 221
1 3 189 190 223 222
1 3 190 191 224 223
1 3 191 192 225 224
1 3 192 193 226 225
1 3 193 194 227 226
1 3 194 195 228 227
1 3 195 196 229 228
1 3 196 197 230 229
1 3 198 199 232 231
1 3 199 200 233 232
1 3 200 201 234 233
1 3 201 202 235 234
1 3 202 203 236 235
1 3 203 204 237 236
1 3 204 205 238 237
1 3 205 206 239 238
1 3 206 207 240 239
1 3 207 208 241 240
1 3 208 209 242 241
1 3 209 210 243 242
1 3 210 211 244 243
1 3 211 212 245 244
1 3 212 213 246 245
1 3 213 214 247 246
1 3 214 215 248 247
1 3 215 216 249 248
1 3 216 217 250 249
1 3 217 218 251 250
1 3 218 219 252 251
1 3 219 220 253 252
1 3 220 221 254 253
1 3 221 222 255 254
1 3 222 223 256 255
1 3 223 224 257 256
1 3 224 225 258 257
1 3 225 226 259 258
1 3 226 227 260 259
1 3 227 228 261 260
1 3 228 229 262 261
1 3 229 230 263 262
1 3 231 232 265 264
1 3 232 233 266 265
1 3 233 234 267 266
1 3 234 235 268 267
1 3 235 236 269 268
1 3 236 237 270 269
1 3 237 238 271 270
1 3 238 239 272 271
1 3 239 240 273 272
1 3 240 241 274 273
1 3 241 242 275 274
1 3 242 243 276 275
1 3 243 244 277 276
1 3 244 245 278 277
1 3 245 246 279 278
1 3 246 247 280 279
1 3 247 248 281 280
1 3 248 249 282 281
1 3 249 250 283 282
1 3 250 251 284 283
1 3 251 252 285 284
1 3 252 253 286 285
1 3 253 254 287 286
1 3 254 255 288 287
1 3 255 256 289 288
1 3 256 257 290 289
1 3 257 258 291 290
1 3 258 259 292 291
1 3 259 260 293 292
1 3 260 261 294 293
1 3 261 262 295 294
1 3 262 263 296 295
1 3 264 265 298 297
1 3 265 266 299 298
1 3 266 267 300 299
1 3 267 268 301 300
1 3 268 269 302 301
1 3 269 270 303 302
1 3 270 271 304 303
1 3 271 272 305 304
1 3 272 273 306 305
1 3 273 274 307 306
1 3 274 275 308 307
1 3 275 276 309 308
1 3 276 277 310 309
1 3 277 278 311 310
1 3 278 279 312 311
1 3 279 280 313 312
1 3 280 281 314 313
1 3 281 282 315 314
1 3 282 283 316 315
1 3 283 284 317 316
1 3 284 285 318 317
1 3 285 286 319 318
1 3 286 287 320 319
1 3 287 288 321 320
1 3 288 289 322 321
1 3 289 290 323 322
1 3 290 291 324 323
1 3 291 292 325 324
1 3 292 293 326 325
1 3 293 294 327 326
1 3 294 295 328 327
1 3 295 296 329 328
1 3 297 298 331 330
1 3 298 299 332 331
1 3 299 300 333 332
1 3 300 301 334 333
1 3 301 302 335 334
1 3 302 303 336 335
1 3 303 304 337 336
1 3 304 305 338 337
1 3 305 306 339 338
1 3 306 307 340 339
1 3 307 308 341 340
1 3 308 309 342 341
1 3 309 310 343 342
1 3 310 311 344 343
1 3 311 312 345 344
1 3 312 313 346 345
1 3 313 314 347 346
1 3 314 315 348 347
1 3 315 316 349 348
1 3 316 317 350 349
1 3 317 318 351 350
1 3 318 319 352 351
1 3 319 320 353 352
1 3 320 321 354 353
1 3 321 322 355 354
1 3 322 323 356 355
1 3 323 324 357 356
1 3 324 325 358 357
1 3 325 326 359 358
1 3 326 327 360 359
1 3 327 328 361 360
1 3 328 329 362 361
1 3 330 331 364 363
1 3 331 332 365 364
1 3 332 333 366 365
1 3 333 334 367 366
1 3 334 335 368 367
1 3 335 336 369 368
1 3 336 337 370 369
1 3 337 338 371 370
1 3 338 339 372 371
1 3 339 340 373 372
1 3 340 341 374 373
1 3 341 342 375 374
1 3 342 343 376 375
1 3 343 344 377 376
1 3 344 345 378 377
1 3 345 346 379 378
1 3 346 347 380 379
1 3 347 348 381 380
1 3 348 349 382 381
1 3 349 350 383 382
1 3 350 351 384 383
1 3 351 352 385 384
1 3 352 353 386 385
1 3 353 354 387 386
1 3 354 355 388 387
1 3 355 356 389 388
1 3 356 357 390 389
1 3 357 358 391 390
1 3 358 359 392 391
1 3 359 360 393 392
1 3 360 361 394 393
1 3 361 362 395 394
1 3 363 364 397 396
1 3 364 365 398 397
1 3 365 366 399 398
1 3 366 367 400 399
1 3 367 368 401 400
1 3 368 369 402 401
1 3 369 370 403 402
1 3 370 371 404 403
1 3 371 372 405 404
1 3 372 373 406 405
1 3 373 374 407 406
1 3 374 375 408 407
1 3 375 376 409 408
1 3 376 377 410 409
1 3 377 378 411 410
1 3 378 379 412 411
1 3 379 380 413 412
1 3 380 381 414 413
1 3 381 382 415 414
1 3 382 383 416 415
1 3 383 384 417 416
1 3 384 385 418 417
1 3 385 386 419 418
1 3 386 387 420 419
1 3 387 388 421 420
1 3 388 389 422 421
1 3 389 390 423 422
1 3 390 391 424 423
1 3 391 392 425 424
1 3 392 393 426 425
1 3 393 394 427 426
1 3 394 395 428 427
1 3 396 397 430 429
1 3 397 398 431 430
1 3 398 399 432 431
1 3 399 400 433 432
1 3 400 401 434 433
1 3 401 402 435 434
1 3 402 403 436 435
1 3 403 404 437 436
1 3 404 405 438 437
1 3 405 406 439 438
1 3 406 407 440 439
1 3 407 408 441 440
1 3 408 409 442 441
1 3 409 410 443 442
1 3 410 411 444 443
1 3 411 412 445 444
1 3 412 413 446 445
1 3 413 414 447 446
1 3 414 415 448 447
1 3 415 416 449 448
1 3 416 417 450 449
1 3 417 418 451 450
1 3 418 419 452 451
1 3 419 420 453 452
1 3 420 421 454 453
1 3 421 422 455 454
1 3 422 423 456 455
1 3 423 424 457 456
1 3 424 425 458 457
1 3 425 426 459 458
1 3 426 427 460 459
1 3 427 428 461 460
1 3 429 430 463 462
1 3 430 431 464 463
1 3 431 432 465 464
1 3 432 433 466 465
1 3 433 434 467 466
1 3 434 435 468 467
1 3 435 436 469 468
1 3 436 437 470 469
1 3 437 438 471 470
1 3 438 439 472 471
1 3 439 440 473 472
1 3 440 441 474 473
1 3 441 442 475 474
1 3 442 443 476 475
1 3 443 444 477 476
1 3 444 445 478 477
1 3 445 446 479 478
1 3 446 447 480 479
1 3 447 448 481 480
1 3 448 449 482 481
1 3 449 450 483 482
1 3 450 451 484 483
1 3 451 452 485 484
1 3 452 453 486 485
1 3 453 454 487 486
1 3 454 455 488 487
1 3 455 456 489 488
1 3 456 457 490 489
1 3 457 458 491 490
1 3 458 459 492 491
1 3 459 460 493 492
1 3 460 461 494 493
1 3 462 463 496 495
1 3 463 464 497 496
1 3 464 465 498 497
1 3 465 466 499 498
1 3 466 467 500 499
1 3 467 468 501 500
1 3 468 469 502 501
1 3 469 470 503 502
1 3 470 471 504 503
1 3 471 472 505 504
1 3 472 473 506 505
1 3 473 474 507 506
1 3 474 475 508 507
1 3 475 476 509 508
1 3 476 477 510 509
1 3 477 478 511 510
1 3 478 479 512 511
1 3 479 480 513 512
1 3 480 481 514 513
1 3 481 482 515 514
1 3 482 483 516 515
1 3 483 484 517 516
1 3 484 485 518 517
1 3 485 486 519 518
1 3 486 487 520 519
1 3 487 488 521 520
1 3 488 489 522 521
1 3 489 490 523 522
1 3 490 491 524 523
1 3 491 492 525 524
1 3 492 493 526 525
1 3 493 494 527 526
1 3 495 496 529 528
1 3 496 497 530 529
1 3 497 498 531 530
1 3 498 499 532 531
1 3 499 500 533 532
1 3 500 501 534 533
1 3 501 502 535 534
1 3 502 503 536 535
1 3 503 504 537 536
1 3 504 505 538 537
1 3 505 506 539 538
1 3 506 507 540 539
1 3 507 508 541 540
1 3 508 509 542 541
1 3 509 510 543 542
1 3 510 511 544 543
1 3 511 512 545 544
1 3 512 513 546 545
1 3 513 514 547 546
1 3 514 515 548 547
1 3 515 516 549 548
1 3 516 517 550 549
1 3 517 518 551 550
1 3 518 519 552 551
1 3 519 520 553 552
1 3 520 521 554 553
1 3 521 522 555 554
1 3 522 523 556 555
1 3 523 524 557 556
1 3 524 525 558 557
1 3 525 526 559 558
1 3 526 527 560 559
1 3 528 529 562 561
1 3 529 530 563 562
1 3 530 531 564 563
1 3 531 532 565 564
1 3 532 533 566 565
1 3 533 534 567 566
1 3 534 535 568 567
1 3 535 536 569 568
1 3 536 537 570 569
1 3 537 538 571 570
1 3 538 539 572 571
1 3 539 540 573 572
1 3 540 541 574 573
1 3 541 542 575 574
1 3 542 543 576 575
1 3 543 544 577 576
1 3 544 545 578 577
1 3 545 546 579 578
1 3 546 547 580 579
1 3 547 548 581 580
1 3 548 549 582 581
1 3 549 550 583 582
1 3 550 551 584 583
1 3 551 552 585 584
1 3 552 553 586 585
1 3 553 554 587 586
1 3 554 555 588 587
1 3 555 556 589 588
1 3 556 557 590 589
1 3 557 558 591 590
1 3 558 559 592 591
1 3 559 560 593 592
1 3 561 562 595 594
1 3 562 563 596 595
1 3 563 564 597 596
1 3 564 565 598 597
1 3 565 566 599 598
1 3 566 567 600 599
1 3 567 568 601 600
1 3 568 569 602 601
1 3 569 570 603 602
1 3 570 571 604 603
1 3 571 572 605 604
1 3 572 573 606 605
1 3 573 574 607 606
1 3 574 575 608 607
1 3 575 576 609 608
1 3 576 577 610 609
1 3 577 578 611 610
1 3 578 579 612 611
1 3 579 580 613 612
1 3 580 581 614 613
1 3 581 582 615 614
1 3 582 583 616 615
1 3 583 584 617 616
1 3 584 585 618 617
1 3 585 586 619 618
1 3 586 587 620 619
1 3 587 588 621 620
1 3 588 589 622 621
1 3 589 590 623 622
1 3 590 591 624 623
1 3 591 592 625 624
1 3 592 593 626 625
1 3 594 595 628 627
1 3 595 596 629 628
1 3 596 597 630 629
1 3 597 598 631 630
1 3 598 599 632 631
1 3 599 600 633 632
1 3 600 601 634 633
1 3 601 602 635 634
1 3 602 603 636 635
1 3 603 604 637 636
1 3 604 605 638 637
1 3 605 606 639 638
1 3 606 607 640 639
1 3 607 608 641 640
1 3 608 609 642 641
1 3 609 610 643 642
1 3 610 611 644 643
1 3 611 612 645 644
1 3 612 613 646 645
1 3 613 614 647 646
1 3 614 615 648 647
1 3 615 616 649 648
1 3 616 617 650 649
1 3 617 618 651 650
1 3 618 619 652 651
1 3 619 620 653 652
1 3 620 621 654 653
1 3 621 622 655 654
1 3 622 623 656 655
1 3 623 624 657 656
1 3 624 625 658 657
1 3 625 626 659 658
1 3 627 628 661 660
1 3 628 629 662 661
1 3 629 630 663 662
1 3 630 631 664 663
1 3 631 632 665 664
1 3 632 633 666 665
1 3 633 634 667 666
1 3 634 635 668 667
1 3 635 636 669 668
1 3 636 637 670 669
1 3 637 638 671 670
1 3 638 639 672 671
1 3 639 640 673 672
1 3 640 641 674 673
1 3 641 642 675 674
1 3 642 643 676 675
1 3 643 644 677 676
1 3 644 645 678 677
1 3 645 646 679 678
1 3 646 647 680 679
1 3 647 648 681 680
1 3 648 649 682 681
1 3 649 650 683 682
1 3 650 651 684 683
1 3 651 652 685 684
1 3 652 653 686 685
1 3 653 654 687 686
1 3 654 655 688 687
1 3 655 656 689 688
1 3 656 657 690 689
1 3 657 658 691 690
1 3 658 659 692 691
1 3 660 661 694 693
1 3 661 662 695 694
1 3 662 663 696 695
1 3 663 664 697 696
1 3 664 665 698 697
1 3 665 666 699 698
1 3 666 667 700 699
1 3 667 668 701 700
1 3 668 669 702 701
1 3 669 670 703 702
1 3 670 671 704 703
1 3 671 672 705 704
1 3 672 673 706 705
1 3 673 674 707 706
1 3 674 675 708 707
1 3 675 676 709 708
1 3 676 677 710 709
1 3 677 678 711 710
1 3 678 679 712 711
1 3 679 680 713 712
1 3 680 681 714 713
1 3 681 682 715 714
1 3 682 683 716 715
1 3 683 684 717 716
1 3 684 685 718 717
1 3 685 686 719 718
1 3 686 687 720 719
1 3 687 688 721 720
1 3 688 689 722 721
1 3 689 690 723 722
1 3 690 691 724 723
1 3 691 692 725 724
1 3 693 694 727 726
1 3 694 695 728 727
1 3 695 696 729 728
1 3 696 697 730 729
1 3 697 698 731 730
1 3 698 699 732 731
1 3 699 700 733 732
1 3 700 701 734 733
1 3 701 702 735 734
1 3 702 703 736 735
1 3 703 704 737 736
1 3 704 705 738 737
1 3 705 706 739 738
1 3 706 707 740 739
1 3 707 708 741 740
1 3 708 709 742 741
1 3 709 710 743 742
1 3 710 711 744 743
1 3 711 712 745 744
1 3 712 713 746 745
1 3 713 714 747 746
1 3 714 715 748 747
1 3 715 716 749 748
1 3 716 717 750 749
1 3 717 718 751 750
1 3 718 719 752 751
1 3 719 720 753 752
1 3 720 721 754 753
1 3 721 722 755 754
1 3 722 723 756 755
1 3 723 724 757 756
1 3 724 725 758 757
1 3 726 727 760 759
1 3 727 728 761 760
1 3 728 729 762 761
1 3 729 730 763 762
1 3 730 731 764 763
1 3 731 732 765 764
1 3 732 733 766 765
1 3 733 734 767 766
1 3 734 735 768 767
1 3 735 736 769 768
1 3 736 737 770 769
1 3 737 738 771 770
1 3 738 739 772 771
1 3 739 740 773 772
1 3 740 741 774 773
1 3 741 742 775 774
1 3 742 743 776 775
1 3 743 744 777 776
1 3 744 745 778 777
1 3 745 746 779 778
1 3 746 747 780 779
1 3 747 748 781 780
1 3 748 749 782 781
1 3 749 750 783 782
1 3 750 751 784 783
1 3 751 752 785 784
1 3 752 753 786 785
1 3 753 754 787 786
1 3 754 755 788 787
1 3 755 756 789 788
1 3 756 757 790 789
1 3 757 758 791 790
1 3 759 760 793 792
1 3 760 761 794 793
1 3 761 762 795 794
1 3 762 763 796 795
1 3 763 764 797 796
1 3 764 765 798 797
1 3 765 766 799 798
1 3 766 767 800 799
1 3 767 768 801 800
1 3 768 769 802 801
1 3 769 770 803 802
1 3 770 771 804 803
1 3 771 772 805 804
1 3 772 773 806 805
1 3 773 774 807 806
1 3 774 775 808 807
1 3 775 776 809 808
1 3 776 777 810 809
1 3 777 778 811 810
1 3 778 779 812 811
1 3 779 780 813 812
1 3 780 781 814 813
1 3 781 782 815 814
1 3 782 783 816 815
1 3 783 784 817 816
1 3 784 785 818 817
1 3 785 786 819 818
1 3 786 787 820 819
1 3 787 788 821 820
1 3 788 789 822 821
1 3 789 790 823 822
1 3 790 791 824 823
1 3 792 793 826 825
1 3 793 794 827 826
1 3 794 795 828 827
1 3 795 796 829 828
1 3 796 797 830 829
1 3 797 798 831 830
1 3 798 799 832 831
1 3 799 800 833 832
1 3 800 801 834 833
1 3 801 802 835 834
1 3 802 803 836 835
1 3 803 804 837 836
1 3 804 805 838 837
1 3 805 806 839 838
1 3 806 807 840 839
1 3 807 808 841 840
1 3 808 809 842 841
1 3 809 810 843 842
1 3 810 811 844 843
1 3 811 812 845 844
1 3 812 813 846 845
1 3 813 814 847 846
1 3 814 815 848 847
1 3 815 816 849 848
1 3 816 817 850 849
1 3 817 818 851 850
1 3 818 819 852 851
1 3 819 820 853 852
1 3 820 821 854 853
1 3 821 822 855 854
1 3 822 823 856 855
1 3 823 824 857 856
1 3 825 826 859 858
1 3 826 827 860 859
1 3 827 828 861 860
1 3 828 829 862 861
1 3 829 830 863 862
1 3 830 831 864 863
1 3 831 832 865 864
1 3 832 833 866 865
1 3 833 834 867 866
1 3 834 835 868 867
1 3 835 836 869 868
1 3 836 837 870 869
1 3 837 838 871 870
1 3 838 839 872 871
1 3 839 840 873 872
1 3 840 841 874 873
1 3 841 842 875 874
1 3 842 843 876 875
1 3 843 844 877 876
1 3 844 845 878 877
1 3 845 846 879 878
1 3 846 847 880 879
1 3 847 848 881 880
1 3 848 849 882 881
1 3 849 850 883 882
1 3 850 851 884 883
1 3 851 852 885 884
1 3 852 853 886 885
1 3 853 854 887 886
1 3 854 855 888 887
1 3 855 856 889 888
1 3 856 857 890 889
1 3 858 859 892 891
1 3 859 860 893 892
1 3 860 861 894 893
1 3 861 862 895 894
1 3 862 863 896 895
1 3 863 864 897 896
1 3 864 865 898 897
1 3 865 866 899 898
1 3 866 867 900 899
1 3 867 868 901 900
1 3 868 869 902 901
1 3 869 870 903 902
1 3 870 871 904 903
1 3 871 872 905 904
1 3 872 873 906 905
1 3 873 874 907 906
1 3 874 875 908 907
1 3 875 876 909 908
1 3 876 877 910 909
1 3 877 878 911 910
1 3 878 879 912 911
1 3 879 880 913 912
1 3 880 881 914 913
1 3 881 882 915 914
1 3 882 883 916 915
1 3 883 884 917 916
1 3 884 885 918 917
1 3 885 886 919 918
1 3 886 887 920 919
1 3 887 888 921 920
1 3 888 889 922 921
1 3 889 890 923 922
1 3 891 892 925 924
1 3 892 893 926 925
1 3 893 894 927 926
1 3 894 895 928 927
1 3 895 896 929 928
1 3 896 897 930 929
1 3 897 898 931 930
1 3 898 899 932 931
1 3 899 900 933 932
1 3 900 901 934 933
1 3 901 902 935 934
1 3 902 903 936 935
1 3 903 904 937 936
1 3 904 905 938 937
1 3 905 906 939 938
1 3 906 907 940 939
1 3 907 908 941 940
1 3 908 909 942 941
1 3 909 910 943 942
1 3 910 911 944 943
1 3 911 912 945 944
1 3 912 913 946 945
1 3 913 914 947 946
1 3 914 915 948 947
1 3 915 916 949 948
1 3 916 917 950 949
1 3 917 918 951 950
1 3 918 919 952 951
1 3 919 920 953 952
1 3 920 921 954 953
1 3 921 922 955 954
1 3 922 923 956 955
1 3 924 925 958 957
1 3 925 926 959 958
1 3 926 927 960 959
1 3 927 928 961 960
1 3 928 929 962 961
1 3 929 930 963 962
1 3 930 931 964 963
1 3 931 932 965 964
1 3 932 933 966 965
1 3 933 934 967 966
1 3 934 935 968 967
1 3 935 936 969 968
1 3 936 937 970 969
1 3 937 938 971 970
1 3 938 939 972 971
1 3 939 940 973 972
1 3 940 941 974 973
1 3 941 942 975 974
1 3 942 943 976 975
1 3 943 944 977 976
1 3 944 945 978 977
1 3 945 946 979 978
1 3 946 947 980 979
1 3 947 948 981 980
1 3 948 949 982 981
1 3 949 950 983 982
1 3 950 951 984 983
1 3 951 952 985 984
1 3 952 953 986 985
1 3 953 954 987 986
1 3 954 955 988 987
1 3 955 956 989 988
1 3 957 958 991 990
1 3 958 959 992 991
1 3 959 960 993 992
1 3 960 961 994 993
1 3 961 962 995 994
1 3 962 963 996 995
1 3 963 964 997 996
1 3 964 965 998 997
1 3 965 966 999 998
1 3 966 967 1000 999
1 3 967 968 1001 1000
1 3 968 969 1002 1001
1 3 969 970 1003 1002
1 3 970 971 1004 1003
1 3 971 972 1005 1004
1 3 972 973 1006 1005
1 3 973 974 1007 1006
1 3 974 975 1008 1007
1 3 975 976 1009 1008
1 3 976 977 1010 1009
1 3 977 978 1011 1010
1 3 978 979 1012 1011
1 3 979 980 1013 1012
1 3 980 981 1014 1013
1 3 981 982 1015 1014
1 3 982 983 1016 1015
1 3 983 984 1017 1016
1 3 984 985 1018 1017
1 3 985 986 1019 1018
1 3 986 987 1020 1019
1 3 987 988 1021 1020
1 3 988 989 1022 1021
1 3 990 991 1024 1023
1 3 991 992 1025 1024
1 3 992 993 1026 1025
1 3 993 994 1027 1026
1 3 994 995 1028 1027
1 3 995 996 1029 1028
1 3 996 997 1030 1029
1 3 997 998 1031 1030
1 3 998 999 1032 1031
1 3 999 1000 1033 1032
1 3 1000 1001 1034 1033
1 3 1001 1002 1035 1034
1 3 1002 1003 1036 1035
1 3 1003 1004 1037 1036
1 3 1004 1005 1038 1037
1 3 1005 1006 1039 1038
1 3 1006 1007 1040 1039
1 3 1007 1008 1041 1040
1 3 1008 1009 1042 1041
1 3 1009 1010 1043 1042
1 3 1010 1011 1044 1043
1 3 1011 1012 1045 1044
1 3 1012 1013 1046 1045
1 3 1013 1014 1047 1046
1 3 1014 1015 1048 1047
1 3 1015 1016 1049 1048
1 3 1016 1017 1050 1049
1 3 1017 1018 1051 1050
1 3 1018 1019 1052 1051
1 3 1019 1020 1053 1052
1 3 1020 1021 1054 1053
1 3 1021 1022 1055 1054
1 3 1023 1024 1057 1056
1 3 1024 1025 1058 1057
1 3 1025 1026 1059 1058
1 3 1026 1027 1060 1059
1 3 1027 1028 1061 1060
1 3 1028 1029 1062 1061
1 3 1029 1030 1063 1062
1 3 1030 1031 1064 1063
1 3 1031 1032 1065 1064
1 3 1032 1033 1066 1065
1 3 1033 1034 1067 1066
1 3 1034 1035 1068 1067
1 3 1035 1036 1069 1068
1 3 1036 1037 1070 1069
1 3 1037 1038 1071 1070
1 3 1038 1039 1072 1071
1 3 1039 1040 1073 1072
1 3 1040 1041 1074 1073
1 3 1041 1042 1075 1074
1 3 1042 1043 1076 1075
1 3 1043 1044 1077 1076
1 3 1044 1045 1078 1077
1 3 1045 1046 1079 1078
1 3 1046 1047 1080 1079
1 3 1047 1048 1081 1080
1 3 1048 1049 1082 1081
1 3 1049 1050 1083 1082
1 3 1050 1051 1084 1083
1 3 1051 1052 1085 1084
1 3 1052 1053 1086 1085
1 3 1053 1054 1087 1086
1 3 1054 1055 1088 1087

boundary
128
1 1 0 1
1 1 1057 1056
1 1 1 2
1 1 1058 1057
1 1 2 3
1 1 1059 1058
1 1 3 4
1 1 1060 1059
1 1 4 5
1 1 1061 1060
1 1 5 6
1 1 1062 1061
1 1 6 7
1 1 1063 1062
1 1 7 8
1 1 1064 1063
1 1 8 9
1 1 1065 1064
1 1 9 10
1 1 1066 1065
1 1 10 11
1 1 1067 1066
1 1 11 12
1 1 1068 1067
1 1 12 13
1 1 1069 1068
1 1 13 14
1 1 1070 1069
1 1 14 15
1 1 1071 1070
1 1 15 16
1 1 1072 1071
1 1 16 17
1 1 1073 1072
1 1 17 18
1 1 1074 1073
1 1 18 19
1 1 1075 1074
1 1 19 20
1 1 1076 1075
1 1 20 21
1 1 1077 1076
1 1 21 22
1 1 1078 1077
1 1 22 23
1 1 1079 1078
1 1 23 24
1 1 1080 1079
1 1 24 25
1 1 1081 1080
1 1 25 26
1 1 1082 1081
1 1 26 27
1 1 1083 1082
1 1 27 28
1 1 1084 1083
1 1 28 29
1 1 1085 1084
1 1 29 30
1 1 1086 1085
1 1 30 31
1 1 1087 1086
1 1 31 32
1 1 1088 1087
1 1 33 0
1 1 32 65
1 1 66 33
1 1 65 98
1 1 99 66
1 1 98 131
1 1 132 99
1 1 131 164
1 1 165 132
1 1 164 197
1 1 198 165
1 1 197 230
1 1 231 198
1 1 230 263
1 1 264 231
1 1 263 296
1 1 297 264
1 1 296 329
1 1 330 297
1 1 329 362
1 1 363 330
1 1 362 395
1 1 396 363
1 1 395 428
1 1 429 396
1 1 428 461
1 1 462 429
1 1 461 494
1 1 495 462
1 1 494 527
1 1 528 495
1 1 527 560
1 1 561 528
1 1 560 593
1 1 594 561
1 1 593 626
1 1 627 594
1 1 626 659
1 1 660 627
1 1 659 692
1 1 693 660
1 1 692 725
1 1 726 693
1 1 725 758
1 1 759 726
1 1 758 791
1 1 792 759
1 1 791 824
1 1 825 792
1 1 824 857
1 1 858 825
1 1 857 890
1 1 891 858
1 1 890 923
1 1 924 891
1 1 923 956
1 1 957 924
1 1 956 989
1 1 990 957
1 1 989 1022
1 1 1023 990
1 1 1022 1055
1 1 1056 1023
1 1 1055 1088

vertices
1089
2
0.0000000000000000e+00 -3.7000000000000002e+00
1.1562500000000001e-01 -3.7000000000000002e+00
2.3125000000000001e-01 -3.7000000000000002e+00
3.4687500000000004e-01 -3.7000000000000002e+00
4.6250000000000002e-01 -3.7000000000000002e+00
5.7812500000000000e-01 -3.7000000000000002e+00
6.9375000000000009e-01 -3.7000000000000002e+00
8.0937500000000007e-01 -3.7000000000000002e+00
9.2500000000000004e-01 -3.7000000000000002e+00
1.0406250000000001e+00 -3.7000000000000002e+00
1.1562500000000000e+00 -3.7000000000000002e+00
1.2718750000000001e+00 -3.7000000000000002e+00
1.3875000000000002e+00 -3.7000000000000002e+00
1.5031250000000000e+00 -3.7000000000000002e+00
1.6187500000000001e+00 -3.7000000000000002e+00
1.7343750000000000e+00 -3.7000000000000002e+00
1.8500000000000001e+00 -3.7000000000000002e+00
1.9656250000000002e+00 -3.7000000000000002e+00
2.0812500000000003e+00 -3.7000000000000002e+00
2.1968749999999999e+00 -3.7000000000000002e+00
2.3125000000000000e+00 -3.7000000000000002e+00
2.4281250000000001e+00 -3.7000000000000002e+00
2.5437500000000002e+00 -3.7000000000000002e+00
2.6593750000000003e+00 -3.7000000000000002e+00
2.7750000000000004e+00 -3.7000000000000002e+00
2.8906250000000000e+00 -3.7000000000000002e+00
3.0062500000000001e+00 -3.7000000000000002e+00
3.1218750000000002e+00 -3.7000000000000002e+00
3.2375000000000003e+00 -3.7000000000000002e+00
3.3531250000000004e+00 -3.7000000000000002e+00
3.4687500000000000e+00 -3.7000000000000002e+00
3.5843750000000001e+00 -3.7000000000000002e+00
3.7000000000000002e+00 -3.7000000000000002e+00
0.0000000000000000e+00 -3.4687500000000000e+00
1.1562500000000001e-01 -3.4687500000000000e+00
2.3125000000000001e-01 -3.4687500000000000e+00
3.4687500000000004e-01 -3.4687500000000000e+00
4.6250000000000002e-01 -3.4687500000000000e+00
5.7812500000000000e-01 -3.4687500000000000e+00
6.9375000000000009e-01 -3.4687500000000000e+00
8.0937500000000007e-01 -3.4687500000000000e+00
9.2500000000000004e-01 -3.4687500000000000e+00
1.0406250000000001e+00 -3.4687500000000000e+00
1.1562500000000000e+00 -3.4687500000000000e+00
1.2718750000000001e+00 -3.4687500000000000e+00
1.3875000000000002e+00 -3.4687500000000000e+00
1.5031250000000000e+00 -3.4687500000000000e+00
1.6187500000000001e+00 -3.4687500000000000e+00
1.7343750000000000e+00 -3.4687500000000000e+00
1.8500000000000001e+00 -3.4687500000000000e+00
1.9656250000000002e+00 -3.4687500000000000e+00
2.0812500000000003e+00 -3.4687500000000000e+00
2.1968749999999999e+00 -3.4687500000000000e+00
2.3125000000000000e+00 -3.4687500000000000e+00
2.4281250000000001e+00 -3.4687500000000000e+00
2.5437500000000002e+00 -3.4687500000000000e+00
2.6593750000000003e+00 -3.4687500000000000e+00
2.7750000000000004e+00 -3.4687500000000000e+00
2.8906250000000000e+00 -3.4687500000000000e+00
3.0062500000000001e+00 -3.4687500000000000e+00
3.1218750000000002e+00 -3.4687500000000000e+00
3.2375000000000003e+00 -3.4687500000000000e+00
3.3531250000000004e+00 -3.4687500000000000e+00
3.4687500000000000e+00 -3.4687500000000000e+00
3.5843750000000001e+00 -3.4687500000000000e+00
3.7000000000000002e+00 -3.4687500000000000e+00
0.0000000000000000e+00 -3.2375000000000003e+00
1.1562500000000001e-01 -3.2375000000000003e+00
2.3125000000000001e-01 -3.2375000000000003e+00
3.4687500000000004e-01 -3.2375000000000003e+00
4.6250000000000002e-01 -3.2375000000000003e+00
5.7812500000000000e-01 -3.2375000000000003e+00
6.9375000000000009e-01 -3.2375000000000003e+00
8.0937500000000007e-01 -3.2375000000000003e+00
9.2500000000000004e-01 -3.2375000000000003e+00
1.0406250000000001e+00 -3.2375000000000003e+00
1.1562500000000000e+00 -3.2375000000000003e+00
1.2718750000000001e+00 -3.2375000000000003e+00
1.3875000000000002e+00 -3.2375000000000003e+00
1.5031250000000000e+00 -3.2375000000000003e+00
1.6187500000000001e+00 -3.2375000000000003e+00
1.7343750000000000e+00 -3.2375000000000003e+00
1.8500000000000001e+00 -3.2375000000000003e+00
1.9656250000000002e+00 -3.2375000000000003e+00
2.0812500000000003e+00 -3.2375000000000003e+00
2.1968749999999999e+00 -3.2375000000000003e+00
2.3125000000000000e+00 -3.2375000000000003e+00
2.4281250000000001e+00 -3.2375000000000003e+00
2.5437500000000002e+00 -3.2375000000000003e+00
2.6593750000000003e+00 -3.2375000000000003e+00
2.7750000000000004e+00 -3.2375000000000003e+00
2.8906250000000000e+00 -3.2375000000000003e+00
3.0062500000000001e+00 -3.2375000000000003e+00
3.1218750000000002e+00 -3.2375000000000003e+00
3.2375000000000003e+00 -3.2375000000000003e+00
3.3531250000000004e+00 -3.2375000000000003e+00
3.4687500000000000e+00 -3.2375000000000003e+00
3.5843750000000001e+00 -3.2375000000000003e+00
3.7000000000000002e+00 -3.2375000000000003e+00
0.0000000000000000e+00 -3.0062500000000001e+00
1.1562500000000001e-01 -3.0062500000000001e+00
2.3125000000000001e-01 -3.0062500000000001e+00
3.4687500000000004e-01 -3.0062500000000001e+00
4.6250000000000002e-01 -3.0062500000000001e+00
5.7812500000000000e-01 -3.0062500000000001e+00
6.9375000000000009e-01 -3.0062500000000001e+00
8.0937500000000007e-01 -3.0062500000000001e+00
9.2500000000000004e-01 -3.0062500000000001e+00
1.0406250000000001e+00 -3.0062500000000001e+00
1.1562500000000000e+00 -3.0062500000000001e+00
1.2718750000000001e+00 -3.0062500000000001e+00
1.3875000000000002e+00 -3.0062500000000001e+00
1.5031250000000000e+00 -3.0062500000000001e+00
1.6187500000000001e+00 -3.0062500000000001e+00
1.7343750000000000e+00 -3.0062500000000001e+00
1.8500000000000001e+00 -3.0062500000000001e+00
1.9656250000000002e+00 -3.0062500000000001e+00
2.0812500000000003e+00 -3.0062500000000001e+00
2.1968749999999999e+00 -3.0062500000000001e+00
2.3125000000000000e+00 -3.0062500000000001e+00
2.4281250000000001e+00 -3.0062500000000001e+00
2.5437500000000002e+00 -3.0062500000000001e+00
2.6593750000000003e+00 -3.0062500000000001e+00
2.7750000000000004e+00 -3.0062500000000001e+00
2.8906250000000000e+00 -3.0062500000000001e+00
3.0062500000000001e+00 -3.0062500000000001e+00
3.1218750000000002e+00 -3.0062500000000001e+00
3.2375000000000003e+00 -3.0062500000000001e+00
3.3531250000000004e+00 -3.0062500000000001e+00
3.4687500000000000e+00 -3.0062500000000001e+00
3.5843750000000001e+00 -3.0062500000000001e+00
3.7000000000000002e+00 -3.0062500000000001e+00
0.0000000000000000e+00 -2.7750000000000004e+00
1.1562500000000001e-01 -2.7750000000000004e+00
2.3125000000000001e-01 -2.7750000000000004e+00
3.4687500000000004e-01 -2.7750000000000004e+00
4.6250000000000002e-01 -2.7750000000000004e+00
5.7812500000000000e-01 -2.7750000000000004e+00
6.9375000000000009e-01 -2.7750000000000004e+00
8.0937500000000007e-01 -2.7750000000000004e+00
9.2500000000000004e-01 -2.7750000000000004e+00
1.0406250000000001e+00 -2.7750000000000004e+00
1.1562500000000000e+00 -2.7750000000000004e+00
1.2718750000000001e+00 -2.7750000000000004e+00
1.3875000000000002e+00 -2.7750000000000004e+00
1.5031250000000000e+00 -2.7750000000000004e+00
1.6187500000000001e+00 -2.7750000000000004e+00
1.7343750000000000e+00 -2.7750000000000004e+00
1.8500000000000001e+00 -2.7750000000000004e+00
1.9656250000000002e+00 -2.7750000000000004e+00
2.0812500000000003e+00 -2.7750000000000004e+00
2.1968749999999999e+00 -2.7750000000000004e+00
2.3125000000000000e+00 -2.7750000000000004e+00
2.4281250000000001e+00 -2.7750000000000004e+00
2.5437500000000002e+00 -2.7750000000000004e+00
2.6593750000000003e+00 -2.7750000000000004e+00
2.7750000000000004e+00 -2.7750000000000004e+00
2.8906250000000000e+00 -2.7750000000000004e+00
3.0062500000000001e+00 -2.7750000000000004e+00
3.1218750000000002e+00 -2.7750000000000004e+00
3.2375000000000003e+00 -2.7750000000000004e+00
3.3531250000000004e+00 -2.7750000000000004e+00
3.4687500000000000e+00 -2.7750000000000004e+00
3.5843750000000001e+00 -2.7750000000000004e+00
3.7000000000000002e+00 -2.7750000000000004e+00
0.0000000000000000e+00 -2.5437500000000002e+00
1.1562500000000001e-01 -2.5437500000000002e+00
2.3125000000000001e-01 -2.5437500000000002e+00
3.4687500000000004e-01 -2.5437500000000002e+00
4.6250000000000002e-01 -2.5437500000000002e+00
5.7812500000000000e-01 -2.5437500000000002e+00
6.9375000000000009e-01 -2.5437500000000002e+00
8.0937500000000007e-01 -2.5437500000000002e+00
9.2500000000000004e-01 -2.5437500000000002e+00
1.0406250000000001e+00 -2.5437500000000002e+00
1.1562500000000000e+00 -2.5437500000000002e+00
1.2718750000000001e+00 -2.5437500000000002e+00
1.3875000000000002e+00 -2.5437500000000002e+00
1.5031250000000000e+00 -2.5437500000000002e+00
1.6187500000000001e+00 -2.5437500000000002e+00
1.7343750000000000e+00 -2.5437500000000002e+00
1.8500000000000001e+00 -2.5437500000000002e+00
1.9656250000000002e+00 -2.5437500000000002e+00
2.0812500000000003e+00 -2.5437500000000002e+00
2.1968749999999999e+00 -2.5437500000000002e+00
2.3125000000000000e+00 -2.5437500000000002e+00
2.4281250000000001e+00 -2.5437500000000002e+00
2.5437500000000002e+00 -2.5437500000000002e+00
2.6593750000000003e+00 -2.5437500000000002e+00
2.7750000000000004e+00 -2.5437500000000002e+00
2.8906250000000000e+00 -2.5437500000000002e+00
3.0062500000000001e+00 -2.5437500000000002e+00
3.1218750000000002e+00 -2.5437500000000002e+00
3.2375000000000003e+00 -2.5437500000000002e+00
3.3531250000000004e+00 -2.5437500000000002e+00
3.4687500000000000e+00 -2.5437500000000002e+00
3.5843750000000001e+00 -2.5437500000000002e+00
3.7000000000000002e+00 -2.5437500000000002e+00
0.0000000000000000e+00 -2.3125000000000000e+00
1.1562500000000001e-01 -2.3125000000000000e+00
2.3125000000000001e-01 -2.3125000000000000e+00
3.4687500000000004e-01 -2.3125000000000000e+00
4.6250000000000002e-01 -2.3125000000000000e+00
5.7812500000000000e-01 -2.3125000000000000e+00
6.9375000000000009e-01 -2.3125000000000000e+00
8.0937500000000007e-01 -2.3125000000000000e+00
9.2500000000000004e-01 -2.3125000000000000e+00
1.0406250000000001e+00 -2.3125000000000000e+00
1.1562500000000000e+00 -2.3125000000000000e+00
1.2718750000000001e+00 -2.3125000000000000e+00
1.3875000000000002e+00 -2.3125000000000000e+00
1.5031250000000000e+00 -2.3125000000000000e+00
1.6187500000000001e+00 -2.3125000000000000e+00
1.7343750000000000e+00 -2.3125000000000000e+00
1.8500000000000001e+00 -2.3125000000000000e+00
1.9656250000000002e+00 -2.3125000000000000e+00
2.0812500000000003e+00 -2.3125000000000000e+00
2.1968749999999999e+00 -2.3125000000000000e+00
2.3125000000000000e+00 -2.3125000000000000e+00
2.4281250000000001e+00 -2.3125000000000000e+00
2.5437500000000002e+00 -2.3125000000000000e+00
2.6593750000000003e+00 -2.3125000000000000e+00
2.7750000000000004e+00 -2.3125000000000000e+00
2.8906250000000000e+00 -2.3125000000000000e+00
3.0062500000000001e+00 -2.3125000000000000e+00
3.1218750000000002e+00 -2.3125000000000000e+00
3.2375000000000003e+00 -2.3125000000000000e+00
3.3531250000000004e+00 -2.3125000000000000e+00
3.4687500000000000e+00 -2.3125000000000000e+00
3.5843750000000001e+00 -2.3125000000000000e+00
3.7000000000000002e+00 -2.3125000000000000e+00
0.0000000000000000e+00 -2.0812499999999998e+00
1.1562500000000001e-01 -2.0812499999999998e+00
2.3125000000000001e-01 -2.0812499999999998e+00
3.4687500000000004e-01 -2.0812499999999998e+00
4.6250000000000002e-01 -2.0812499999999998e+00
5.7812500000000000e-01 -2.0812499999999998e+00
6.9375000000000009e-01 -2.0812499999999998e+00
8.0937500000000007e-01 -2.0812499999999998e+00
9.2500000000000004e-01 -2.0812499999999998e+00
1.0406250000000001e+00 -2.0812499999999998e+00
1.1562500000000000e+00 -2.0812499999999998e+00
1.2718750000000001e+00 -2.0812499999999998e+00
1.3875000000000002e+00 -2.0812499999999998e+00
1.5031250000000000e+00 -2.0812499999999998e+00
1.6187500000000001e+00 -2.0812499999999998e+00
1.7343750000000000e+00 -2.0812499999999998e+00
1.8500000000000001e+00 -2.0812499999999998e+00
1.9656250000000002e+00 -2.0812499999999998e+00
2.0812500000000003e+00 -2.0812499999999998e+00
2.1968749999999999e+00 -2.0812499999999998e+00
2.3125000000000000e+00 -2.0812499999999998e+00
2.4281250000000001e+00 -2.0812499999999998e+00
2.5437500000000002e+00 -2.0812499999999998e+00
2.6593750000000003e+00 -2.0812499999999998e+00
2.7750000000000004e+00 -2.0812499999999998e+00
2.8906250000000000e+00 -2.0812499999999998e+00
3.0062500000000001e+00 -2.0812499999999998e+00
3.1218750000000002e+00 -2.0812499999999998e+00
3.2375000000000003e+00 -2.0812499999999998e+00
3.3531250000000004e+00 -2.0812499999999998e+00
3.4687500000000000e+00 -2.0812499999999998e+00
3.5843750000000001e+00 -2.0812499999999998e+00
3.7000000000000002e+00 -2.0812499999999998e+00
0.0000000000000000e+00 -1.8500000000000001e+00
1.1562500000000001e-01 -1.8500000000000001e+00
2.3125000000000001e-01 -1.8500000000000001e+00
3.4687500000000004e-01 -1.8500000000000001e+00
4.6250000000000002e-01 -1.8500000000000001e+00
5.7812500000000000e-01 -1.8500000000000001e+00
6.9375000000000009e-01 -1.8500000000000001e+00
8.0937500000000007e-01 -1.8500000000000001e+00
9.2500000000000004e-01 -1.8500000000000001e+00
1.0406250000000001e+00 -1.8500000000000001e+00
1.1562500000000000e+00 -1.8500000000000001e+00
1.2718750000000001e+00 -1.8500000000000001e+00
1.3875000000000002e+00 -1.8500000000000001e+00
1.5031250000000000e+00 -1.8500000000000001e+00
1.6187500000000001e+00 -1.8500000000000001e+00
1.7343750000000000e+00 -1.8500000000000001e+00
1.8500000000000001e+00 -1.8500000000000001e+00
1.9656250000000002e+00 -1.8500000000000001e+00
2.0812500000000003e+00 -1.8500000000000001e+00
2.1968749999999999e+00 -1.8500000000000001e+00
2.3125000000000000e+00 -1.8500000000000001e+00
2.4281250000000001e+00 -1.8500000000000001e+00
2.5437500000000002e+00 -1.8500000000000001e+00
2.6593750000000003e+00 -1.8500000000000001e+00
2.7750000000000004e+00 -1.8500000000000001e+00
2.8906250000000000e+00 -1.8500000000000001e+00
3.0062500000000001e+00 -1.8500000000000001e+00
3.1218750000000002e+00 -1.8500000000000001e+00
3.2375000000000003e+00 -1.8500000000000001e+00
3.3531250000000004e+00 -1.8500000000000001e+00
3.4687500000000000e+00 -1.8500000000000001e+00
3.5843750000000001e+00 -1.8500000000000001e+00
3.7000000000000002e+00 -1.8500000000000001e+00
0.0000000000000000e+00 -1.6187499999999999e+00
1.1562500000000001e-01 -1.6187499999999999e+00
2.3125000000000001e-01 -1.6187499999999999e+00
3.4687500000000004e-01 -1.6187499999999999e+00
4.6250000000000002e-01 -1.6187499999999999e+00
5.7812500000000000e-01 -1.6187499999999999e+00
6.9375000000000009e-01 -1.6187499999999999e+00
8.0937500000000007e-01 -1.6187499999999999e+00
9.2500000000000004e-01 -1.6187499999999999e+00
1.0406250000000001e+00 -1.6187499999999999e+00
1.1562500000000000e+00 -1.6187499999999999e+00
1.2718750000000001e+00 -1.6187499999999999e+00
1.3875000000000002e+00 -1.6187499999999999e+00
1.5031250000000000e+00 -1.6187499999999999e+00
1.6187500000000001e+00 -1.6187499999999999e+00
1.7343750000000000e+00 -1.6187499999999999e+00
1.8500000000000001e+00 -1.6187499999999999e+00
1.9656250000000002e+00 -1.6187499999999999e+00
2.0812500000000003e+00 -1.6187499999999999e+00
2.1968749999999999e+00 -1.6187499999999999e+00
2.3125000000000000e+00 -1.6187499999999999e+00
2.4281250000000001e+00 -1.6187499999999999e+00
2.5437500000000002e+00 -1.6187499999999999e+00
2.6593750000000003e+00 -1.6187499999999999e+00
2.7750000000000004e+00 -1.6187499999999999e+00
2.8906250000000000e+00 -1.6187499999999999e+00
3.0062500000000001e+00 -1.6187499999999999e+00
3.1218750000000002e+00 -1.6187499999999999e+00
3.2375000000000003e+00 -1.6187499999999999e+00
3.3531250000000004e+00 -1.6187499999999999e+00
3.4687500000000000e+00 -1.6187499999999999e+00
3.5843750000000001e+00 -1.6187499999999999e+00
3.7000000000000002e+00 -1.6187499999999999e+00
0.0000000000000000e+00 -1.3875000000000002e+00
1.1562500000000001e-01 -1.3875000000000002e+00
2.3125000000000001e-01 -1.3875000000000002e+00
3.4687500000000004e-01 -1.3875000000000002e+00
4.6250000000000002e-01 -1.3875000000000002e+00
5.7812500000000000e-01 -1.3875000000000002e+00
6.9375000000000009e-01 -1.3875000000000002e+00
8.0937500000000007e-01 -1.3875000000000002e+00
9.2500000000000004e-01 -1.3875000000000002e+00
1.0406250000000001e+00 -1.3875000000000002e+00
1.1562500000000000e+00 -1.3875000000000002e+00
1.2718750000000001e+00 -1.3875000000000002e+00
1.3875000000000002e+00 -1.3875000000000002e+00
1.5031250000000000e+00 -1.3875000000000002e+00
1.6187500000000001e+00 -1.3875000000000002e+00
1.7343750000000000e+00 -1.3875000000000002e+00
1.8500000000000001e+00 -1.3875000000000002e+00
1.9656250000000002e+00 -1.3875000000000002e+00
2.0812500000000003e+00 -1.3875000000000002e+00
2.1968749999999999e+00 -1.3875000000000002e+00
2.3125000000000000e+00 -1.3875000000000002e+00
2.4281250000000001e+00 -1.3875000000000002e+00
2.5437500000000002e+00 -1.3875000000000002e+00
2.6593750000000003e+00 -1.3875000000000002e+00
2.7750000000000004e+00 -1.3875000000000002e+00
2.8906250000000000e+00 -1.3875000000000002e+00
3.0062500000000001e+00 -1.3875000000000002e+00
3.1218750000000002e+00 -1.3875000000000002e+00
3.2375000000000003e+00 -1.3875000000000002e+00
3.3531250000000004e+00 -1.3875000000000002e+00
3.4687500000000000e+00 -1.3875000000000002e+00
3.5843750000000001e+00 -1.3875000000000002e+00
3.7000000000000002e+00 -1.3875000000000002e+00
0.0000000000000000e+00 -1.1562500000000000e+00
1.1562500000000001e-01 -1.1562500000000000e+00
2.3125000000000001e-01 -1.1562500000000000e+00
3.4687500000000004e-01 -1.1562500000000000e+00
4.6250000000000002e-01 -1.1562500000000000e+00
5.7812500000000000e-01 -1.1562500000000000e+00
6.9375000000000009e-01 -1.1562500000000000e+00
8.0937500000000007e-01 -1.1562500000000000e+00
9.2500000000000004e-01 -1.1562500000000000e+00
1.0406250000000001e+00 -1.1562500000000000e+00
1.1562500000000000e+00 -1.1562500000000000e+00
1.2718750000000001e+00 -1.1562500000000000e+00
1.3875000000000002e+00 -1.1562500000000000e+00
1.5031250000000000e+00 -1.1562500000000000e+00
1.6187500000000001e+00 -1.1562500000000000e+00
1.7343750000000000e+00 -1.1562500000000000e+00
1.8500000000000001e+00 -1.1562500000000000e+00
1.9656250000000002e+00 -1.1562500000000000e+00
2.0812500000000003e+00 -1.1562500000000000e+00
2.1968749999999999e+00 -1.1562500000000000e+00
2.3125000000000000e+00 -1.1562500000000000e+00
2.4281250000000001e+00 -1.1562500000000000e+00
2.5437500000000002e+00 -1.1562500000000000e+00
2.6593750000000003e+00 -1.1562500000000000e+00
2.7750000000000004e+00 -1.1562500000000000e+00
2.8906250000000000e+00 -1.1562500000000000e+00
3.0062500000000001e+00 -1.1562500000000000e+00
3.1218750000000002e+00 -1.1562500000000000e+00
3.2375000000000003e+00 -1.1562500000000000e+00
3.3531250000000004e+00 -1.1562500000000000e+00
3.4687500000000000e+00 -1.1562500000000000e+00
3.5843750000000001e+00 -1.1562500000000000e+00
3.7000000000000002e+00 -1.1562500000000000e+00
0.0000000000000000e+00 -9.2499999999999982e-01
1.1562500000000001e-01 -9.2499999999999982e-01
2.3125000000000001e-01 -9.2499999999999982e-01
3.4687500000000004e-01 -9.2499999999999982e-01
4.6250000000000002e-01 -9.2499999999999982e-01
5.7812500000000000e-01 -9.2499999999999982e-01
6.9375000000000009e-01 -9.2499999999999982e-01
8.0937500000000007e-01 -9.2499999999999982e-01
9.2500000000000004e-01 -9.2499999999999982e-01
1.0406250000000001e+00 -9.2499999999999982e-01
1.1562500000000000e+00 -9.2499999999999982e-01
1.2718750000000001e+00 -9.2499999999999982e-01
1.3875000000000002e+00 -9.2499999999999982e-01
1.5031250000000000e+00 -9.2499999999999982e-01
1.6187500000000001e+00 -9.2499999999999982e-01
1.7343750000000000e+00 -9.2499999999999982e-01
1.8500000000000001e+00 -9.2499999999999982e-01
1.9656250000000002e+00 -9.2499999999999982e-01
2.0812500000000003e+00 -9.2499999999999982e-01
2.1968749999999999e+00 -9.2499999999999982e-01
2.3125000000000000e+00 -9.2499999999999982e-01
2.4281250000000001e+00 -9.2499999999999982e-01
2.5437500000000002e+00 -9.2499999999999982e-01
2.6593750000000003e+00 -9.2499999999999982e-01
2.7750000000000004e+00 -9.2499999999999982e-01
2.8906250000000000e+00 -9.2499999999999982e-01
3.0062500000000001e+00 -9.2499999999999982e-01
3.1218750000000002e+00 -9.2499999999999982e-01
3.2375000000000003e+00 -9.2499999999999982e-01
3.3531250000000004e+00 -9.2499999999999982e-01
3.4687500000000000e+00 -9.2499999999999982e-01
3.5843750000000001e+00 -9.2499999999999982e-01
3.7000000000000002e+00 -9.2499999999999982e-01
0.0000000000000000e+00 -6.9375000000000009e-01
1.1562500000000001e-01 -6.9375000000000009e-01
2.3125000000000001e-01 -6.9375000000000009e-01
3.4687500000000004e-01 -6.9375000000000009e-01
4.6250000000000002e-01 -6.9375000000000009e-01
5.7812500000000000e-01 -6.9375000000000009e-01
6.9375000000000009e-01 -6.9375000000000009e-01
8.0937500000000007e-01 -6.9375000000000009e-01
9.2500000000000004e-01 -6.9375000000000009e-01
1.0406250000000001e+00 -6.9375000000000009e-01
1.1562500000000000e+00 -6.9375000000000009e-01
1.2718750000000001e+00 -6.9375000000000009e-01
1.3875000000000002e+00 -6.9375000000000009e-01
1.5031250000000000e+00 -6.9375000000000009e-01
1.6187500000000001e+00 -6.9375000000000009e-01
1.7343750000000000e+00 -6.9375000000000009e-01
1.8500000000000001e+00 -6.9375000000000009e-01
1.9656250000000002e+00 -6.9375000000000009e-01
2.0812500000000003e+00 -6.9375000000000009e-01
2.1968749999999999e+00 -6.9375000000000009e-01
2.3125000000000000e+00 -6.9375000000000009e-01
2.4281250000000001e+00 -6.9375000000000009e-01
2.5437500000000002e+00 -6.9375000000000009e-01
2.6593750000000003e+00 -6.9375000000000009e-01
2.7750000000000004e+00 -6.9375000000000009e-01
2.8906250000000000e+00 -6.9375000000000009e-01
3.0062500000000001e+00 -6.9375000000000009e-01
3.1218750000000002e+00 -6.9375000000000009e-01
3.2375000000000003e+00 -6.9375000000000009e-01
3.3531250000000004e+00 -6.9375000000000009e-01
3.4687500000000000e+00 -6.9375000000000009e-01
3.5843750000000001e+00 -6.9375000000000009e-01
3.7000000000000002e+00 -6.9375000000000009e-01
0.0000000000000000e+00 -4.6249999999999991e-01
1.1562500000000001e-01 -4.6249999999999991e-01
2.3125000000000001e-01 -4.6249999999999991e-01
3.4687500000000004e-01 -4.6249999999999991e-01
4.6250000000000002e-01 -4.6249999999999991e-01
5.7812500000000000e-01 -4.6249999999999991e-01
6.9375000000000009e-01 -4.6249999999999991e-01
8.0937500000000007e-01 -4.6249999999999991e-01
9.2500000000000004e-01 -4.6249999999999991e-01
1.0406250000000001e+00 -4.6249999999999991e-01
1.1562500000000000e+00 -4.6249999999999991e-01
1.2718750000000001e+00 -4.6249999999999991e-01
1.3875000000000002e+00 -4.6249999999999991e-01
1.5031250000000000e+00 -4.6249999999999991e-01
1.6187500000000001e+00 -4.6249999999999991e-01
1.7343750000000000e+00 -4.6249999999999991e-01
1.8500000000000001e+00 -4.6249999999999991e-01
1.9656250000000002e+00 -4.6249999999999991e-01
2.0812500000000003e+00 -4.6249999999999991e-01
2.1968749999999999e+00 -4.6249999999999991e-01
2.3125000000000000e+00 -4.6249999999999991e-01
2.4281250000000001e+00 -4.6249999999999991e-01
2.5437500000000002e+00 -4.6249999999999991e-01
2.6593750000000003e+00 -4.6249999999999991e-01
2.7750000000000004e+00 -4.6249999999999991e-01
2.8906250000000000e+00 -4.6249999999999991e-01
3.0062500000000001e+00 -4.6249999999999991e-01
3.1218750000000002e+00 -4.6249999999999991e-01
3.2375000000000003e+00 -4.6249999999999991e-01
3.3531250000000004e+00 -4.6249999999999991e-01
3.4687500000000000e+00 -4.6249999999999991e-01
3.5843750000000001e+00 -4.6249999999999991e-01
3.7000000000000002e+00 -4.6249999999999991e-01
0.0000000000000000e+00 -2.3125000000000018e-01
1.1562500000000001e-01 -2.3125000000000018e-01
2.3125000000000001e-01 -2.3125000000000018e-01
3.4687500000000004e-01 -2.3125000000000018e-01
4.6250000000000002e-01 -2.3125000000000018e-01
5.7812500000000000e-01 -2.3125000000000018e-01
6.9375000000000009e-01 -2.3125000000000018e-01
8.0937500000000007e-01 -2.3125000000000018e-01
9.2500000000000004e-01 -2.3125000000000018e-01
1.0406250000000001e+00 -2.3125000000000018e-01
1.1562500000000000e+00 -2.3125000000000018e-01
1.2718750000000001e+00 -2.3125000000000018e-01
1.3875000000000002e+00 -2.3125000000000018e-01
1.5031250000000000e+00 -2.3125000000000018e-01
1.6187500000000001e+00 -2.3125000000000018e-01
1.7343750000000000e+00 -2.3125000000000018e-01
1.8500000000000001e+00 -2.3125000000000018e-01
1.9656250000000002e+00 -2.3125000000000018e-01
2.0812500000000003e+00 -2.3125000000000018e-01
2.1968749999999999e+00 -2.3125000000000018e-01
2.3125000000000000e+00 -2.3125000000000018e-01
2.4281250000000001e+00 -2.3125000000000018e-01
2.5437500000000002e+00 -2.3125000000000018e-01
2.6593750000000003e+00 -2.3125000000000018e-01
2.7750000000000004e+00 -2.3125000000000018e-01
2.8906250000000000e+00 -2.3125000000000018e-01
3.0062500000000001e+00 -2.3125000000000018e-01
3.1218750000000002e+00 -2.3125000000000018e-01
3.2375000000000003e+00 -2.3125000000000018e-01
3.3531250000000004e+00 -2.3125000000000018e-01
3.4687500000000000e+00 -2.3125000000000018e-01
3.5843750000000001e+00 -2.3125000000000018e-01
3.7000000000000002e+00 -2.3125000000000018e-01
0.0000000000000000e+00 0.0000000000000000e+00
1.1562500000000001e-01 0.0000000000000000e+00
2.3125000000000001e-01 0.0000000000000000e+00
3.4687500000000004e-01 0.0000000000000000e+00
4.6250000000000002e-01 0.0000000000000000e+00
5.7812500000000000e-01 0.0000000000000000e+00
6.9375000000000009e-01 0.0000000000000000e+00
8.0937500000000007e-01 0.0000000000000000e+00
9.2500000000000004e-01 0.0000000000000000e+00
1.0406250000000001e+00 0.0000000000000000e+00
1.1562500000000000e+00 0.0000000000000000e+00
1.2718750000000001e+00 0.0000000000000000e+00
1.3875000000000002e+00 0.0000000000000000e+00
1.5031250000000000e+00 0.0000000000000000e+00
1.6187500000000001e+00 0.0000000000000000e+00
1.7343750000000000e+00 0.0000000000000000e+00
1.8500000000000001e+00 0.0000000000000000e+00
1.9656250000000002e+00 0.0000000000000000e+00
2.0812500000000003e+00 0.0000000000000000e+00
2.1968749999999999e+00 0.0000000000000000e+00
2.3125000000000000e+00 0.0000000000000000e+00
2.4281250000000001e+00 0.0000000000000000e+00
2.5437500000000002e+00 0.0000000000000000e+00
2.6593750000000003e+00 0.0000000000000000e+00
2.7750000000000004e+00 0.0000000000000000e+00
2.8906250000000000e+00 0.0000000000000000e+00
3.0062500000000001e+00 0.0000000000000000e+00
3.1218750000000002e+00 0.0000000000000000e+00
3.2375000000000003e+00 0.0000000000000000e+00
3.3531250000000004e+00 0.0000000000000000e+00
3.4687500000000000e+00 0.0000000000000000e+00
3.5843750000000001e+00 0.0000000000000000e+00
3.7000000000000002e+00 0.0000000000000000e+00
0.0000000000000000e+00 2.3125000000000018e-01
1.1562500000000001e-01 2.3125000000000018e-01
2.3125000000000001e-01 2.3125000000000018e-01
3.4687500000000004e-01 2.3125000000000018e-01
4.6250000000000002e-01 2.3125000000000018e-01
5.7812500000000000e-01 2.3125000000000018e-01
6.9375000000000009e-01 2.3125000000000018e-01
8.0937500000000007e-01 2.3125000000000018e-01
9.2500000000000004e-01 2.3125000000000018e-01
1.0406250000000001e+00 2.3125000000000018e-01
1.1562500000000000e+00 2.3125000000000018e-01
1.2718750000000001e+00 2.3125000000000018e-01
1.3875000000000002e+00 2.3125000000000018e-01
1.5031250000000000e+00 2.3125000000000018e-01
1.6187500000000001e+00 2.3125000000000018e-01
1.7343750000000000e+00 2.3125000000000018e-01
1.8500000000000001e+00 2.3125000000000018e-01
1.9656250000000002e+00 2.3125000000000018e-01
2.0812500000000003e+00 2.3125000000000018e-01
2.1968749999999999e+00 2.3125000000000018e-01
2.3125000000000000e+00 2.3125000000000018e-01
2.4281250000000001e+00 2.3125000000000018e-01
2.5437500000000002e+00 2.3125000000000018e-01
2.6593750000000003e+00 2.3125000000000018e-01
2.7750000000000004e+00 2.3125000000000018e-01
2.8906250000000000e+00 2.3125000000000018e-01
3.0062500000000001e+00 2.3125000000000018e-01
3.1218750000000002e+00 2.3125000000000018e-01
3.2375000000000003e+00 2.3125000000000018e-01
3.3531250000000004e+00 2.3125000000000018e-01
3.4687500000000000e+00 2.3125000000000018e-01
3.5843750000000001e+00 2.3125000000000018e-01
3.7000000000000002e+00 2.3125000000000018e-01
0.0000000000000000e+00 4.6250000000000036e-01
1.1562500000000001e-01 4.6250000000000036e-01
2.3125000000000001e-01 4.6250000000000036e-01
3.4687500000000004e-01 4.6250000000000036e-01
4.6250000000000002e-01 4.6250000000000036e-01
5.7812500000000000e-01 4.6250000000000036e-01
6.9375000000000009e-01 4.6250000000000036e-01
8.0937500000000007e-01 4.6250000000000036e-01
9.2500000000000004e-01 4.6250000000000036e-01
1.0406250000000001e+00 4.6250000000000036e-01
1.1562500000000000e+00 4.6250000000000036e-01
1.2718750000000001e+00 4.6250000000000036e-01
1.3875000000000002e+00 4.6250000000000036e-01
1.5031250000000000e+00 4.6250000000000036e-01
1.6187500000000001e+00 4.6250000000000036e-01
1.7343750000000000e+00 4.6250000000000036e-01
1.8500000000000001e+00 4.6250000000000036e-01
1.9656250000000002e+00 4.6250000000000036e-01
2.0812500000000003e+00 4.6250000000000036e-01
2.1968749999999999e+00 4.6250000000000036e-01
2.3125000000000000e+00 4.6250000000000036e-01
2.4281250000000001e+00 4.6250000000000036e-01
2.5437500000000002e+00 4.6250000000000036e-01
2.6593750000000003e+00 4.6250000000000036e-01
2.7750000000000004e+00 4.6250000000000036e-01
2.8906250000000000e+00 4.6250000000000036e-01
3.0062500000000001e+00 4.6250000000000036e-01
3.1218750000000002e+00 4.6250000000000036e-01
3.2375000000000003e+00 4.6250000000000036e-01
3.3531250000000004e+00 4.6250000000000036e-01
3.4687500000000000e+00 4.6250000000000036e-01
3.5843750000000001e+00 4.6250000000000036e-01
3.7000000000000002e+00 4.6250000000000036e-01
0.0000000000000000e+00 6.9374999999999964e-01
1.1562500000000001e-01 6.9374999999999964e-01
2.3125000000000001e-01 6.9374999999999964e-01
3.4687500000000004e-01 6.9374999999999964e-01
4.6250000000000002e-01 6.9374999999999964e-01
5.7812500000000000e-01 6.9374999999999964e-01
6.9375000000000009e-01 6.9374999999999964e-01
8.0937500000000007e-01 6.9374999999999964e-01
9.2500000000000004e-01 6.9374999999999964e-01
1.0406250000000001e+00 6.9374999999999964e-01
1.1562500000000000e+00 6.9374999999999964e-01
1.2718750000000001e+00 6.9374999999999964e-01
1.3875000000000002e+00 6.9374999999999964e-01
1.5031250000000000e+00 6.9374999999999964e-01
1.6187500000000001e+00 6.9374999999999964e-01
1.7343750000000000e+00 6.9374999999999964e-01
1.8500000000000001e+00 6.9374999999999964e-01
1.9656250000000002e+00 6.9374999999999964e-01
2.0812500000000003e+00 6.9374999999999964e-01
2.1968749999999999e+00 6.9374999999999964e-01
2.3125000000000000e+00 6.9374999999999964e-01
2.4281250000000001e+00 6.9374999999999964e-01
2.5437500000000002e+00 6.9374999999999964e-01
2.6593750000000003e+00 6.9374999999999964e-01
2.7750000000000004e+00 6.9374999999999964e-01
2.8906250000000000e+00 6.9374999999999964e-01
3.0062500000000001e+00 6.9374999999999964e-01
3.1218750000000002e+00 6.9374999999999964e-01
3.2375000000000003e+00 6.9374999999999964e-01
3.3531250000000004e+00 6.9374999999999964e-01
3.4687500000000000e+00 6.9374999999999964e-01
3.5843750000000001e+00 6.9374999999999964e-01
3.7000000000000002e+00 6.9374999999999964e-01
0.0000000000000000e+00 9.2499999999999982e-01
1.1562500000000001e-01 9.2499999999999982e-01
2.3125000000000001e-01 9.2499999999999982e-01
3.4687500000000004e-01 9.2499999999999982e-01
4.6250000000000002e-01 9.2499999999999982e-01
5.7812500000000000e-01 9.2499999999999982e-01
6.9375000000000009e-01 9.2499999999999982e-01
8.0937500000000007e-01 9.2499999999999982e-01
9.2500000000000004e-01 9.2499999999999982e-01
1.0406250000000001e+00 9.2499999999999982e-01
1.1562500000000000e+00 9.2499999999999982e-01
1.2718750000000001e+00 9.2499999999999982e-01
1.3875000000000002e+00 9.2499999999999982e-01
1.5031250000000000e+00 9.2499999999999982e-01
1.6187500000000001e+00 9.2499999999999982e-01
1.7343750000000000e+00 9.2499999999999982e-01
1.8500000000000001e+00 9.2499999999999982e-01
1.9656250000000002e+00 9.2499999999999982e-01
2.0812500000000003e+00 9.2499999999999982e-01
2.1968749999999999e+00 9.2499999999999982e-01
2.3125000000000000e+00 9.2499999999999982e-01
2.4281250000000001e+00 9.2499999999999982e-01
2.5437500000000002e+00 9.2499999999999982e-01
2.6593750000000003e+00 9.2499999999999982e-01
2.7750000000000004e+00 9.2499999999999982e-01
2.8906250000000000e+00 9.2499999999999982e-01
3.0062500000000001e+00 9.2499999999999982e-01
3.1218750000000002e+00 9.2499999999999982e-01
3.2375000000000003e+00 9.2499999999999982e-01
3.3531250000000004e+00 9.2499999999999982e-01
3.4687500000000000e+00 9.2499999999999982e-01
3.5843750000000001e+00 9.2499999999999982e-01
3.7000000000000002e+00 9.2499999999999982e-01
0.0000000000000000e+00 1.1562500000000000e+00
1.1562500000000001e-01 1.1562500000000000e+00
2.3125000000000001e-01 1.1562500000000000e+00
3.4687500000000004e-01 1.1562500000000000e+00
4.6250000000000002e-01 1.1562500000000000e+00
5.7812500000000000e-01 1.1562500000000000e+00
6.9375000000000009e-01 1.1562500000000000e+00
8.0937500000000007e-01 1.1562500000000000e+00
9.2500000000000004e-01 1.1562500000000000e+00
1.0406250000000001e+00 1.1562500000000000e+00
1.1562500000000000e+00 1.1562500000000000e+00
1.2718750000000001e+00 1.1562500000000000e+00
1.3875000000000002e+00 1.1562500000000000e+00
1.5031250000000000e+00 1.1562500000000000e+00
1.6187500000000001e+00 1.1562500000000000e+00
1.7343750000000000e+00 1.1562500000000000e+00
1.8500000000000001e+00 1.1562500000000000e+00
1.9656250000000002e+00 1.1562500000000000e+00
2.0812500000000003e+00 1.1562500000000000e+00
2.1968749999999999e+00 1.1562500000000000e+00
2.3125000000000000e+00 1.1562500000000000e+00
2.4281250000000001e+00 1.1562500000000000e+00
2.5437500000000002e+00 1.1562500000000000e+00
2.6593750000000003e+00 1.1562500000000000e+00
2.7750000000000004e+00 1.1562500000000000e+00
2.8906250000000000e+00 1.1562500000000000e+00
3.0062500000000001e+00 1.1562500000000000e+00
3.1218750000000002e+00 1.1562500000000000e+00
3.2375000000000003e+00 1.1562500000000000e+00
3.3531250000000004e+00 1.1562500000000000e+00
3.4687500000000000e+00 1.1562500000000000e+00
3.5843750000000001e+00 1.1562500000000000e+00
3.7000000000000002e+00 1.1562500000000000e+00
0.0000000000000000e+00 1.3875000000000002e+00
1.1562500000000001e-01 1.3875000000000002e+00
2.3125000000000001e-01 1.3875000000000002e+00
3.4687500000000004e-01 1.3875000000000002e+00
4.6250000000000002e-01 1.3875000000000002e+00
5.7812500000000000e-01 1.3875000000000002e+00
6.9375000000000009e-01 1.3875000000000002e+00
8.0937500000000007e-01 1.3875000000000002e+00
9.2500000000000004e-01 1.3875000000000002e+00
1.0406250000000001e+00 1.3875000000000002e+00
1.1562500000000000e+00 1.3875000000000002e+00
1.2718750000000001e+00 1.3875000000000002e+00
1.3875000000000002e+00 1.3875000000000002e+00
1.5031250000000000e+00 1.3875000000000002e+00
1.6187500000000001e+00 1.3875000000000002e+00
1.7343750000000000e+00 1.3875000000000002e+00
1.8500000000000001e+00 1.3875000000000002e+00
1.9656250000000002e+00 1.3875000000000002e+00
2.0812500000000003e+00 1.3875000000000002e+00
2.1968749999999999e+00 1.3875000000000002e+00
2.3125000000000000e+00 1.3875000000000002e+00
2.4281250000000001e+00 1.3875000000000002e+00
2.5437500000000002e+00 1.3875000000000002e+00
2.6593750000000003e+00 1.3875000000000002e+00
2.7750000000000004e+00 1.3875000000000002e+00
2.8906250000000000e+00 1.3875000000000002e+00
3.0062500000000001e+00 1.3875000000000002e+00
3.1218750000000002e+00 1.3875000000000002e+00
3.2375000000000003e+00 1.3875000000000002e+00
3.3531250000000004e+00 1.3875000000000002e+00
3.4687500000000000e+00 1.3875000000000002e+00
3.5843750000000001e+00 1.3875000000000002e+00
3.7000000000000002e+00 1.3875000000000002e+00
0.0000000000000000e+00 1.6187500000000004e+00
1.1562500000000001e-01 1.6187500000000004e+00
2.3125000000000001e-01 1.6187500000000004e+00
3.4687500000000004e-01 1.6187500000000004e+00
4.6250000000000002e-01 1.6187500000000004e+00
5.7812500000000000e-01 1.6187500000000004e+00
6.9375000000000009e-01 1.6187500000000004e+00
8.0937500000000007e-01 1.6187500000000004e+00
9.2500000000000004e-01 1.6187500000000004e+00
1.0406250000000001e+00 1.6187500000000004e+00
1.1562500000000000e+00 1.6187500000000004e+00
1.2718750000000001e+00 1.6187500000000004e+00
1.3875000000000002e+00 1.6187500000000004e+00
1.5031250000000000e+00 1.6187500000000004e+00
1.6187500000000001e+00 1.6187500000000004e+00
1.7343750000000000e+00 1.6187500000000004e+00
1.8500000000000001e+00 1.6187500000000004e+00
1.9656250000000002e+00 1.6187500000000004e+00
2.0812500000000003e+00 1.6187500000000004e+00
2.1968749999999999e+00 1.6187500000000004e+00
2.3125000000000000e+00 1.6187500000000004e+00
2.4281250000000001e+00 1.6187500000000004e+00
2.5437500000000002e+00 1.6187500000000004e+00
2.6593750000000003e+00 1.6187500000000004e+00
2.7750000000000004e+00 1.6187500000000004e+00
2.8906250000000000e+00 1.6187500000000004e+00
3.0062500000000001e+00 1.6187500000000004e+00
3.1218750000000002e+00 1.6187500000000004e+00
3.2375000000000003e+00 1.6187500000000004e+00
3.3531250000000004e+00 1.6187500000000004e+00
3.4687500000000000e+00 1.6187500000000004e+00
3.5843750000000001e+00 1.6187500000000004e+00
3.7000000000000002e+00 1.6187500000000004e+00
0.0000000000000000e+00 1.8500000000000005e+00
1.1562500000000001e-01 1.8500000000000005e+00
2.3125000000000001e-01 1.8500000000000005e+00
3.4687500000000004e-01 1.8500000000000005e+00
4.6250000000000002e-01 1.8500000000000005e+00
5.7812500000000000e-01 1.8500000000000005e+00
6.9375000000000009e-01 1.8500000000000005e+00
8.0937500000000007e-01 1.8500000000000005e+00
9.2500000000000004e-01 1.8500000000000005e+00
1.0406250000000001e+00 1.8500000000000005e+00
1.1562500000000000e+00 1.8500000000000005e+00
1.2718750000000001e+00 1.8500000000000005e+00
1.3875000000000002e+00 1.8500000000000005e+00
1.5031250000000000e+00 1.8500000000000005e+00
1.6187500000000001e+00 1.8500000000000005e+00
1.7343750000000000e+00 1.8500000000000005e+00
1.8500000000000001e+00 1.8500000000000005e+00
1.9656250000000002e+00 1.8500000000000005e+00
2.0812500000000003e+00 1.8500000000000005e+00
2.1968749999999999e+00 1.8500000000000005e+00
2.3125000000000000e+00 1.8500000000000005e+00
2.4281250000000001e+00 1.8500000000000005e+00
2.5437500000000002e+00 1.8500000000000005e+00
2.6593750000000003e+00 1.8500000000000005e+00
2.7750000000000004e+00 1.8500000000000005e+00
2.8906250000000000e+00 1.8500000000000005e+00
3.0062500000000001e+00 1.8500000000000005e+00
3.1218750000000002e+00 1.8500000000000005e+00
3.2375000000000003e+00 1.8500000000000005e+00
3.3531250000000004e+00 1.8500000000000005e+00
3.4687500000000000e+00 1.8500000000000005e+00
3.5843750000000001e+00 1.8500000000000005e+00
3.7000000000000002e+00 1.8500000000000005e+00
0.0000000000000000e+00 2.0812499999999998e+00
1.1562500000000001e-01 2.0812499999999998e+00
2.3125000000000001e-01 2.0812499999999998e+00
3.4687500000000004e-01 2.0812499999999998e+00
4.6250000000000002e-01 2.0812499999999998e+00
5.7812500000000000e-01 2.0812499999999998e+00
6.9375000000000009e-01 2.0812499999999998e+00
8.0937500000000007e-01 2.0812499999999998e+00
9.2500000000000004e-01 2.0812499999999998e+00
1.0406250000000001e+00 2.0812499999999998e+00
1.1562500000000000e+00 2.0812499999999998e+00
1.2718750000000001e+00 2.0812499999999998e+00
1.3875000000000002e+00 2.0812499999999998e+00
1.5031250000000000e+00 2.0812499999999998e+00
1.6187500000000001e+00 2.0812499999999998e+00
1.7343750000000000e+00 2.0812499999999998e+00
1.8500000000000001e+00 2.0812499999999998e+00
1.9656250000000002e+00 2.0812499999999998e+00
2.0812500000000003e+00 2.0812499999999998e+00
2.1968749999999999e+00 2.0812499999999998e+00
2.3125000000000000e+00 2.0812499999999998e+00
2.4281250000000001e+00 2.0812499999999998e+00
2.5437500000000002e+00 2.0812499999999998e+00
2.6593750000000003e+00 2.0812499999999998e+00
2.7750000000000004e+00 2.0812499999999998e+00
2.8906250000000000e+00 2.0812499999999998e+00
3.0062500000000001e+00 2.0812499999999998e+00
3.1218750000000002e+00 2.0812499999999998e+00
3.2375000000000003e+00 2.0812499999999998e+00
3.3531250000000004e+00 2.0812499999999998e+00
3.4687500000000000e+00 2.0812499999999998e+00
3.5843750000000001e+00 2.0812499999999998e+00
3.7000000000000002e+00 2.0812499999999998e+00
0.0000000000000000e+00 2.3125000000000000e+00
1.1562500000000001e-01 2.3125000000000000e+00
2.3125000000000001e-01 2.3125000000000000e+00
3.4687500000000004e-01 2.3125000000000000e+00
4.6250000000000002e-01 2.3125000000000000e+00
5.7812500000000000e-01 2.3125000000000000e+00
6.9375000000000009e-01 2.3125000000000000e+00
8.0937500000000007e-01 2.3125000000000000e+00
9.2500000000000004e-01 2.3125000000000000e+00
1.0406250000000001e+00 2.3125000000000000e+00
1.1562500000000000e+00 2.3125000000000000e+00
1.2718750000000001e+00 2.3125000000000000e+00
1.3875000000000002e+00 2.3125000000000000e+00
1.5031250000000000e+00 2.3125000000000000e+00
1.6187500000000001e+00 2.3125000000000000e+00
1.7343750000000000e+00 2.3125000000000000e+00
1.8500000000000001e+00 2.3125000000000000e+00
1.9656250000000002e+00 2.3125000000000000e+00
2.0812500000000003e+00 2.3125000000000000e+00
2.1968749999999999e+00 2.3125000000000000e+00
2.3125000000000000e+00 2.3125000000000000e+00
2.4281250000000001e+00 2.3125000000000000e+00
2.5437500000000002e+00 2.3125000000000000e+00
2.6593750000000003e+00 2.3125000000000000e+00
2.7750000000000004e+00 2.3125000000000000e+00
2.8906250000000000e+00 2.3125000000000000e+00
3.0062500000000001e+00 2.3125000000000000e+00
3.1218750000000002e+00 2.3125000000000000e+00
3.2375000000000003e+00 2.3125000000000000e+00
3.3531250000000004e+00 2.3125000000000000e+00
3.4687500000000000e+00 2.3125000000000000e+00
3.5843750000000001e+00 2.3125000000000000e+00
3.7000000000000002e+00 2.3125000000000000e+00
0.0000000000000000e+00 2.5437500000000002e+00
1.1562500000000001e-01 2.5437500000000002e+00
2.3125000000000001e-01 2.5437500000000002e+00
3.4687500000000004e-01 2.5437500000000002e+00
4.6250000000000002e-01 2.5437500000000002e+00
5.7812500000000000e-01 2.5437500000000002e+00
6.9375000000000009e-01 2.5437500000000002e+00
8.0937500000000007e-01 2.5437500000000002e+00
9.2500000000000004e-01 2.5437500000000002e+00
1.0406250000000001e+00 2.5437500000000002e+00
1.1562500000000000e+00 2.5437500000000002e+00
1.2718750000000001e+00 2.5437500000000002e+00
1.3875000000000002e+00 2.5437500000000002e+00
1.5031250000000000e+00 2.5437500000000002e+00
1.6187500000000001e+00 2.5437500000000002e+00
1.7343750000000000e+00 2.5437500000000002e+00
1.8500000000000001e+00 2.5437500000000002e+00
1.9656250000000002e+00 2.5437500000000002e+00
2.0812500000000003e+00 2.5437500000000002e+00
2.1968749999999999e+00 2.5437500000000002e+00
2.3125000000000000e+00 2.5437500000000002e+00
2.4281250000000001e+00 2.5437500000000002e+00
2.5437500000000002e+00 2.5437500000000002e+00
2.6593750000000003e+00 2.5437500000000002e+00
2.7750000000000004e+00 2.5437500000000002e+00
2.8906250000000000e+00 2.5437500000000002e+00
3.0062500000000001e+00 2.5437500000000002e+00
3.1218750000000002e+00 2.5437500000000002e+00
3.2375000000000003e+00 2.5437500000000002e+00
3.3531250000000004e+00 2.5437500000000002e+00
3.4687500000000000e+00 2.5437500000000002e+00
3.5843750000000001e+00 2.5437500000000002e+00
3.7000000000000002e+00 2.5437500000000002e+00
0.0000000000000000e+00 2.7750000000000004e+00
1.1562500000000001e-01 2.7750000000000004e+00
2.3125000000000001e-01 2.7750000000000004e+00
3.4687500000000004e-01 2.7750000000000004e+00
4.6250000000000002e-01 2.7750000000000004e+00
5.7812500000000000e-01 2.7750000000000004e+00
6.9375000000000009e-01 2.7750000000000004e+00
8.0937500000000007e-01 2.7750000000000004e+00
9.2500000000000004e-01 2.7750000000000004e+00
1.0406250000000001e+00 2.7750000000000004e+00
1.1562500000000000e+00 2.7750000000000004e+00
1.2718750000000001e+00 2.7750000000000004e+00
1.3875000000000002e+00 2.7750000000000004e+00
1.5031250000000000e+00 2.7750000000000004e+00
1.6187500000000001e+00 2.7750000000000004e+00
1.7343750000000000e+00 2.7750000000000004e+00
1.8500000000000001e+00 2.7750000000000004e+00
1.9656250000000002e+00 2.7750000000000004e+00
2.0812500000000003e+00 2.7750000000000004e+00
2.1968749999999999e+00 2.7750000000000004e+00
2.3125000000000000e+00 2.7750000000000004e+00
2.4281250000000001e+00 2.7750000000000004e+00
2.5437500000000002e+00 2.7750000000000004e+00
2.6593750000000003e+00 2.7750000000000004e+00
2.7750000000000004e+00 2.7750000000000004e+00
2.8906250000000000e+00 2.7750000000000004e+00
3.0062500000000001e+00 2.7750000000000004e+00
3.1218750000000002e+00 2.7750000000000004e+00
3.2375000000000003e+00 2.7750000000000004e+00
3.3531250000000004e+00 2.7750000000000004e+00
3.4687500000000000e+00 2.7750000000000004e+00
3.5843750000000001e+00 2.7750000000000004e+00
3.7000000000000002e+00 2.7750000000000004e+00
0.0000000000000000e+00 3.0062500000000005e+00
1.1562500000000001e-01 3.0062500000000005e+00
2.3125000000000001e-01 3.0062500000000005e+00
3.4687500000000004e-01 3.0062500000000005e+00
4.6250000000000002e-01 3.0062500000000005e+00
5.7812500000000000e-01 3.0062500000000005e+00
6.9375000000000009e-01 3.0062500000000005e+00
8.0937500000000007e-01 3.0062500000000005e+00
9.2500000000000004e-01 3.0062500000000005e+00
1.0406250000000001e+00 3.0062500000000005e+00
1.1562500000000000e+00 3.0062500000000005e+00
1.2718750000000001e+00 3.0062500000000005e+00
1.3875000000000002e+00 3.0062500000000005e+00
1.5031250000000000e+00 3.0062500000000005e+00
1.6187500000000001e+00 3.0062500000000005e+00
1.7343750000000000e+00 3.0062500000000005e+00
1.8500000000000001e+00 3.0062500000000005e+00
1.9656250000000002e+00 3.0062500000000005e+00
2.0812500000000003e+00 3.0062500000000005e+00
2.1968749999999999e+00 3.0062500000000005e+00
2.3125000000000000e+00 3.0062500000000005e+00
2.4281250000000001e+00 3.0062500000000005e+00
2.5437500000000002e+00 3.0062500000000005e+00
2.6593750000000003e+00 3.0062500000000005e+00
2.7750000000000004e+00 3.0062500000000005e+00
2.8906250000000000e+00 3.0062500000000005e+00
3.0062500000000001e+00 3.0062500000000005e+00
3.1218750000000002e+00 3.0062500000000005e+00
3.2375000000000003e+00 3.0062500000000005e+00
3.3531250000000004e+00 3.0062500000000005e+00
3.4687500000000000e+00 3.0062500000000005e+00
3.5843750000000001e+00 3.0062500000000005e+00
3.7000000000000002e+00 3.0062500000000005e+00
0.0000000000000000e+00 3.2374999999999998e+00
1.1562500000000001e-01 3.2374999999999998e+00
2.3125000000000001e-01 3.2374999999999998e+00
3.4687500000000004e-01 3.2374999999999998e+00
4.6250000000000002e-01 3.2374999999999998e+00
5.7812500000000000e-01 3.2374999999999998e+00
6.9375000000000009e-01 3.2374999999999998e+00
8.0937500000000007e-01 3.2374999999999998e+00
9.2500000000000004e-01 3.2374999999999998e+00
1.0406250000000001e+00 3.2374999999999998e+00
1.1562500000000000e+00 3.2374999999999998e+00
1.2718750000000001e+00 3.2374999999999998e+00
1.3875000000000002e+00 3.2374999999999998e+00
1.5031250000000000e+00 3.2374999999999998e+00
1.6187500000000001e+00 3.2374999999999998e+00
1.7343750000000000e+00 3.2374999999999998e+00
1.8500000000000001e+00 3.2374999999999998e+00
1.9656250000000002e+00 3.2374999999999998e+00
2.0812500000000003e+00 3.2374999999999998e+00
2.1968749999999999e+00 3.2374999999999998e+00
2.3125000000000000e+00 3.2374999999999998e+00
2.4281250000000001e+00 3.2374999999999998e+00
2.5437500000000002e+00 3.2374999999999998e+00
2.6593750000000003e+00 3.2374999999999998e+00
2.7750000000000004e+00 3.2374999999999998e+00
2.8906250000000000e+00 3.2374999999999998e+00
3.0062500000000001e+00 3.2374999999999998e+00
3.1218750000000002e+00 3.2374999999999998e+00
3.2375000000000003e+00 3.2374999999999998e+00
3.3531250000000004e+00 3.2374999999999998e+00
3.4687500000000000e+00 3.2374999999999998e+00
3.5843750000000001e+00 3.2374999999999998e+00
3.7000000000000002e+00 3.2374999999999998e+00
0.0000000000000000e+00 3.4687500000000000e+00
1.1562500000000001e-01 3.4687500000000000e+00
2.3125000000000001e-01 3.4687500000000000e+00
3.4687500000000004e-01 3.4687500000000000e+00
4.6250000000000002e-01 3.4687500000000000e+00
5.7812500000000000e-01 3.4687500000000000e+00
6.9375000000000009e-01 3.4687500000000000e+00
8.0937500000000007e-01 3.4687500000000000e+00
9.2500000000000004e-01 3.4687500000000000e+00
1.0406250000000001e+00 3.4687500000000000e+00
1.1562500000000000e+00 3.4687500000000000e+00
1.2718750000000001e+00 3.4687500000000000e+00
1.3875000000000002e+00 3.4687500000000000e+00
1.5031250000000000e+00 3.4687500000000000e+00
1.6187500000000001e+00 3.4687500000000000e+00
1.7343750000000000e+00 3.4687500000000000e+00
1.8500000000000001e+00 3.4687500000000000e+00
1.9656250000000002e+00 3.4687500000000000e+00
2.0812500000000003e+00 3.4687500000000000e+00
2.1968749999999999e+00 3.4687500000000000e+00
2.3125000000000000e+00 3.4687500000000000e+00
2.4281250000000001e+00 3.4687500000000000e+00
2.5437500000000002e+00 3.4687500000000000e+00
2.6593750000000003e+00 3.4687500000000000e+00
2.7750000000000004e+00 3.4687500000000000e+00
2.8906250000000000e+00 3.4687500000000000e+00
3.0062500000000001e+00 3.4687500000000000e+00
3.1218750000000002e+00 3.4687500000000000e+00
3.2375000000000003e+00 3.4687500000000000e+00
3.3531250000000004e+00 3.4687500000000000e+00
3.4687500000000000e+00 3.4687500000000000e+00
3.5843750000000001e+00 3.4687500000000000e+00
3.7000000000000002e+00 3.4687500000000000e+00
0.0000000000000000e+00 3.7000000000000002e+00
1.1562500000000001e-01 3.7000000000000002e+00
2.3125000000000001e-01 3.7000000000000002e+00
3.4687500000000004e-01 3.7000000000000002e+00
4.6250000000000002e-01 3.7000000000000002e+00
5.7812500000000000e-01 3.7000000000000002e+00
6.9375000000000009e-01 3.7000000000000002e+00
8.0937500000000007e-01 3.7000000000000002e+00
9.2500000000000004e-01 3.7000000000000002e+00
1.0406250000000001e+00 3.7000000000000002e+00
1.1562500000000000e+00 3.7000000000000002e+00
1.2718750000000001e+00 3.7000000000000002e+00
1.3875000000000002e+00 3.7000000000000002e+00
1.5031250000000000e+00 3.7000000000000002e+00
1.6187500000000001e+00 3.7000000000000002e+00
1.7343750000000000e+00 3.7000000000000002e+00
1.8500000000000001e+00 3.7000000000000002e+00
1.9656250000000002e+00 3.7000000000000002e+00
2.0812500000000003e+00 3.7000000000000002e+00
2.1968749999999999e+00 3.7000000000000002e+00
2.3125000000000000e+00 3.7000000000000002e+00
2.4281250000000001e+00 3.7000000000000002e+00
2.5437500000000002e+00 3.7000000000000002e+00
2.6593750000000003e+00 3.7000000000000002e+00
2.7750000000000004e+00 3.7000000000000002e+00
2.8906250000000000e+00 3.7000000000000002e+00
3.0062500000000001e+00 3.7000000000000002e+00
3.1218750000000002e+00 3.7000000000000002e+00
3.2375000000000003e+00 3.7000000000000002e+00
3.3531250000000004e+00 3.7000000000000002e+00
3.4687500000000000e+00 3.7000000000000002e+00
3.5843750000000001e+00 3.7000000000000002e+00
3.7000000000000002e+00 3.7000000000000002e+00
